<svg width="578" height="578" viewBox="0 0 578 578" fill="none" xmlns="http://www.w3.org/2000/svg">
<g clip-path="url(#clip0_85_2)">
<g clip-path="url(#clip1_85_2)">
<g clip-path="url(#clip2_85_2)">
<g clip-path="url(#clip3_85_2)">
<g clip-path="url(#clip4_85_2)">
<g clip-path="url(#clip5_85_2)">
<g clip-path="url(#clip6_85_2)">
<g clip-path="url(#clip7_85_2)">
<g clip-path="url(#clip8_85_2)">
<path d="M287.763 400.523C259.294 400.523 233.037 393.462 211.758 380.093C177.97 376.123 152.611 347.651 152.611 313.479C152.611 290.485 164.025 269.581 183.255 257.147L188.42 176.916L239.204 209.549C253.693 203.049 269.206 200.012 287.76 200.012C306.387 200.012 322.087 203.131 336.783 209.786L387.968 176.899L392.744 256.268C412.577 268.431 424.811 290.152 424.811 313.479C424.811 348.231 397.934 377.388 363.432 380.301C342.218 393.533 316.08 400.523 287.763 400.523ZM195.518 190.973L190.959 261.787L189.172 262.867C171.278 273.681 160.596 292.601 160.596 313.479C160.596 343.861 183.351 369.129 213.528 372.251L214.469 372.353L215.266 372.863C235.392 385.731 260.463 392.535 287.76 392.535C314.939 392.535 339.917 385.79 360.003 373.026L360.857 372.482L361.866 372.415C392.687 370.282 416.828 344.397 416.828 313.479C416.828 292.288 405.366 272.601 386.911 262.097L385.035 261.03L380.82 190.99L343.943 214.683L359 229.737L336.989 218.732C322.349 211.412 306.708 208.002 287.763 208.002C269.378 208.002 254.253 211.152 240.165 217.912L219.067 228.036L232.417 214.683L195.518 190.973Z" fill="white"/>
<path d="M237.939 277.138C226.539 277.138 217.261 267.862 217.261 256.459C217.261 245.059 226.537 235.781 237.939 235.781C249.342 235.781 258.618 245.057 258.618 256.459C258.618 267.862 249.342 277.138 237.939 277.138ZM237.939 243.769C230.94 243.769 225.246 249.463 225.246 256.459C225.246 263.456 230.94 269.153 237.939 269.153C244.938 269.153 250.63 263.458 250.63 256.459C250.63 249.461 244.938 243.769 237.939 243.769Z" fill="white"/>
<path d="M340.613 277.138C329.21 277.138 319.934 267.862 319.934 256.459C319.934 245.059 329.21 235.781 340.613 235.781C352.012 235.781 361.291 245.057 361.291 256.459C361.291 267.862 352.012 277.138 340.613 277.138ZM340.613 243.769C333.616 243.769 327.916 249.463 327.916 256.459C327.916 263.456 333.614 269.153 340.613 269.153C347.611 269.153 353.306 263.458 353.306 256.459C353.306 249.461 347.609 243.769 340.613 243.769Z" fill="white"/>
<path d="M238.289 260.815C240.934 260.815 243.079 258.671 243.079 256.026C243.079 253.38 240.934 251.236 238.289 251.236C235.643 251.236 233.499 253.38 233.499 256.026C233.499 258.671 235.643 260.815 238.289 260.815Z" fill="white"/>
<path d="M238.289 337.02C239.611 337.02 240.684 335.948 240.684 334.625C240.684 333.302 239.611 332.23 238.289 332.23C236.966 332.23 235.894 333.302 235.894 334.625C235.894 335.948 236.966 337.02 238.289 337.02Z" fill="white"/>
<path d="M238.289 339.877C235.395 339.877 233.042 337.522 233.042 334.628C233.042 331.734 235.395 329.382 238.289 329.382C241.182 329.382 243.538 331.734 243.538 334.628C243.538 337.522 241.182 339.877 238.289 339.877ZM238.289 334.171C238.038 334.171 237.832 334.374 237.832 334.625C237.832 334.879 238.038 335.082 238.289 335.082C238.539 335.082 238.745 334.879 238.745 334.625C238.745 334.374 238.539 334.171 238.289 334.171Z" fill="white"/>
<path d="M259.964 337.02C261.287 337.02 262.359 335.948 262.359 334.625C262.359 333.302 261.287 332.23 259.964 332.23C258.642 332.23 257.57 333.302 257.57 334.625C257.57 335.948 258.642 337.02 259.964 337.02Z" fill="white"/>
<path d="M259.964 339.877C257.071 339.877 254.715 337.522 254.715 334.628C254.715 331.734 257.071 329.382 259.964 329.382C262.855 329.382 265.211 331.734 265.211 334.628C265.211 337.522 262.858 339.877 259.964 339.877ZM259.964 334.171C259.711 334.171 259.508 334.374 259.508 334.625C259.508 334.879 259.711 335.082 259.964 335.082C260.215 335.082 260.421 334.879 260.421 334.625C260.421 334.374 260.215 334.171 259.964 334.171Z" fill="white"/>
<path d="M249.697 323.332C251.02 323.332 252.092 322.26 252.092 320.937C252.092 319.615 251.02 318.542 249.697 318.542C248.374 318.542 247.302 319.615 247.302 320.937C247.302 322.26 248.374 323.332 249.697 323.332Z" fill="white"/>
<path d="M249.697 326.186C246.804 326.186 244.448 323.831 244.448 320.937C244.448 318.046 246.801 315.688 249.697 315.688C252.594 315.688 254.946 318.046 254.946 320.937C254.946 323.831 252.591 326.186 249.697 326.186ZM249.697 320.481C249.446 320.481 249.241 320.687 249.241 320.937C249.241 321.188 249.446 321.391 249.697 321.391C249.948 321.391 250.154 321.188 250.154 320.937C250.154 320.687 249.948 320.481 249.697 320.481Z" fill="white"/>
<path d="M315.866 337.02C317.188 337.02 318.261 335.948 318.261 334.625C318.261 333.302 317.188 332.23 315.866 332.23C314.543 332.23 313.471 333.302 313.471 334.625C313.471 335.948 314.543 337.02 315.866 337.02Z" fill="white"/>
<path d="M315.863 339.877C312.969 339.877 310.616 337.522 310.616 334.628C310.616 331.734 312.969 329.382 315.863 329.382C318.756 329.382 321.112 331.734 321.112 334.628C321.112 337.522 318.756 339.877 315.863 339.877ZM315.863 334.171C315.612 334.171 315.412 334.374 315.412 334.625C315.412 334.879 315.612 335.082 315.863 335.082C316.116 335.082 316.322 334.879 316.322 334.625C316.322 334.374 316.116 334.171 315.863 334.171Z" fill="white"/>
<path d="M328.412 323.332C329.735 323.332 330.807 322.26 330.807 320.937C330.807 319.615 329.735 318.542 328.412 318.542C327.09 318.542 326.017 319.615 326.017 320.937C326.017 322.26 327.09 323.332 328.412 323.332Z" fill="white"/>
<path d="M328.412 326.186C325.519 326.186 323.166 323.831 323.166 320.937C323.166 318.046 325.519 315.688 328.412 315.688C331.306 315.688 333.659 318.046 333.659 320.937C333.659 323.831 331.306 326.186 328.412 326.186ZM328.412 320.481C328.162 320.481 327.956 320.687 327.956 320.937C327.956 321.188 328.162 321.391 328.412 321.391C328.663 321.391 328.872 321.188 328.872 320.937C328.872 320.687 328.663 320.481 328.412 320.481Z" fill="white"/>
<path d="M340.962 337.02C342.285 337.02 343.357 335.948 343.357 334.625C343.357 333.302 342.285 332.23 340.962 332.23C339.639 332.23 338.567 333.302 338.567 334.625C338.567 335.948 339.639 337.02 340.962 337.02Z" fill="white"/>
<path d="M340.962 339.877C338.068 339.877 335.713 337.522 335.713 334.628C335.713 331.734 338.068 329.382 340.962 329.382C343.856 329.382 346.208 331.734 346.208 334.628C346.208 337.522 343.856 339.877 340.962 339.877ZM340.962 334.171C340.708 334.171 340.505 334.374 340.505 334.625C340.505 334.879 340.708 335.082 340.962 335.082C341.21 335.082 341.416 334.879 341.416 334.625C341.416 334.374 341.21 334.171 340.962 334.171Z" fill="white"/>
<path d="M340.962 260.815C343.607 260.815 345.752 258.671 345.752 256.026C345.752 253.38 343.607 251.236 340.962 251.236C338.316 251.236 336.172 253.38 336.172 256.026C336.172 258.671 338.316 260.815 340.962 260.815Z" fill="white"/>
<path d="M326.922 283.472C317.305 283.472 308.233 286.478 300.755 291.767C300.256 291.719 299.749 291.679 299.205 291.679C297.639 291.679 295.979 291.868 294.215 292.068C292.257 292.288 290.225 292.516 288.135 292.516C286.041 292.516 284.015 292.288 282.052 292.068C280.293 291.871 278.628 291.679 277.064 291.679C276.887 291.679 276.718 291.696 276.543 291.699C269.085 286.456 260.057 283.472 250.486 283.472C225.497 283.472 205.171 303.801 205.171 328.787C205.171 353.776 225.5 374.105 250.486 374.105C259.688 374.105 268.389 371.344 275.675 366.47C279.144 369.104 283.452 370.682 288.132 370.682C293.052 370.682 297.551 368.929 301.104 366.044C308.52 371.183 317.452 374.105 326.919 374.105C351.908 374.105 372.237 353.776 372.237 328.787C372.24 303.801 351.911 283.472 326.922 283.472ZM288.135 300.504C290.676 300.504 293.032 300.236 295.114 300.003C296.644 299.828 298.092 299.667 299.205 299.667C300.036 299.667 300.425 299.757 300.572 299.808C300.648 299.986 300.828 300.535 300.828 301.786C300.828 308.785 295.134 314.482 288.135 314.482C281.136 314.482 275.442 308.788 275.442 301.786C275.442 300.535 275.622 299.983 275.698 299.808C275.844 299.757 276.233 299.667 277.064 299.667C278.18 299.667 279.626 299.831 281.156 300.003C283.238 300.236 285.593 300.504 288.135 300.504ZM288.135 362.7C285.979 362.7 283.953 362.15 282.176 361.195C284.624 358.792 286.83 356.112 288.704 353.162C290.468 355.94 292.533 358.479 294.813 360.772C292.877 361.987 290.586 362.7 288.135 362.7ZM326.922 366.123C311.735 366.123 298.188 357.045 292.398 343.002L288.707 334.039L285.013 343.002C279.226 357.045 265.676 366.123 250.489 366.123C229.904 366.123 213.156 349.372 213.156 328.787C213.156 308.202 229.904 291.457 250.489 291.457C256.995 291.457 263.177 293.159 268.595 296.168C267.845 297.675 267.456 299.549 267.456 301.786C267.456 313.189 276.732 322.467 288.135 322.467C299.538 322.467 308.813 313.189 308.813 301.786C308.813 299.8 308.509 298.095 307.917 296.681C313.544 293.345 320.055 291.457 326.922 291.457C347.507 291.457 364.255 308.202 364.255 328.787C364.255 349.372 347.504 366.123 326.922 366.123Z" fill="white"/>
</g>
</g>
<path d="M43.8702 161.943C43.9817 161.654 44.1716 161.481 44.4379 161.425C44.7063 161.369 44.9664 161.44 45.2244 161.64L76.8059 186.294C77.099 186.508 77.2807 186.752 77.3488 187.024C77.4045 187.293 77.3591 187.621 77.2084 188.011L75.9017 191.415C75.588 192.235 75.0843 192.621 74.3927 192.571L44.4792 190.798C43.9776 190.823 43.6989 190.909 43.639 191.062C43.5853 191.2 43.7567 191.396 44.151 191.65L67.7168 209.948C68.0058 210.175 68.1854 210.425 68.2536 210.698C68.3093 210.966 68.2659 211.288 68.1214 211.666L66.726 215.295C66.4308 216.063 65.9271 216.449 65.217 216.453L25.1224 213.957C24.8127 213.895 24.5774 213.755 24.4164 213.534C24.2595 213.301 24.2451 213.02 24.371 212.692L25.9914 208.476C26.0988 208.2 26.2433 207.987 26.4291 207.841C26.6272 207.7 26.8853 207.632 27.2011 207.638L58.1943 209.826C58.731 209.859 59.0241 209.777 59.0716 209.577C59.1191 209.378 58.9395 209.091 58.5328 208.72L34.0463 189.654C33.8399 189.475 33.7077 189.272 33.652 189.047C33.6025 188.839 33.6231 188.616 33.7139 188.376L35 185.03C35.1073 184.754 35.2518 184.541 35.4376 184.396C35.642 184.244 35.8897 184.2 36.1808 184.268L67.2895 186.153C67.8221 186.199 68.1111 186.122 68.1607 185.924C68.2081 185.726 68.0224 185.457 67.5992 185.123L43.0837 166.307C42.8649 166.049 42.7287 165.801 42.675 165.564C42.6337 165.331 42.6667 165.077 42.772 164.798L43.8702 161.943Z" fill="white"/>
<path d="M98.4293 152.809C96.2659 155.959 93.636 158.24 90.5375 159.652C87.4308 161.074 84.132 161.561 80.6413 161.113C77.1486 160.665 73.7218 159.286 70.3591 156.979C66.8746 154.586 64.2943 151.808 62.6181 148.643C60.9233 145.481 60.1616 142.198 60.337 138.796C60.5104 135.394 61.6788 132.118 63.8422 128.966C66.0283 125.783 68.6809 123.517 71.8 122.171C74.9191 120.823 78.2488 120.389 81.7849 120.868C85.3107 121.339 88.7767 122.744 92.1828 125.081C95.5331 127.381 98.0391 130.091 99.6968 133.212C101.363 136.321 102.116 139.566 101.957 142.948C101.798 146.327 100.624 149.615 98.4293 152.809ZM94.5464 149.948C96.045 147.766 96.7902 145.534 96.784 143.253C96.7861 140.962 96.0677 138.724 94.6331 136.544C93.2066 134.352 91.1073 132.304 88.3349 130.401C85.5626 128.498 82.8893 127.286 80.3172 126.764C77.7513 126.231 75.3877 126.369 73.2264 127.179C71.0734 127.977 69.2465 129.468 67.7499 131.65C66.2822 133.786 65.5431 136.032 65.5328 138.384C65.5308 140.724 66.2326 143.008 67.6363 145.233C69.04 147.458 71.1291 149.522 73.9014 151.426C76.6284 153.298 79.2954 154.497 81.8985 155.024C84.5015 155.55 86.8837 155.383 89.045 154.524C91.2146 153.655 93.0477 152.13 94.5464 149.948Z" fill="white"/>
<path d="M129.517 63.1713C129.751 62.9649 129.998 62.8988 130.261 62.9731C130.525 63.0474 130.723 63.2311 130.859 63.5263L147.506 99.9692C147.667 100.295 147.716 100.595 147.652 100.869C147.578 101.133 147.386 101.404 147.072 101.681L144.341 104.096C143.685 104.678 143.059 104.787 142.471 104.428L116.746 89.0554C116.289 88.8448 116 88.7953 115.881 88.9026C115.769 89.0017 115.831 89.2535 116.064 89.6581L128.531 116.764C128.683 117.099 128.727 117.402 128.663 117.677C128.588 117.941 128.401 118.205 128.097 118.473L125.184 121.052C124.567 121.597 123.944 121.708 123.314 121.382L88.8881 100.673C88.6425 100.477 88.498 100.244 88.4588 99.9713C88.4278 99.6926 88.5434 99.4367 88.8056 99.2034L92.1889 96.2102C92.4119 96.0141 92.6389 95.8923 92.8701 95.851C93.1117 95.818 93.3718 95.8758 93.6484 96.0265L120.139 112.264C120.602 112.541 120.899 112.603 121.031 112.448C121.165 112.293 121.138 111.957 120.949 111.438L108.018 83.2279C107.919 82.974 107.894 82.7325 107.948 82.5054C107.999 82.299 108.121 82.109 108.313 81.9398L110.997 79.5638C111.22 79.3677 111.447 79.2459 111.678 79.2046C111.93 79.1633 112.169 79.2397 112.396 79.4337L139.129 95.4567C139.581 95.7416 139.872 95.8076 140.006 95.6528C140.14 95.498 140.097 95.176 139.878 94.6847L126.807 66.6806C126.731 66.3503 126.724 66.0675 126.786 65.8321C126.857 65.6071 127.005 65.3966 127.226 65.1984L129.517 63.1713Z" fill="white"/>
<path d="M153.597 48.6119C154.229 48.2754 154.726 48.4467 155.088 49.1259L156.593 51.9498C156.783 52.3069 156.962 52.4576 157.129 52.3978C157.309 52.3317 157.47 52.117 157.612 51.7516C157.827 50.9486 158.161 49.9516 158.614 48.7626C159.072 47.5549 159.831 46.2937 160.89 44.9808C161.949 43.6658 163.535 42.4479 165.644 41.3229C168.386 39.8634 171.226 39.207 174.166 39.3556C177.087 39.498 179.915 40.5405 182.646 42.4809C185.396 44.4276 187.848 47.4208 189.999 51.4626C192.15 55.5024 193.327 59.2904 193.527 62.8245C193.731 66.342 193.079 69.4653 191.566 72.2005C190.059 74.946 187.757 77.1423 184.659 78.7938C182.584 79.8982 180.575 80.5484 178.629 80.7425C176.695 80.9303 174.911 80.856 173.276 80.5175C172.68 80.375 172.325 80.3812 172.207 80.536C172.083 80.6785 172.155 81.0005 172.424 81.5001L179.097 94.0323C179.409 94.6165 179.314 95.0418 178.813 95.3081L174.647 97.5272C174.147 97.7935 173.741 97.6345 173.431 97.0503L149.52 52.1604C149.304 51.7558 149.233 51.4337 149.306 51.1943C149.39 50.9507 149.634 50.7216 150.041 50.5069L153.597 48.6119ZM169.443 75.9038C171.555 76.5086 173.553 76.8286 175.44 76.8637C177.337 76.8926 179.186 76.4281 180.984 75.4723C183.141 74.3225 184.76 72.7351 185.837 70.708C186.921 68.6932 187.363 66.3317 187.158 63.6233C186.95 60.9047 185.972 57.9053 184.227 54.6272C182.475 51.3367 180.555 48.9256 178.468 47.3919C176.393 45.8498 174.277 45.0406 172.126 44.9622C169.979 44.8961 167.917 45.3916 165.938 46.4444C164.102 47.4228 162.678 48.7006 161.669 50.2798C160.67 51.8528 160.083 53.4505 159.908 55.0731C159.732 56.6956 159.955 58.0931 160.579 59.2594L169.443 75.9038Z" fill="white"/>
<path d="M212.946 47.4827C213.614 49.8897 214.803 51.9271 216.515 53.5971C218.222 55.2527 220.204 56.4066 222.458 57.0569C224.722 57.6885 227.057 57.672 229.464 57.0032C231.922 56.3199 233.97 55.2114 235.605 53.6797C237.24 52.1459 238.454 50.1621 239.249 47.7263C239.387 47.4641 239.517 47.3072 239.645 47.2598C239.754 47.202 239.946 47.1834 240.219 47.2061L243.73 47.8914C244.242 48.0153 244.389 48.3456 244.174 48.8823C243.392 51.2149 242.382 53.2276 241.142 54.9162C239.889 56.6089 238.361 58.0229 236.557 59.1542C234.759 60.2978 232.637 61.2102 230.191 61.8893C226.559 62.8967 223.116 62.9566 219.855 62.0669C216.591 61.1648 213.738 59.4411 211.294 56.8979C208.838 54.3568 207.064 51.1282 205.976 47.2123C204.792 42.9454 204.6 39.046 205.398 35.516C206.189 32.0026 207.762 29.0156 210.12 26.5529C212.481 24.1026 215.398 22.3954 218.872 21.4314C222.449 20.4385 225.785 20.36 228.876 21.1981C231.968 22.0362 234.664 23.7455 236.966 26.33C239.263 28.9021 240.999 32.3019 242.174 36.5296C242.269 36.8681 242.322 37.217 242.339 37.5762C242.357 37.9498 242.075 38.2161 241.488 38.3813L213.307 46.207C213.111 46.2606 212.987 46.4155 212.931 46.6673C212.863 46.9253 212.865 47.1958 212.946 47.4827ZM211.678 42.3075L234.045 36.0961C234.577 35.9475 234.905 35.7865 235.023 35.6131C235.135 35.4562 235.128 35.1568 235.007 34.7151C234.42 32.6075 233.417 30.7558 231.993 29.1622C230.585 27.5768 228.871 26.4559 226.853 25.7953C224.846 25.1327 222.648 25.1347 220.253 25.7994C217.598 26.5364 215.542 27.7873 214.085 29.5502C212.611 31.3049 211.688 33.3134 211.321 35.5738C210.943 37.8507 211.063 40.0946 211.678 42.3075Z" fill="white"/>
<path d="M278.375 17.501L268.71 18.3577C268.308 18.3928 268.124 18.6199 268.161 19.0368L270.302 43.1477C270.512 45.5278 271.057 47.0864 271.937 47.8212C272.83 48.5685 274.083 48.872 275.698 48.7295L280.943 48.263C281.199 48.2403 281.405 48.2836 281.564 48.391C281.736 48.4983 281.837 48.7048 281.864 49.0144L282.012 51.6051C282.058 52.117 281.785 52.4721 281.193 52.6744C280.691 52.8271 279.971 52.9654 279.034 53.0893C278.111 53.2255 277.207 53.3473 276.321 53.4526C275.436 53.5579 274.684 53.6384 274.065 53.6921C270.878 53.9749 268.483 53.4361 266.885 52.0737C265.273 50.7112 264.324 48.4034 264.032 45.148L261.776 19.747C261.731 19.235 261.458 19.0017 260.963 19.0472L254.869 19.588C254.303 19.6375 253.998 19.3878 253.948 18.8345L253.666 15.6473C253.62 15.1353 253.853 14.8587 254.363 14.8133L260.841 14.2374C261.19 14.2064 261.347 13.9897 261.312 13.5851L261.064 1.40578C261.06 0.741075 261.312 0.388083 261.824 0.342668L265.616 0.00618969C266.235 -0.049546 266.576 0.28074 266.64 0.992918L267.707 13.0174C267.742 13.4199 267.963 13.6057 268.365 13.5685L277.95 12.7181C278.501 12.6685 278.798 12.8729 278.838 13.3312L279.129 16.5989C279.178 17.1501 278.926 17.4515 278.375 17.501Z" fill="white"/>
<path d="M323.224 23.9333C322.336 22.3314 321.015 20.9731 319.262 19.8564C317.508 18.754 315.365 18.1017 312.834 17.8994C310.089 17.6806 307.766 18.0769 305.871 19.0905C303.987 20.1185 302.967 21.6213 302.808 23.5989C302.723 24.662 303.045 25.6983 303.778 26.7057C304.511 27.713 306.09 28.7204 308.516 29.7257L317.956 33.3877C321.378 34.6366 323.789 36.2385 325.191 38.1934C326.593 40.1338 327.2 42.3034 327.006 44.698C326.816 47.0802 325.934 49.1032 324.367 50.767C322.811 52.4308 320.749 53.6549 318.181 54.4373C315.611 55.2341 312.752 55.5066 309.6 55.2527C305.601 54.9327 302.166 53.851 299.293 52.0097C296.433 50.1683 294.466 48.007 293.391 45.5237C293.25 45.2553 293.186 45.02 293.205 44.8177C293.221 44.6154 293.364 44.4503 293.63 44.3223L296.733 42.8855C297.001 42.7452 297.236 42.6956 297.435 42.7369C297.635 42.7802 297.781 42.8876 297.876 43.0569C298.632 44.4441 299.544 45.662 300.612 46.7106C301.664 47.7696 302.971 48.6408 304.528 49.3199C306.084 50.0135 307.925 50.4449 310.054 50.6163C311.984 50.7174 313.755 50.575 315.371 50.189C316.986 49.8174 318.29 49.1692 319.285 48.2465C320.28 47.3361 320.829 46.2235 320.935 44.9044C321.044 43.5316 320.582 42.3013 319.543 41.2155C318.505 40.1442 316.643 39.1141 313.959 38.1273L306.301 35.2993C302.573 33.9719 300.005 32.3845 298.595 30.537C297.185 28.6894 296.553 26.6004 296.698 24.2677C296.892 21.8319 297.722 19.7635 299.187 18.0666C300.651 16.3677 302.602 15.1085 305.037 14.289C307.475 13.455 310.221 13.1598 313.276 13.4034C316.668 13.6759 319.644 14.5635 322.206 16.0705C324.766 17.5898 326.648 19.4683 327.852 21.7039C327.984 21.9186 328.042 22.1126 328.029 22.286C328.015 22.4615 327.901 22.6204 327.685 22.767L324.357 24.2471C324.147 24.3379 323.948 24.3627 323.761 24.3214C323.587 24.2801 323.408 24.1501 323.224 23.9333Z" fill="white"/>
<path d="M356.446 21.5635C357.136 21.7576 357.375 22.2241 357.167 22.9652L356.3 26.0472C356.19 26.4373 356.215 26.6685 356.378 26.7408C356.554 26.8171 356.818 26.7738 357.173 26.6066C357.883 26.1751 358.814 25.6859 359.964 25.1409C361.13 24.5856 362.551 24.1996 364.225 23.9829C365.899 23.7661 367.887 23.9808 370.186 24.629C373.175 25.4692 375.681 26.9596 377.702 29.1002C379.715 31.2223 381.036 33.9307 381.668 37.2211C382.308 40.5302 382.008 44.3863 380.77 48.7935C379.531 53.2008 377.76 56.7493 375.461 59.4411C373.177 62.1226 370.543 63.9289 367.561 64.8578C364.574 65.7991 361.39 65.795 358.013 64.8454C355.751 64.2096 353.85 63.2889 352.308 62.0834C350.78 60.882 349.543 59.5939 348.598 58.219C348.266 57.705 348.004 57.4635 347.814 57.4945C347.626 57.511 347.456 57.7938 347.302 58.3388L343.456 72.0085C343.276 72.6463 342.915 72.8879 342.368 72.733L337.827 71.4552C337.282 71.3025 337.098 70.9061 337.275 70.2683L351.046 21.3076C351.17 20.8658 351.341 20.583 351.558 20.4633C351.787 20.3456 352.124 20.3497 352.566 20.4715L356.446 21.5635ZM349.017 52.2367C350.126 54.1338 351.348 55.746 352.685 57.0754C354.035 58.409 355.693 59.3523 357.656 59.9056C360.009 60.5682 362.276 60.5393 364.456 59.8189C366.632 59.1129 368.584 57.7112 370.308 55.616C372.038 53.5063 373.405 50.6658 374.41 47.0905C375.419 43.5028 375.7 40.4332 375.254 37.8796C374.821 35.3302 373.853 33.2845 372.352 31.7405C370.847 30.2088 369.016 29.1395 366.859 28.5326C364.856 27.969 362.945 27.9091 361.124 28.3488C359.316 28.7947 357.786 29.542 356.535 30.5948C355.286 31.6455 354.481 32.8077 354.124 34.0814L349.017 52.2367Z" fill="white"/>
<path d="M411.003 81.948C408.493 82.687 406.033 82.9719 403.619 82.8006C401.206 82.6292 398.781 81.9026 396.345 80.6186C392.832 78.769 390.546 76.4137 389.487 73.5546C388.43 70.6935 388.67 67.7994 390.212 64.8722C391.469 62.4818 393.236 60.7788 395.511 59.7631C397.773 58.7413 400.498 58.4193 403.686 58.8012C406.885 59.1872 410.477 60.2916 414.461 62.1143L419.948 64.4759C420.237 64.5667 420.528 64.6059 420.825 64.5936C421.121 64.5812 421.366 64.3913 421.562 64.0197L422.514 62.2093C423.798 59.7714 424.06 57.4449 423.302 55.232C422.532 53.0108 420.871 51.2273 418.313 49.8814C416.329 48.8369 414.298 48.3476 412.219 48.4137C410.147 48.4674 408.008 49.066 405.801 50.2096C405.492 50.3355 405.263 50.4078 405.118 50.4222C404.98 50.4264 404.794 50.3128 404.563 50.0837L401.549 46.9418C401.469 46.7767 401.425 46.6095 401.423 46.4402C401.433 46.2771 401.621 46.0645 401.989 45.8003C404.577 44.1571 407.453 43.3046 410.613 43.2426C413.786 43.1869 417.153 44.0973 420.714 45.9716C423.726 47.557 425.99 49.3426 427.505 51.3326C429.029 53.3102 429.842 55.4323 429.947 57.6988C430.04 59.9592 429.456 62.2857 428.199 64.6741L415.613 88.5868C415.398 88.9934 415.19 89.2329 414.983 89.3072C414.783 89.3691 414.521 89.3154 414.197 89.1462L410.756 87.3337C410.444 87.1706 410.271 86.9498 410.236 86.6711C410.211 86.3986 410.256 86.0952 410.372 85.7587L411.959 82.6106C412.149 81.9026 411.831 81.6817 411.003 81.948ZM418.645 69.5582C419.048 68.7944 418.92 68.268 418.261 67.9831L413.582 66.0468C411.47 65.0415 409.488 64.3273 407.639 63.902C405.799 63.483 404.136 63.3096 402.647 63.3818C401.165 63.4726 399.889 63.8236 398.82 64.4346C397.745 65.058 396.888 65.9746 396.252 67.1801C395.208 69.1639 395.082 71.0733 395.87 72.9085C396.665 74.7313 398.234 76.2588 400.579 77.4912C402.024 78.2529 403.545 78.7257 405.143 78.9094C406.747 79.0807 408.258 79.0229 409.676 78.7318C411.162 78.4305 412.426 77.9743 413.464 77.3612C414.498 76.7605 415.241 76.0297 415.693 75.1689L418.645 69.5582Z" fill="white"/>
<path d="M467.544 58.7805L435.447 102.661C435.143 103.076 434.858 103.293 434.59 103.315C434.324 103.338 433.983 103.198 433.568 102.892L430.364 100.549C429.743 100.095 429.644 99.5791 430.067 99.0011L462.313 55.0545C462.736 54.4765 463.193 54.3671 463.682 54.7263L467.377 57.4305C467.879 57.7979 467.934 58.248 467.544 58.7805Z" fill="white"/>
<path d="M467.674 128.745C465.059 128.688 462.627 128.213 460.379 127.317C458.131 126.423 456.042 124.995 454.108 123.031C451.321 120.203 449.857 117.266 449.717 114.221C449.577 111.174 450.685 108.489 453.041 106.166C454.964 104.271 457.163 103.183 459.638 102.905C462.103 102.618 464.797 103.138 467.72 104.467C470.651 105.807 473.739 107.948 476.984 110.893L481.497 114.807C481.744 114.981 482.011 115.107 482.296 115.185C482.583 115.264 482.874 115.156 483.171 114.863L484.628 113.426C486.589 111.492 487.545 109.356 487.496 107.017C487.436 104.668 486.391 102.463 484.364 100.405C482.791 98.8091 481.003 97.7254 479.003 97.1577C477.011 96.5797 474.792 96.5012 472.344 96.9244C472.009 96.9512 471.77 96.9492 471.627 96.9182C471.493 96.879 471.353 96.7159 471.202 96.429L469.282 92.5192C469.256 92.3376 469.266 92.1662 469.313 92.0032C469.371 91.8504 469.617 91.7038 470.048 91.5655C473.015 90.7852 476.012 90.8451 479.04 91.7431C482.079 92.6534 485.012 94.5402 487.838 97.4075C490.227 99.8309 491.843 102.219 492.685 104.575C493.538 106.92 493.67 109.188 493.079 111.383C492.481 113.565 491.22 115.604 489.298 117.499L470.054 136.468C469.728 136.79 469.454 136.955 469.233 136.963C469.022 136.961 468.789 136.831 468.535 136.571L465.804 133.801C465.558 133.551 465.459 133.287 465.509 133.012C465.569 132.746 465.703 132.469 465.916 132.184L468.384 129.666C468.781 129.049 468.543 128.741 467.674 128.745ZM478.714 119.256C479.329 118.649 479.366 118.11 478.826 117.64L474.953 114.374C473.246 112.776 471.574 111.494 469.939 110.528C468.312 109.57 466.78 108.901 465.342 108.517C463.903 108.154 462.58 108.1 461.376 108.361C460.162 108.629 459.068 109.242 458.096 110.2C456.5 111.773 455.798 113.554 455.997 115.54C456.201 117.518 457.233 119.45 459.091 121.335C460.239 122.499 461.543 123.409 463.009 124.07C464.485 124.72 465.942 125.123 467.383 125.277C468.89 125.44 470.232 125.389 471.411 125.118C472.577 124.86 473.508 124.39 474.199 123.706L478.714 119.256Z" fill="white"/>
<path d="M522.621 142.384C524.058 144.607 524.964 146.793 525.342 148.944C525.724 151.077 525.703 153.149 525.282 155.158C524.843 157.162 524.159 159.043 523.237 160.798C522.894 161.388 522.508 161.485 522.074 161.091L518.966 158.108C518.631 157.889 518.577 157.532 518.8 157.032C519.49 155.364 519.948 153.87 520.173 152.551C520.402 151.213 520.417 149.941 520.217 148.738C520.016 147.532 519.558 146.374 518.838 145.262C517.43 143.084 515.65 141.525 513.499 140.584C511.348 139.643 508.956 139.389 506.324 139.82C503.692 140.252 500.965 141.379 498.141 143.204C495.272 145.057 493.108 147.107 491.649 149.353C490.202 151.591 489.471 153.88 489.455 156.221C489.45 158.554 490.169 160.833 491.606 163.056C492.933 165.108 494.595 166.551 496.595 167.381C498.583 168.219 500.957 168.621 503.719 168.588C504.014 168.574 504.21 168.615 504.307 168.714C504.396 168.801 504.464 168.982 504.513 169.257L505.273 172.673C505.345 173.059 505.122 173.326 504.604 173.466C503.083 173.549 501.533 173.489 499.956 173.289C498.374 173.105 496.83 172.696 495.325 172.058C493.82 171.422 492.394 170.545 491.042 169.424C489.671 168.299 488.437 166.887 487.339 165.186C485.293 162.022 484.228 158.756 484.141 155.387C484.054 152.018 484.882 148.798 486.626 145.726C488.371 142.652 490.972 140 494.432 137.762C497.947 135.489 501.477 134.197 505.021 133.885C508.57 133.553 511.883 134.104 514.965 135.537C518.047 136.969 520.598 139.253 522.621 142.384Z" fill="white"/>
<path d="M519.973 187.86C517.646 188.771 515.741 190.162 514.255 192.034C512.781 193.902 511.838 195.989 511.423 198.299C511.024 200.616 511.28 202.938 512.193 205.264C513.124 207.64 514.434 209.564 516.125 211.032C517.818 212.502 519.915 213.507 522.419 214.05C522.694 214.159 522.863 214.275 522.925 214.397C522.995 214.5 523.032 214.688 523.036 214.96L522.714 218.525C522.642 219.045 522.33 219.227 521.773 219.066C519.372 218.527 517.269 217.726 515.46 216.665C513.648 215.592 512.087 214.215 510.777 212.541C509.455 210.869 508.33 208.85 507.406 206.486C506.031 202.979 505.62 199.557 506.171 196.223C506.735 192.885 508.157 189.869 510.438 187.177C512.715 184.473 515.745 182.38 519.531 180.898C523.656 179.283 527.514 178.693 531.106 179.128C534.681 179.556 537.815 180.815 540.504 182.908C543.182 185.005 545.178 187.734 546.493 191.091C547.847 194.549 548.266 197.858 547.75 201.02C547.234 204.181 545.807 207.038 543.471 209.591C541.148 212.14 537.943 214.213 533.857 215.815C533.531 215.943 533.188 216.034 532.831 216.085C532.462 216.143 532.167 215.889 531.946 215.324L521.28 188.087C521.205 187.9 521.04 187.79 520.782 187.761C520.52 187.72 520.25 187.753 519.973 187.86ZM524.991 186.069L533.457 207.684C533.659 208.2 533.851 208.507 534.037 208.608C534.204 208.703 534.501 208.666 534.929 208.499C536.966 207.702 538.704 206.513 540.145 204.932C541.578 203.369 542.519 201.551 542.969 199.476C543.423 197.414 543.196 195.226 542.29 192.912C541.285 190.346 539.831 188.428 537.928 187.158C536.031 185.87 533.94 185.16 531.655 185.026C529.351 184.884 527.13 185.232 524.991 186.069Z" fill="white"/>
<path d="M12.0988 289.312C12.0988 277.359 21.7885 267.67 33.7428 267.67C45.695 267.67 55.3848 277.359 55.3848 289.312C55.3848 301.264 45.695 310.954 33.7428 310.954C21.7906 310.954 12.1008 301.264 12.0988 289.312Z" fill="white"/>
<path d="M522.037 289.312C522.037 277.359 531.727 267.67 543.681 267.67C555.633 267.67 565.323 277.359 565.323 289.312C565.323 301.264 555.633 310.954 543.681 310.954C531.729 310.954 522.039 301.264 522.037 289.312Z" fill="white"/>
<path d="M64.8268 359.65C65.058 360.327 64.8082 360.79 64.0795 361.037L61.0492 362.067C60.6652 362.198 60.4898 362.35 60.5207 362.526C60.5558 362.714 60.7437 362.908 61.0801 363.104C61.8377 363.444 62.7667 363.936 63.869 364.576C64.9878 365.222 66.1087 366.175 67.2358 367.433C68.3609 368.69 69.3084 370.451 70.0763 372.713C71.0754 375.655 71.2633 378.557 70.6398 381.42C70.0329 384.294 68.5508 386.921 66.1934 389.306C63.8236 391.694 60.4732 393.624 56.1382 395.096C51.8032 396.568 47.879 397.125 44.3615 396.764C40.8584 396.399 37.8796 395.251 35.4252 393.317C32.9584 391.389 31.1583 388.755 30.025 385.419C29.2736 383.206 28.9578 381.125 29.0796 379.172C29.2014 377.219 29.5626 375.471 30.1654 373.927C30.4007 373.361 30.4523 373.008 30.3202 372.868C30.2005 372.723 29.8702 372.742 29.3335 372.926L15.8888 377.492C15.2613 377.704 14.8587 377.543 14.675 377.005L13.1577 372.538C12.9761 372.001 13.197 371.625 13.8224 371.412L61.9822 355.053C62.4033 354.911 62.7336 354.89 62.969 354.997C63.196 355.119 63.3839 355.398 63.5304 355.833L64.8268 359.65ZM35.3364 370.886C34.3992 372.872 33.7614 374.794 33.4228 376.65C33.0884 378.518 33.2474 380.417 33.9018 382.347C34.6841 384.649 35.9846 386.502 37.8033 387.91C39.6301 389.3 41.8967 390.115 44.6009 390.35C47.3175 390.584 50.4346 390.1 53.9501 388.907C57.4656 387.712 60.1574 386.207 62.0215 384.391C63.8731 382.578 65.0064 380.623 65.4213 378.53C65.8445 376.418 65.6959 374.3 64.9754 372.178C64.3066 370.209 63.2745 368.599 61.879 367.346C60.4877 366.107 59.0055 365.269 57.4325 364.836C55.8596 364.4 54.4455 364.396 53.1925 364.821L35.3364 370.886Z" fill="white"/>
<path d="M73.5526 431.322C71.5089 432.757 69.9855 434.561 68.9864 436.731C67.9852 438.902 67.562 441.154 67.7148 443.487C67.8758 445.832 68.6747 448.026 70.1114 450.072C71.5708 452.151 73.2987 453.707 75.2969 454.748C77.2889 455.776 79.5638 456.257 82.1255 456.189C82.4187 456.23 82.6106 456.302 82.6994 456.405C82.7923 456.49 82.8728 456.663 82.9409 456.928L83.4715 460.468C83.5251 460.99 83.263 461.24 82.685 461.217C80.2243 461.26 77.9867 460.976 75.9719 460.36C73.9634 459.758 72.1261 458.796 70.4582 457.477C68.7779 456.164 67.209 454.469 65.7496 452.392C63.5841 449.308 62.3765 446.082 62.1226 442.713C61.8811 439.336 62.5499 436.07 64.1291 432.914C65.7021 429.747 68.1503 426.997 71.4759 424.663C75.1008 422.117 78.7112 420.631 82.3051 420.204C85.8805 419.772 89.2164 420.26 92.3149 421.665C95.4175 423.053 98.0061 425.226 100.087 428.189C102.221 431.227 103.41 434.344 103.654 437.538C103.891 440.721 103.177 443.828 101.513 446.86C99.8557 449.905 97.2361 452.683 93.6566 455.198C93.3697 455.4 93.0539 455.571 92.7071 455.716C92.3727 455.852 92.0321 455.67 91.6832 455.173L74.8778 431.233C74.7622 431.068 74.5744 431 74.3163 431.033C74.0501 431.054 73.7961 431.151 73.5526 431.322ZM78.0073 428.393L91.3446 447.393C91.6625 447.847 91.9226 448.101 92.127 448.154C92.3128 448.206 92.5915 448.101 92.9672 447.836C94.7569 446.579 96.1668 445.012 97.1928 443.138C98.2084 441.27 98.6914 439.28 98.644 437.168C98.5862 435.065 97.843 432.996 96.4166 430.963C94.8333 428.709 92.9734 427.185 90.8327 426.393C88.6858 425.59 86.4853 425.394 84.2332 425.804C81.9625 426.211 79.8858 427.074 78.0073 428.393Z" fill="white"/>
<path d="M143.113 481.218L135.756 474.895C135.448 474.631 135.163 474.654 134.899 474.959L119.124 493.319C117.565 495.131 116.83 496.609 116.915 497.751C116.993 498.903 117.652 500.013 118.89 501.079L122.885 504.511C123.079 504.679 123.192 504.856 123.228 505.044C123.271 505.242 123.192 505.459 122.99 505.694L121.238 507.608C120.903 507.998 120.457 508.05 119.9 507.767C119.44 507.515 118.839 507.096 118.096 506.51C117.344 505.934 116.626 505.372 115.943 504.821C115.249 504.262 114.667 503.779 114.196 503.372C111.769 501.287 110.485 499.196 110.346 497.101C110.196 494.995 111.187 492.704 113.315 490.225L129.936 470.882C130.263 470.502 130.23 470.147 129.839 469.813L125.215 465.839C124.786 465.47 124.755 465.069 125.125 464.64L127.212 462.212C127.546 461.822 127.907 461.795 128.297 462.13L133.227 466.368C133.493 466.597 133.757 466.557 134.024 466.25L142.562 457.588C143.034 457.122 143.464 457.056 143.852 457.39L146.742 459.871C147.212 460.276 147.219 460.744 146.76 461.279L138.893 470.434C138.629 470.742 138.652 471.027 138.957 471.291L146.255 477.562C146.674 477.923 146.736 478.278 146.436 478.625L144.298 481.115C143.928 481.544 143.534 481.579 143.113 481.218Z" fill="white"/>
<path d="M189.419 513.2C189.217 511.379 188.521 509.618 187.332 507.913C186.137 506.221 184.411 504.794 182.153 503.634C179.702 502.375 177.405 501.853 175.258 502.069C173.13 502.28 171.612 503.269 170.704 505.034C170.217 505.983 170.116 507.063 170.405 508.275C170.694 509.486 171.763 511.022 173.615 512.886L180.918 519.899C183.595 522.37 185.206 524.777 185.746 527.12C186.294 529.45 186.019 531.686 184.919 533.822C183.827 535.948 182.235 537.476 180.146 538.407C178.069 539.344 175.695 539.679 173.024 539.412C170.345 539.158 167.601 538.31 164.792 536.865C161.225 535.032 158.471 532.712 156.527 529.904C154.596 527.105 153.612 524.351 153.577 521.645C153.55 521.344 153.583 521.102 153.674 520.923C153.767 520.743 153.961 520.646 154.258 520.629L157.674 520.495C157.976 520.468 158.211 520.514 158.38 520.631C158.547 520.749 158.642 520.904 158.665 521.096C158.828 522.669 159.202 524.143 159.782 525.52C160.345 526.903 161.217 528.207 162.393 529.436C163.564 530.674 165.097 531.783 166.992 532.759C168.735 533.595 170.425 534.144 172.066 534.411C173.699 534.689 175.153 534.594 176.426 534.126C177.694 533.669 178.631 532.852 179.236 531.673C179.865 530.449 179.911 529.136 179.37 527.735C178.825 526.345 177.502 524.68 175.404 522.735L169.426 517.178C166.491 514.529 164.73 512.075 164.146 509.817C163.555 507.569 163.776 505.397 164.808 503.302C165.925 501.128 167.488 499.539 169.492 498.535C171.497 497.532 173.782 497.119 176.346 497.299C178.916 497.466 181.56 498.248 184.273 499.644C187.311 501.207 189.72 503.182 191.498 505.568C193.283 507.944 194.299 510.395 194.549 512.923C194.588 513.171 194.567 513.373 194.489 513.53C194.408 513.687 194.241 513.79 193.987 513.84L190.344 513.927C190.102 513.925 189.91 513.871 189.766 513.766C189.621 513.66 189.506 513.472 189.419 513.2Z" fill="white"/>
<path d="M270.776 524.397C271.491 524.43 271.831 524.832 271.794 525.6L271.643 528.796C271.625 529.2 271.701 529.421 271.875 529.456C272.062 529.491 272.31 529.388 272.62 529.147C273.214 528.567 274.011 527.881 275.008 527.091C276.02 526.288 277.316 525.592 278.899 525.004C280.483 524.415 282.467 524.178 284.855 524.291C287.958 524.438 290.728 525.326 293.164 526.956C295.616 528.573 297.519 530.914 298.876 533.979C300.23 537.057 300.799 540.884 300.583 545.455C300.366 550.027 299.447 553.883 297.825 557.025C296.204 560.152 294.043 562.503 291.347 564.081C288.649 565.67 285.54 566.382 282.021 566.215C279.688 566.106 277.634 565.635 275.861 564.807C274.088 563.979 272.593 563.003 271.375 561.878C270.935 561.451 270.626 561.275 270.448 561.347C270.271 561.407 270.167 561.719 270.141 562.287L269.47 576.468C269.439 577.129 269.139 577.447 268.572 577.42L263.859 577.197C263.293 577.17 263.025 576.825 263.056 576.165L265.459 525.361C265.479 524.915 265.583 524.603 265.766 524.424C265.963 524.256 266.291 524.184 266.751 524.205L270.776 524.397ZM270.44 555.953C271.947 557.553 273.499 558.85 275.101 559.845C276.717 560.84 278.542 561.387 280.58 561.482C283.007 561.597 285.21 561.065 287.185 559.888C289.149 558.697 290.734 556.887 291.944 554.455C293.153 552.011 293.847 548.935 294.024 545.225C294.2 541.516 293.783 538.461 292.773 536.062C291.764 533.676 290.36 531.907 288.564 530.753C286.754 529.586 284.729 528.948 282.489 528.843C280.413 528.744 278.536 529.116 276.86 529.956C275.198 530.796 273.877 531.869 272.896 533.176C271.916 534.481 271.394 535.796 271.33 537.117L270.44 555.953Z" fill="white"/>
<path d="M362.109 550.78C360.682 552.985 359.006 554.812 357.084 556.259C355.148 557.708 352.84 558.746 350.156 559.372C346.29 560.274 343.02 559.989 340.349 558.519C337.676 557.05 335.964 554.703 335.213 551.48C334.6 548.85 334.821 546.406 335.874 544.15C336.914 541.896 338.766 539.871 341.422 538.073C344.081 536.275 347.52 534.757 351.74 533.523L357.433 531.717C357.71 531.597 357.957 531.436 358.172 531.232C358.389 531.029 358.449 530.724 358.354 530.317L357.889 528.325C357.264 525.641 355.939 523.711 353.918 522.533C351.886 521.37 349.463 521.119 346.647 521.773C344.463 522.283 342.607 523.234 341.076 524.634C339.544 526.032 338.318 527.883 337.401 530.191C337.249 530.49 337.123 530.693 337.024 530.8C336.92 530.893 336.708 530.93 336.382 530.907L332.044 530.505C331.875 530.433 331.735 530.334 331.623 530.208C331.524 530.078 331.526 529.793 331.632 529.353C332.517 526.428 334.133 523.91 336.483 521.796C338.842 519.665 341.982 518.142 345.9 517.227C349.213 516.455 352.095 516.323 354.543 516.833C356.989 517.331 358.985 518.404 360.536 520.053C362.098 521.699 363.186 523.837 363.799 526.467L369.939 552.781C370.044 553.229 370.042 553.546 369.932 553.74C369.821 553.918 369.588 554.05 369.235 554.131L365.447 555.014C365.104 555.095 364.829 555.041 364.619 554.855C364.423 554.665 364.258 554.405 364.126 554.075L363.265 550.656C362.947 550.01 362.563 550.052 362.109 550.78ZM359.78 536.431C359.58 535.577 359.138 535.257 358.455 535.472L353.649 537.071C351.395 537.695 349.43 538.45 347.752 539.342C346.086 540.23 344.717 541.194 343.642 542.234C342.576 543.258 341.842 544.352 341.433 545.516C341.028 546.693 340.981 547.944 341.29 549.273C341.8 551.457 342.952 552.983 344.75 553.852C346.544 554.709 348.73 554.837 351.308 554.236C352.9 553.864 354.359 553.227 355.687 552.32C357.012 551.402 358.114 550.367 358.998 549.218C359.925 548.016 360.579 546.846 360.965 545.702C361.353 544.571 361.436 543.533 361.217 542.585L359.78 536.431Z" fill="white"/>
<path d="M391.067 485.295L414.385 534.406C414.606 534.871 414.661 535.224 414.552 535.47C414.445 535.715 414.158 535.948 413.695 536.167L410.11 537.87C409.414 538.201 408.912 538.042 408.607 537.395L385.301 488.121C384.993 487.475 385.115 487.021 385.664 486.761L389.799 484.798C390.361 484.531 390.782 484.696 391.067 485.295Z" fill="white"/>
<path d="M466.05 494.557C465.701 497.161 464.966 499.526 463.845 501.657C462.714 503.795 461.069 505.719 458.911 507.43C455.8 509.897 452.723 511.035 449.678 510.847C446.633 510.659 444.084 509.268 442.028 506.675C440.349 504.559 439.505 502.255 439.497 499.764C439.476 497.28 440.283 494.659 441.92 491.897C443.557 489.135 446.018 486.296 449.306 483.379L453.682 479.315C453.883 479.088 454.036 478.836 454.145 478.561C454.254 478.285 454.178 477.983 453.918 477.655L452.648 476.053C450.937 473.894 448.916 472.713 446.583 472.511C444.249 472.327 441.951 473.134 439.685 474.928C437.928 476.322 436.654 477.975 435.868 479.893C435.079 481.81 434.761 484.009 434.918 486.488C434.908 486.823 434.881 487.06 434.836 487.2C434.782 487.328 434.604 487.452 434.303 487.57L430.207 489.058C430.024 489.066 429.854 489.038 429.7 488.971C429.555 488.897 429.435 488.639 429.342 488.193C428.895 485.171 429.281 482.203 430.503 479.288C431.727 476.353 433.915 473.636 437.067 471.136C439.734 469.022 442.284 467.672 444.715 467.09C447.139 466.496 449.403 466.613 451.509 467.443C453.625 468.265 455.522 469.732 457.2 471.85L473.985 493.024C474.27 493.383 474.404 493.674 474.389 493.893C474.365 494.101 474.21 494.318 473.925 494.545L470.876 496.96C470.601 497.179 470.329 497.247 470.061 497.169C469.803 497.082 469.542 496.917 469.28 496.675L467.043 493.953C466.479 493.503 466.147 493.705 466.05 494.557ZM457.819 482.576C457.274 481.889 456.738 481.788 456.209 482.275L452.547 485.774C450.776 487.299 449.321 488.823 448.183 490.344C447.056 491.857 446.23 493.315 445.702 494.714C445.178 496.095 444.977 497.4 445.107 498.624C445.244 499.861 445.735 501.012 446.581 502.082C447.975 503.838 449.67 504.726 451.666 504.747C453.654 504.755 455.685 503.938 457.759 502.292C459.039 501.277 460.088 500.077 460.901 498.692C461.706 497.295 462.264 495.889 462.571 494.473C462.895 492.991 462.988 491.651 462.848 490.454C462.716 489.267 462.348 488.29 461.746 487.529L457.819 482.576Z" fill="white"/>
<path d="M480.211 424.297C481.769 422.159 483.48 420.53 485.345 419.417C487.207 418.284 489.149 417.553 491.176 417.223C493.205 416.913 495.206 416.874 497.175 417.107C497.842 417.225 498.071 417.551 497.864 418.086L496.199 422.06C496.114 422.45 495.8 422.629 495.255 422.598C493.451 422.553 491.892 422.665 490.58 422.929C489.248 423.195 488.057 423.639 487.004 424.258C485.951 424.877 485.035 425.724 484.257 426.793C482.731 428.888 481.916 431.11 481.81 433.457C481.705 435.802 482.327 438.126 483.677 440.428C485.025 442.729 487.058 444.87 489.774 446.848C492.537 448.858 495.226 450.142 497.848 450.695C500.467 451.251 502.866 451.11 505.044 450.274C507.222 449.438 509.092 447.952 510.651 445.811C512.089 443.836 512.843 441.77 512.909 439.614C512.965 437.451 512.482 435.085 511.46 432.519C511.34 432.249 511.309 432.051 511.365 431.925C511.414 431.811 511.559 431.681 511.798 431.539L514.711 429.601C515.045 429.394 515.374 429.506 515.694 429.939C516.319 431.328 516.821 432.796 517.199 434.342C517.595 435.884 517.768 437.472 517.715 439.105C517.663 440.737 517.355 442.385 516.796 444.048C516.239 445.731 515.363 447.391 514.172 449.028C511.955 452.072 509.29 454.242 506.177 455.534C503.064 456.826 499.762 457.21 496.267 456.686C492.772 456.162 489.36 454.69 486.032 452.264C482.659 449.808 480.184 446.978 478.607 443.776C477.021 440.585 476.344 437.292 476.575 433.903C476.807 430.513 478.018 427.311 480.211 424.297Z" fill="white"/>
<path d="M525.732 390.041C528.069 390.926 530.414 391.174 532.774 390.784C535.131 390.392 537.232 389.479 539.078 388.04C540.927 386.589 542.296 384.696 543.182 382.359C544.082 379.985 544.4 377.68 544.137 375.444C543.869 373.219 542.99 371.066 541.495 368.983C541.365 368.717 541.318 368.518 541.353 368.388C541.371 368.264 541.468 368.099 541.65 367.893L544.28 365.467C544.682 365.129 545.035 365.205 545.341 365.696C546.759 367.707 547.779 369.72 548.404 371.732C549.032 373.733 549.269 375.793 549.112 377.915C548.97 380.041 548.45 382.291 547.55 384.667C546.214 388.191 544.224 391.003 541.578 393.104C538.919 395.201 535.841 396.481 532.344 396.946C528.841 397.423 525.189 396.942 521.389 395.499C517.248 393.928 513.991 391.777 511.619 389.044C509.255 386.327 507.783 383.292 507.207 379.94C506.613 376.596 506.958 373.231 508.24 369.848C509.557 366.376 511.466 363.64 513.972 361.644C516.472 359.66 519.444 358.507 522.89 358.18C526.339 357.842 530.111 358.449 534.2 359.999C534.528 360.123 534.848 360.288 535.162 360.494C535.461 360.695 535.503 361.079 535.288 361.646L524.917 388.996C524.845 389.186 524.894 389.378 525.066 389.572C525.233 389.781 525.454 389.935 525.732 390.041ZM520.809 388.001L529.039 366.295C529.235 365.777 529.299 365.42 529.231 365.22C529.169 365.038 528.926 364.865 528.496 364.704C526.451 363.927 524.364 363.643 522.235 363.845C520.119 364.053 518.202 364.77 516.48 365.996C514.771 367.226 513.477 369.001 512.597 371.326C511.621 373.902 511.406 376.297 511.951 378.512C512.492 380.739 513.565 382.669 515.171 384.304C516.784 385.955 518.664 387.188 520.809 388.001Z" fill="white"/>
</g>
</g>
</g>
</g>
</g>
</g>
</g>
<defs>
<clipPath id="clip0_85_2">
<rect width="578" height="578" fill="white"/>
</clipPath>
<clipPath id="clip1_85_2">
<rect width="578" height="578" fill="white" transform="translate(-0.289001 -0.289001)"/>
</clipPath>
<clipPath id="clip2_85_2">
<rect width="577.422" height="577.422" fill="white"/>
</clipPath>
<clipPath id="clip3_85_2">
<rect width="577.422" height="577.422" fill="white"/>
</clipPath>
<clipPath id="clip4_85_2">
<rect width="577.422" height="577.422" fill="white"/>
</clipPath>
<clipPath id="clip5_85_2">
<rect width="577.422" height="577.422" fill="white"/>
</clipPath>
<clipPath id="clip6_85_2">
<rect width="577.422" height="577.422" fill="white"/>
</clipPath>
<clipPath id="clip7_85_2">
<rect width="272.199" height="223.624" fill="white" transform="translate(152.611 176.899)"/>
</clipPath>
<clipPath id="clip8_85_2">
<rect width="272.199" height="223.624" fill="white" transform="translate(152.611 176.899)"/>
</clipPath>
</defs>
</svg>
