<svg xmlns="http://www.w3.org/2000/svg" version="1.1" xmlns:xlink="http://www.w3.org/1999/xlink" xmlns:svgjs="http://svgjs.dev/svgjs" width="1500" height="1500" viewBox="0 0 1500 1500"><g transform="matrix(1,0,0,1,-0.7499999999998863,-0.7499999999998863)"><svg viewBox="0 0 280 280" data-background-color="#ffffff" preserveAspectRatio="xMidYMid meet" height="1500" width="1500" xmlns="http://www.w3.org/2000/svg" xmlns:xlink="http://www.w3.org/1999/xlink"><g id="tight-bounds" transform="matrix(1,0,0,1,0.13999999999998636,0.13999999999998636)"><svg viewBox="0 0 279.72 279.72" height="279.72" width="279.72"><g><svg viewBox="0 0 279.72 279.72" height="279.72" width="279.72"><g><svg viewBox="0 0 279.72 279.72" height="279.72" width="279.72"><g id="textblocktransform"><svg viewBox="0 0 279.72 279.72" height="279.72" width="279.72" id="textblock"><g><svg viewBox="0 0 279.72 279.72" height="279.72" width="279.72"><g transform="matrix(1,0,0,1,73.92936372216631,85.69501392794697)"><svg viewBox="0 0 131.8612725556674 108.32997214410608" height="108.32997214410608" width="131.8612725556674"><g id="icon-0"><svg xmlns="http://www.w3.org/2000/svg" xmlns:xlink="http://www.w3.org/1999/xlink" version="1.1" x="0" y="0" viewBox="2.316 10.136000000000006 96.60699999999999 79.36699999999999" enable-background="new 0 0 100 100" xml:space="preserve" height="108.32997214410608" width="131.8612725556674" class="icon-xg-0" data-fill-palette-color="accent" id="xg-0"><g fill="#3d9970" data-fill-palette-color="accent"><path d="M50.283 89.503c-10.104 0-19.423-2.506-26.975-7.251C11.316 80.843 2.316 70.738 2.316 58.61c0-8.161 4.051-15.58 10.876-19.993l1.833-28.475 18.024 11.582c5.142-2.307 10.648-3.385 17.233-3.385 6.611 0 12.183 1.107 17.399 3.469l18.166-11.672 1.695 28.169c7.039 4.317 11.381 12.026 11.381 20.305 0 12.334-9.539 22.682-21.784 23.716C69.61 87.022 60.333 89.503 50.283 89.503zM17.544 15.131l-1.618 25.133-0.634 0.383C8.941 44.485 5.15 51.2 5.15 58.61c0 10.783 8.076 19.751 18.786 20.859l0.334 0.036 0.283 0.181c7.143 4.567 16.041 6.982 25.729 6.982 9.646 0 18.511-2.394 25.64-6.924l0.303-0.193 0.358-0.024C87.522 78.77 96.09 69.583 96.09 58.61c0-7.521-4.068-14.508-10.618-18.236l-0.666-0.379L83.31 15.137l-13.088 8.409 5.344 5.343-7.812-3.906c-5.196-2.598-10.747-3.808-17.471-3.808-6.525 0-11.893 1.118-16.893 3.517l-7.488 3.593 4.738-4.739L17.544 15.131z" fill="#3d9970" data-fill-palette-color="accent"></path></g><g fill="#3d9970" data-fill-palette-color="accent"><path d="M32.6 45.712c-4.046 0-7.339-3.292-7.339-7.339 0-4.046 3.292-7.339 7.339-7.339 4.047 0 7.339 3.292 7.339 7.339C39.939 42.42 36.647 45.712 32.6 45.712zM32.6 33.869c-2.484 0-4.505 2.021-4.505 4.504s2.021 4.505 4.505 4.505 4.504-2.021 4.504-4.505S35.084 33.869 32.6 33.869z" fill="#3d9970" data-fill-palette-color="accent"></path></g><g fill="#3d9970" data-fill-palette-color="accent"><path d="M69.04 45.712c-4.047 0-7.339-3.292-7.339-7.339 0-4.046 3.292-7.339 7.339-7.339 4.046 0 7.339 3.292 7.339 7.339C76.379 42.42 73.086 45.712 69.04 45.712zM69.04 33.869c-2.483 0-4.506 2.021-4.506 4.504s2.022 4.505 4.506 4.505 4.505-2.021 4.505-4.505S71.523 33.869 69.04 33.869z" fill="#3d9970" data-fill-palette-color="accent"></path></g><g fill="#3d9970" data-fill-palette-color="accent"><circle cx="32.724" cy="38.219" r="1.7" fill="#3d9970" data-fill-palette-color="accent"></circle></g><g fill="#3d9970" data-fill-palette-color="accent"><circle cx="32.724" cy="66.115" r="0.85" fill="#3d9970" data-fill-palette-color="accent"></circle><path d="M32.724 67.979c-1.027 0-1.862-0.836-1.862-1.863s0.835-1.862 1.862-1.862c1.027 0 1.863 0.835 1.863 1.862S33.751 67.979 32.724 67.979zM32.724 65.954c-0.089 0-0.162 0.072-0.162 0.161 0 0.09 0.073 0.162 0.162 0.162 0.089 0 0.162-0.072 0.162-0.162C32.886 66.026 32.813 65.954 32.724 65.954z" fill="#3d9970" data-fill-palette-color="accent"></path></g><g fill="#3d9970" data-fill-palette-color="accent"><circle cx="40.417" cy="66.115" r="0.85" fill="#3d9970" data-fill-palette-color="accent"></circle><path d="M40.417 67.979c-1.027 0-1.863-0.836-1.863-1.863s0.836-1.862 1.863-1.862c1.026 0 1.862 0.835 1.862 1.862S41.444 67.979 40.417 67.979zM40.417 65.954c-0.09 0-0.162 0.072-0.162 0.161 0 0.09 0.072 0.162 0.162 0.162 0.089 0 0.162-0.072 0.162-0.162C40.579 66.026 40.506 65.954 40.417 65.954z" fill="#3d9970" data-fill-palette-color="accent"></path></g><g fill="#3d9970" data-fill-palette-color="accent"><circle cx="36.773" cy="61.257" r="0.85" fill="#3d9970" data-fill-palette-color="accent"></circle><path d="M36.773 63.12c-1.027 0-1.863-0.836-1.863-1.863 0-1.026 0.835-1.863 1.863-1.863s1.863 0.837 1.863 1.863C38.636 62.284 37.8 63.12 36.773 63.12zM36.773 61.095c-0.089 0-0.162 0.073-0.162 0.162s0.073 0.161 0.162 0.161c0.089 0 0.162-0.072 0.162-0.161S36.862 61.095 36.773 61.095z" fill="#3d9970" data-fill-palette-color="accent"></path></g><g fill="#3d9970" data-fill-palette-color="accent"><circle cx="60.257" cy="66.115" r="0.85" fill="#3d9970" data-fill-palette-color="accent"></circle><path d="M60.256 67.979c-1.027 0-1.862-0.836-1.862-1.863s0.835-1.862 1.862-1.862 1.863 0.835 1.863 1.862S61.283 67.979 60.256 67.979zM60.256 65.954c-0.089 0-0.16 0.072-0.16 0.161 0 0.09 0.071 0.162 0.16 0.162 0.09 0 0.163-0.072 0.163-0.162C60.419 66.026 60.346 65.954 60.256 65.954z" fill="#3d9970" data-fill-palette-color="accent"></path></g><g fill="#3d9970" data-fill-palette-color="accent"><circle cx="64.71" cy="61.257" r="0.85" fill="#3d9970" data-fill-palette-color="accent"></circle><path d="M64.71 63.12c-1.027 0-1.862-0.836-1.862-1.863 0-1.026 0.835-1.863 1.862-1.863s1.862 0.837 1.862 1.863C66.572 62.284 65.737 63.12 64.71 63.12zM64.71 61.095c-0.089 0-0.162 0.073-0.162 0.162s0.073 0.161 0.162 0.161 0.163-0.072 0.163-0.161S64.799 61.095 64.71 61.095z" fill="#3d9970" data-fill-palette-color="accent"></path></g><g fill="#3d9970" data-fill-palette-color="accent"><circle cx="69.164" cy="66.115" r="0.85" fill="#3d9970" data-fill-palette-color="accent"></circle><path d="M69.164 67.979c-1.027 0-1.863-0.836-1.863-1.863s0.836-1.862 1.863-1.862 1.862 0.835 1.862 1.862S70.191 67.979 69.164 67.979zM69.164 65.954c-0.09 0-0.162 0.072-0.162 0.161 0 0.09 0.072 0.162 0.162 0.162 0.088 0 0.161-0.072 0.161-0.162C69.325 66.026 69.252 65.954 69.164 65.954z" fill="#3d9970" data-fill-palette-color="accent"></path></g><g fill="#3d9970" data-fill-palette-color="accent"><circle cx="69.164" cy="38.219" r="1.7" fill="#3d9970" data-fill-palette-color="accent"></circle></g><path d="M64.181 47.96c-3.413 0-6.633 1.067-9.287 2.944-0.177-0.017-0.357-0.031-0.55-0.031-0.556 0-1.145 0.067-1.771 0.138-0.695 0.078-1.416 0.159-2.158 0.159-0.743 0-1.462-0.081-2.159-0.159-0.624-0.07-1.215-0.138-1.77-0.138-0.063 0-0.123 0.006-0.185 0.007-2.647-1.861-5.851-2.92-9.248-2.92-8.869 0-16.083 7.215-16.083 16.083 0 8.869 7.215 16.084 16.083 16.084 3.266 0 6.354-0.98 8.94-2.71 1.231 0.935 2.76 1.495 4.421 1.495 1.746 0 3.343-0.622 4.604-1.646 2.632 1.824 5.802 2.861 9.162 2.861 8.869 0 16.084-7.215 16.084-16.084C80.265 55.175 73.05 47.96 64.181 47.96zM50.415 54.005c0.902 0 1.738-0.095 2.477-0.178 0.543-0.062 1.057-0.119 1.452-0.119 0.295 0 0.433 0.032 0.485 0.05 0.027 0.063 0.091 0.258 0.091 0.702 0 2.484-2.021 4.506-4.505 4.506-2.484 0-4.505-2.021-4.505-4.506 0-0.444 0.064-0.64 0.091-0.702 0.052-0.018 0.19-0.05 0.485-0.05 0.396 0 0.909 0.058 1.452 0.119C48.677 53.91 49.513 54.005 50.415 54.005zM50.415 76.079c-0.765 0-1.484-0.195-2.115-0.534 0.869-0.853 1.652-1.804 2.317-2.851 0.626 0.986 1.359 1.887 2.168 2.701C52.098 75.826 51.285 76.079 50.415 76.079zM64.181 77.294c-5.39 0-10.198-3.222-12.253-8.206l-1.31-3.181-1.311 3.181c-2.054 4.984-6.863 8.206-12.253 8.206-7.306 0-13.25-5.945-13.25-13.251s5.944-13.249 13.25-13.249c2.309 0 4.503 0.604 6.426 1.672-0.266 0.535-0.404 1.2-0.404 1.994 0 4.047 3.292 7.34 7.339 7.34 4.047 0 7.339-3.293 7.339-7.34 0-0.705-0.108-1.31-0.318-1.812 1.997-1.184 4.308-1.854 6.745-1.854 7.306 0 13.25 5.943 13.25 13.249S71.486 77.294 64.181 77.294z" fill="#3d9970" data-fill-palette-color="accent"></path></svg></g></svg></g><g id="text-0"><path d="M21.252 78.45v0c0.054-0.14 0.146-0.224 0.275-0.251 0.13-0.027 0.256 0.007 0.381 0.104v0l15.299 11.943c0.142 0.104 0.23 0.222 0.263 0.354 0.027 0.13 0.005 0.289-0.068 0.478v0l-0.633 1.649c-0.152 0.397-0.396 0.584-0.731 0.56v0l-14.491-0.859c-0.243 0.012-0.378 0.054-0.407 0.128-0.026 0.067 0.057 0.162 0.248 0.285v0l11.416 8.864c0.14 0.11 0.227 0.231 0.26 0.363 0.027 0.13 0.006 0.286-0.064 0.469v0l-0.676 1.758c-0.143 0.372-0.387 0.559-0.731 0.561v0l-19.423-1.209c-0.15-0.03-0.264-0.098-0.342-0.205-0.076-0.113-0.083-0.249-0.022-0.408v0l0.785-2.042c0.052-0.134 0.122-0.237 0.212-0.308 0.096-0.068 0.221-0.101 0.374-0.098v0l15.014 1.06c0.26 0.016 0.402-0.024 0.425-0.121 0.023-0.096-0.064-0.235-0.261-0.415v0l-11.862-9.236c-0.1-0.087-0.164-0.185-0.191-0.294-0.024-0.101-0.014-0.209 0.03-0.325v0l0.623-1.621c0.052-0.134 0.122-0.237 0.212-0.307 0.099-0.074 0.219-0.095 0.36-0.062v0l15.07 0.913c0.258 0.022 0.398-0.015 0.422-0.111 0.023-0.096-0.067-0.226-0.272-0.388v0l-11.876-9.115c-0.106-0.125-0.172-0.245-0.198-0.36-0.02-0.113-0.004-0.236 0.047-0.371v0z" fill="#3d9970" data-fill-palette-color="primary"></path><path d="M47.682 74.025v0c-1.048 1.526-2.322 2.631-3.823 3.315-1.505 0.689-3.103 0.925-4.794 0.708-1.692-0.217-3.352-0.885-4.981-2.003v0c-1.688-1.159-2.938-2.505-3.75-4.038-0.821-1.532-1.19-3.122-1.105-4.77 0.084-1.648 0.65-3.235 1.698-4.762v0c1.059-1.542 2.344-2.64 3.855-3.292 1.511-0.653 3.124-0.863 4.837-0.631 1.708 0.228 3.387 0.909 5.037 2.041v0c1.623 1.114 2.837 2.427 3.64 3.939 0.807 1.506 1.172 3.078 1.095 4.716-0.077 1.637-0.646 3.23-1.709 4.777zM45.801 72.639v0c0.726-1.057 1.087-2.138 1.084-3.243 0.001-1.11-0.347-2.194-1.042-3.25-0.691-1.062-1.708-2.054-3.051-2.976v0c-1.343-0.922-2.638-1.509-3.884-1.762-1.243-0.258-2.388-0.191-3.435 0.201-1.043 0.387-1.928 1.109-2.653 2.166v0c-0.711 1.035-1.069 2.123-1.074 3.262-0.001 1.134 0.339 2.24 1.019 3.318 0.68 1.078 1.692 2.078 3.035 3v0c1.321 0.907 2.613 1.488 3.874 1.743 1.261 0.255 2.415 0.174 3.462-0.242 1.051-0.421 1.939-1.16 2.665-2.217z" fill="#3d9970" data-fill-palette-color="primary"></path><path d="M62.742 30.602v0c0.113-0.1 0.233-0.132 0.36-0.096 0.128 0.036 0.224 0.125 0.29 0.268v0l8.064 17.654c0.078 0.158 0.102 0.303 0.071 0.436-0.036 0.128-0.129 0.259-0.281 0.393v0l-1.323 1.17c-0.318 0.282-0.621 0.335-0.906 0.161v0l-12.462-7.447c-0.221-0.102-0.361-0.126-0.419-0.074-0.054 0.048-0.024 0.17 0.089 0.366v0l6.039 13.131c0.074 0.162 0.095 0.309 0.064 0.442-0.036 0.128-0.127 0.256-0.274 0.386v0l-1.411 1.249c-0.299 0.264-0.601 0.318-0.906 0.16v0l-16.677-10.032c-0.119-0.095-0.189-0.208-0.208-0.34-0.015-0.135 0.041-0.259 0.168-0.372v0l1.639-1.45c0.108-0.095 0.218-0.154 0.33-0.174 0.117-0.016 0.243 0.012 0.377 0.085v0l12.833 7.866c0.224 0.134 0.368 0.164 0.432 0.089 0.065-0.075 0.052-0.238-0.04-0.489v0l-6.264-13.666c-0.048-0.123-0.06-0.24-0.034-0.35 0.025-0.1 0.084-0.192 0.177-0.274v0l1.3-1.151c0.108-0.095 0.218-0.154 0.33-0.174 0.122-0.02 0.238 0.017 0.348 0.111v0l12.95 7.762c0.219 0.138 0.36 0.17 0.425 0.095 0.065-0.075 0.044-0.231-0.062-0.469v0l-6.332-13.566c-0.037-0.16-0.04-0.297-0.01-0.411 0.034-0.109 0.106-0.211 0.213-0.307v0z" fill="#3d9970" data-fill-palette-color="primary"></path><path d="M74.407 23.549v0c0.306-0.163 0.547-0.08 0.722 0.249v0l0.729 1.368c0.092 0.173 0.179 0.246 0.26 0.217 0.087-0.032 0.165-0.136 0.234-0.313v0c0.104-0.389 0.266-0.872 0.485-1.448 0.222-0.585 0.59-1.196 1.103-1.832 0.513-0.637 1.281-1.227 2.303-1.772v0c1.328-0.707 2.704-1.025 4.128-0.953 1.415 0.069 2.785 0.574 4.108 1.514 1.332 0.943 2.52 2.393 3.562 4.351v0c1.042 1.957 1.612 3.792 1.709 5.504 0.099 1.704-0.217 3.217-0.95 4.542-0.73 1.33-1.845 2.394-3.346 3.194v0c-1.005 0.535-1.978 0.85-2.921 0.944-0.937 0.091-1.801 0.055-2.593-0.109v0c-0.289-0.069-0.461-0.066-0.518 0.009-0.06 0.069-0.025 0.225 0.105 0.467v0l3.233 6.071c0.151 0.283 0.105 0.489-0.138 0.618v0l-2.018 1.075c-0.242 0.129-0.439 0.052-0.589-0.231v0l-11.583-21.746c-0.105-0.196-0.139-0.352-0.104-0.468 0.041-0.118 0.159-0.229 0.356-0.333v0zM82.083 36.77v0c1.023 0.293 1.991 0.448 2.905 0.465 0.919 0.014 1.815-0.211 2.686-0.674v0c1.045-0.557 1.829-1.326 2.351-2.308 0.525-0.976 0.739-2.12 0.64-3.432-0.101-1.317-0.575-2.77-1.42-4.358v0c-0.849-1.594-1.779-2.762-2.79-3.505-1.005-0.747-2.03-1.139-3.072-1.177-1.04-0.032-2.039 0.208-2.998 0.718v0c-0.889 0.474-1.579 1.093-2.068 1.858-0.484 0.762-0.768 1.536-0.853 2.322-0.085 0.786 0.023 1.463 0.325 2.028v0z" fill="#3d9970" data-fill-palette-color="primary"></path><path d="M103.157 23.002v0c0.324 1.166 0.9 2.153 1.729 2.962 0.827 0.802 1.787 1.361 2.879 1.676 1.097 0.306 2.228 0.298 3.394-0.026v0c1.191-0.331 2.183-0.868 2.975-1.61 0.792-0.743 1.38-1.704 1.765-2.884v0c0.067-0.127 0.13-0.203 0.192-0.226 0.053-0.028 0.146-0.037 0.278-0.026v0l1.701 0.332c0.248 0.06 0.319 0.22 0.215 0.48v0c-0.379 1.13-0.868 2.105-1.469 2.923-0.607 0.82-1.347 1.505-2.221 2.053-0.871 0.554-1.899 0.996-3.084 1.325v0c-1.759 0.488-3.427 0.517-5.007 0.086-1.581-0.437-2.963-1.272-4.147-2.504-1.19-1.231-2.049-2.795-2.576-4.692v0c-0.574-2.067-0.667-3.956-0.28-5.666 0.383-1.702 1.145-3.149 2.287-4.342 1.144-1.187 2.557-2.014 4.24-2.481v0c1.733-0.481 3.349-0.519 4.846-0.113 1.498 0.406 2.804 1.234 3.919 2.486 1.113 1.246 1.954 2.893 2.523 4.941v0c0.046 0.164 0.072 0.333 0.08 0.507 0.009 0.181-0.128 0.31-0.412 0.39v0l-13.652 3.791c-0.095 0.026-0.155 0.101-0.182 0.223-0.033 0.125-0.031 0.256 0.008 0.395zM102.543 20.495l10.835-3.009c0.258-0.072 0.417-0.15 0.474-0.234 0.054-0.076 0.051-0.221-0.008-0.435v0c-0.284-1.021-0.77-1.918-1.46-2.69-0.682-0.768-1.512-1.311-2.49-1.631-0.972-0.321-2.037-0.32-3.197 0.002v0c-1.286 0.357-2.282 0.963-2.988 1.817-0.714 0.85-1.161 1.823-1.339 2.918-0.183 1.103-0.125 2.19 0.173 3.262z" fill="#3d9970" data-fill-palette-color="primary"></path><path d="M134.853 8.478l-4.682 0.415c-0.195 0.017-0.284 0.127-0.266 0.329v0l1.037 11.68c0.102 1.153 0.366 1.908 0.792 2.264 0.433 0.362 1.04 0.509 1.822 0.44v0l2.541-0.226c0.124-0.011 0.224 0.01 0.301 0.062 0.083 0.052 0.132 0.152 0.145 0.302v0l0.072 1.255c0.022 0.248-0.11 0.42-0.397 0.518v0c-0.243 0.074-0.592 0.141-1.046 0.201-0.447 0.066-0.885 0.125-1.314 0.176-0.429 0.051-0.793 0.09-1.093 0.116v0c-1.544 0.137-2.704-0.124-3.478-0.784-0.781-0.66-1.241-1.778-1.382-3.355v0l-1.093-12.305c-0.022-0.248-0.154-0.361-0.394-0.339v0l-2.952 0.262c-0.274 0.024-0.422-0.097-0.446-0.365v0l-0.137-1.544c-0.022-0.248 0.091-0.382 0.338-0.404v0l3.138-0.279c0.169-0.015 0.245-0.12 0.228-0.316v0l-0.12-5.9c-0.002-0.322 0.12-0.493 0.368-0.515v0l1.837-0.163c0.3-0.027 0.465 0.133 0.496 0.478v0l0.517 5.825c0.017 0.195 0.124 0.285 0.319 0.267v0l4.643-0.412c0.267-0.024 0.411 0.075 0.43 0.297v0l0.141 1.583c0.024 0.267-0.098 0.413-0.365 0.437z" fill="#3d9970" data-fill-palette-color="primary"></path><path d="M156.579 11.594v0c-0.43-0.776-1.07-1.434-1.919-1.975-0.85-0.534-1.888-0.85-3.114-0.948v0c-1.33-0.106-2.455 0.086-3.373 0.577-0.913 0.498-1.407 1.226-1.484 2.184v0c-0.041 0.515 0.115 1.017 0.47 1.505 0.355 0.488 1.12 0.976 2.295 1.463v0l4.573 1.774c1.658 0.605 2.826 1.381 3.505 2.328 0.679 0.94 0.973 1.991 0.879 3.151v0c-0.092 1.154-0.519 2.134-1.278 2.94-0.754 0.806-1.753 1.399-2.997 1.778-1.245 0.386-2.63 0.518-4.157 0.395v0c-1.937-0.155-3.601-0.679-4.993-1.571-1.385-0.892-2.338-1.939-2.859-3.142v0c-0.068-0.13-0.099-0.244-0.09-0.342 0.008-0.098 0.077-0.178 0.206-0.24v0l1.503-0.696c0.13-0.068 0.244-0.092 0.34-0.072 0.097 0.021 0.168 0.073 0.214 0.155v0c0.366 0.672 0.808 1.262 1.325 1.77 0.51 0.513 1.143 0.935 1.897 1.264 0.754 0.336 1.646 0.545 2.677 0.628v0c0.935 0.049 1.793-0.02 2.576-0.207 0.782-0.18 1.414-0.494 1.896-0.941 0.482-0.441 0.748-0.98 0.799-1.619v0c0.053-0.665-0.171-1.261-0.674-1.787-0.503-0.519-1.405-1.018-2.705-1.496v0l-3.71-1.37c-1.806-0.643-3.05-1.412-3.733-2.307-0.683-0.895-0.989-1.907-0.919-3.037v0c0.094-1.18 0.496-2.182 1.206-3.004 0.709-0.823 1.654-1.433 2.834-1.83 1.181-0.404 2.511-0.547 3.991-0.429v0c1.643 0.132 3.085 0.562 4.326 1.292 1.24 0.736 2.152 1.646 2.735 2.729v0c0.064 0.104 0.092 0.198 0.086 0.282-0.007 0.085-0.062 0.162-0.167 0.233v0l-1.612 0.717c-0.102 0.044-0.198 0.056-0.289 0.036-0.084-0.02-0.171-0.083-0.26-0.188z" fill="#3d9970" data-fill-palette-color="primary"></path><path d="M172.673 10.446v0c0.334 0.094 0.45 0.32 0.349 0.679v0l-0.42 1.493c-0.053 0.189-0.041 0.301 0.038 0.336 0.085 0.037 0.213 0.016 0.385-0.065v0c0.344-0.209 0.795-0.446 1.352-0.71 0.565-0.269 1.253-0.456 2.064-0.561 0.811-0.105 1.774-0.001 2.888 0.313v0c1.448 0.407 2.662 1.129 3.641 2.166 0.975 1.028 1.615 2.34 1.921 3.934 0.31 1.603 0.165 3.471-0.435 5.606v0c-0.6 2.135-1.458 3.854-2.572 5.158-1.106 1.299-2.382 2.174-3.827 2.624-1.447 0.456-2.989 0.454-4.625-0.006v0c-1.096-0.308-2.017-0.754-2.764-1.338-0.74-0.582-1.339-1.206-1.797-1.872v0c-0.161-0.249-0.288-0.366-0.38-0.351-0.091 0.008-0.173 0.145-0.248 0.409v0l-1.863 6.622c-0.087 0.309-0.262 0.426-0.527 0.351v0l-2.2-0.619c-0.264-0.074-0.353-0.266-0.267-0.575v0l6.671-23.718c0.06-0.214 0.143-0.351 0.248-0.409 0.111-0.057 0.274-0.055 0.488 0.004v0zM169.074 25.305v0c0.537 0.919 1.129 1.7 1.777 2.344 0.654 0.646 1.457 1.103 2.408 1.371v0c1.14 0.321 2.238 0.307 3.294-0.042 1.054-0.342 2-1.021 2.835-2.036 0.838-1.022 1.5-2.398 1.987-4.13v0c0.489-1.738 0.625-3.225 0.409-4.462-0.21-1.235-0.679-2.226-1.406-2.974-0.729-0.742-1.616-1.26-2.661-1.554v0c-0.97-0.273-1.896-0.302-2.778-0.089-0.876 0.216-1.617 0.578-2.223 1.088-0.605 0.509-0.995 1.072-1.168 1.689v0z" fill="#3d9970" data-fill-palette-color="primary"></path><path d="M199.102 39.698v0c-1.216 0.358-2.408 0.496-3.577 0.413-1.169-0.083-2.344-0.435-3.524-1.057v0c-1.702-0.896-2.809-2.037-3.322-3.422-0.512-1.386-0.396-2.788 0.351-4.206v0c0.609-1.158 1.465-1.983 2.567-2.475 1.096-0.495 2.416-0.651 3.96-0.466 1.55 0.187 3.29 0.722 5.22 1.605v0l2.658 1.144c0.14 0.044 0.281 0.063 0.425 0.057 0.143-0.006 0.262-0.098 0.357-0.278v0l0.461-0.877c0.622-1.181 0.749-2.308 0.382-3.38-0.373-1.076-1.178-1.94-2.417-2.592v0c-0.961-0.506-1.945-0.743-2.952-0.711-1.004 0.026-2.04 0.316-3.109 0.87v0c-0.15 0.061-0.261 0.096-0.331 0.103-0.067 0.002-0.157-0.053-0.269-0.164v0l-1.46-1.522c-0.039-0.08-0.06-0.161-0.061-0.243 0.005-0.079 0.096-0.182 0.274-0.31v0c1.254-0.796 2.647-1.209 4.178-1.239 1.537-0.027 3.168 0.414 4.893 1.322v0c1.459 0.768 2.556 1.633 3.29 2.597 0.738 0.958 1.132 1.986 1.183 3.084 0.045 1.095-0.238 2.222-0.847 3.379v0l-6.097 11.584c-0.104 0.197-0.205 0.313-0.305 0.349-0.097 0.03-0.224 0.004-0.381-0.078v0l-1.667-0.878c-0.151-0.079-0.235-0.186-0.252-0.321-0.012-0.132 0.01-0.279 0.066-0.442v0l0.769-1.525c0.092-0.343-0.062-0.45-0.463-0.321zM202.804 33.696v0c0.195-0.37 0.133-0.625-0.186-0.763v0l-2.267-0.938c-1.023-0.487-1.983-0.833-2.879-1.039-0.891-0.203-1.697-0.287-2.418-0.252-0.718 0.044-1.336 0.214-1.854 0.51-0.521 0.302-0.936 0.746-1.244 1.33v0c-0.506 0.961-0.567 1.886-0.185 2.775 0.385 0.883 1.145 1.623 2.281 2.22v0c0.7 0.369 1.437 0.598 2.211 0.687 0.777 0.083 1.509 0.055 2.196-0.086v0c0.72-0.146 1.332-0.367 1.835-0.664 0.501-0.291 0.861-0.645 1.08-1.062v0z" fill="#3d9970" data-fill-palette-color="primary"></path><path d="M226.492 28.475l-15.549 21.257c-0.147 0.201-0.285 0.306-0.415 0.317-0.129 0.011-0.294-0.057-0.495-0.205v0l-1.552-1.135c-0.301-0.22-0.349-0.47-0.144-0.75v0l15.621-21.289c0.205-0.28 0.426-0.333 0.663-0.159v0l1.79 1.31c0.243 0.178 0.27 0.396 0.081 0.654z" fill="#3d9970" data-fill-palette-color="primary"></path><path d="M226.555 62.368v0c-1.267-0.028-2.445-0.258-3.534-0.692-1.089-0.433-2.101-1.125-3.038-2.076v0c-1.35-1.37-2.059-2.793-2.127-4.268-0.068-1.476 0.469-2.777 1.61-3.902v0c0.932-0.918 1.997-1.445 3.196-1.58 1.194-0.139 2.499 0.113 3.915 0.757 1.42 0.649 2.916 1.686 4.488 3.113v0l2.186 1.896c0.12 0.084 0.249 0.145 0.387 0.183 0.139 0.038 0.28-0.014 0.424-0.156v0l0.706-0.696c0.95-0.937 1.413-1.972 1.389-3.105-0.029-1.138-0.535-2.206-1.517-3.203v0c-0.762-0.773-1.628-1.298-2.597-1.573-0.965-0.28-2.04-0.318-3.226-0.113v0c-0.162 0.013-0.278 0.012-0.347-0.003-0.065-0.019-0.133-0.098-0.206-0.237v0l-0.93-1.894c-0.013-0.088-0.008-0.171 0.015-0.25 0.028-0.074 0.147-0.145 0.356-0.212v0c1.437-0.378 2.889-0.349 4.356 0.086 1.472 0.441 2.893 1.355 4.262 2.744v0c1.157 1.174 1.94 2.331 2.348 3.472 0.413 1.136 0.477 2.235 0.191 3.298-0.29 1.057-0.901 2.045-1.832 2.963v0l-9.322 9.189c-0.158 0.156-0.291 0.236-0.398 0.24-0.102-0.001-0.215-0.064-0.338-0.19v0l-1.323-1.342c-0.119-0.121-0.167-0.249-0.143-0.382 0.029-0.129 0.094-0.263 0.197-0.401v0l1.196-1.22c0.192-0.299 0.077-0.448-0.344-0.446zM231.903 57.771v0c0.298-0.294 0.316-0.555 0.054-0.783v0l-1.876-1.582c-0.827-0.774-1.637-1.395-2.429-1.863-0.788-0.464-1.53-0.788-2.227-0.974-0.697-0.176-1.338-0.202-1.921-0.076-0.588 0.13-1.118 0.427-1.589 0.891v0c-0.773 0.762-1.113 1.625-1.017 2.587 0.099 0.958 0.599 1.894 1.499 2.807v0c0.556 0.564 1.188 1.005 1.898 1.325 0.715 0.315 1.421 0.51 2.119 0.585v0c0.73 0.079 1.38 0.054 1.951-0.077 0.565-0.125 1.016-0.353 1.351-0.684v0z" fill="#3d9970" data-fill-palette-color="primary"></path><path d="M253.173 68.975v0c0.696 1.077 1.135 2.136 1.318 3.178 0.185 1.033 0.175 2.037-0.029 3.01-0.213 0.971-0.544 1.882-0.991 2.732v0c-0.166 0.286-0.353 0.333-0.563 0.142v0l-1.506-1.445c-0.162-0.106-0.188-0.279-0.08-0.521v0c0.334-0.808 0.556-1.532 0.665-2.171 0.111-0.648 0.118-1.264 0.021-1.847-0.097-0.584-0.319-1.145-0.668-1.684v0c-0.682-1.055-1.544-1.81-2.586-2.266-1.042-0.456-2.201-0.579-3.476-0.37-1.275 0.209-2.596 0.755-3.964 1.639v0c-1.39 0.898-2.438 1.891-3.145 2.979-0.701 1.084-1.055 2.193-1.063 3.327-0.002 1.13 0.346 2.234 1.042 3.311v0c0.643 0.994 1.448 1.693 2.417 2.095 0.963 0.406 2.113 0.601 3.451 0.585v0c0.143-0.007 0.238 0.013 0.285 0.061 0.043 0.042 0.076 0.13 0.1 0.263v0l0.368 1.655c0.035 0.187-0.073 0.316-0.324 0.384v0c-0.737 0.04-1.488 0.011-2.252-0.086-0.766-0.089-1.514-0.287-2.243-0.596-0.729-0.308-1.42-0.733-2.075-1.276-0.664-0.545-1.262-1.229-1.794-2.053v0c-0.991-1.533-1.507-3.115-1.549-4.747-0.042-1.632 0.359-3.192 1.204-4.68 0.845-1.489 2.105-2.774 3.781-3.858v0c1.703-1.101 3.413-1.727 5.13-1.878 1.719-0.161 3.324 0.106 4.817 0.8 1.493 0.694 2.729 1.8 3.709 3.317z" fill="#3d9970" data-fill-palette-color="primary"></path><path d="M251.89 91.005v0c-1.127 0.441-2.05 1.115-2.77 2.022-0.714 0.905-1.171 1.916-1.372 3.035-0.193 1.122-0.069 2.247 0.373 3.374v0c0.451 1.151 1.086 2.083 1.905 2.794 0.82 0.712 1.836 1.199 3.049 1.462v0c0.133 0.053 0.215 0.109 0.245 0.168 0.034 0.05 0.052 0.141 0.054 0.273v0l-0.156 1.727c-0.035 0.252-0.186 0.34-0.456 0.262v0c-1.163-0.261-2.182-0.649-3.058-1.163-0.878-0.52-1.634-1.187-2.269-1.998-0.64-0.81-1.185-1.788-1.633-2.933v0c-0.666-1.699-0.865-3.357-0.598-4.972 0.273-1.617 0.962-3.078 2.067-4.382 1.103-1.31 2.571-2.324 4.405-3.042v0c1.998-0.782 3.867-1.068 5.607-0.857 1.732 0.207 3.25 0.817 4.553 1.831 1.297 1.016 2.264 2.338 2.901 3.964v0c0.656 1.675 0.859 3.278 0.609 4.81-0.25 1.531-0.941 2.915-2.073 4.152-1.125 1.235-2.678 2.239-4.657 3.015v0c-0.158 0.062-0.324 0.106-0.497 0.131-0.179 0.028-0.322-0.095-0.429-0.369v0l-5.167-13.194c-0.036-0.091-0.116-0.144-0.241-0.158-0.127-0.02-0.258-0.004-0.392 0.048zM254.321 90.137l4.101 10.471c0.098 0.25 0.191 0.399 0.281 0.448 0.081 0.046 0.225 0.028 0.432-0.053v0c0.987-0.386 1.829-0.962 2.527-1.728 0.694-0.757 1.15-1.638 1.368-2.643 0.22-0.999 0.11-2.059-0.329-3.18v0c-0.487-1.243-1.191-2.172-2.113-2.787-0.919-0.624-1.932-0.968-3.039-1.033-1.116-0.069-2.192 0.1-3.228 0.505z" fill="#3d9970" data-fill-palette-color="primary"></path><path d="M5.861 140.151c0-5.79 4.694-10.484 10.485-10.484 5.79 0 10.484 4.694 10.484 10.484 0 5.79-4.694 10.484-10.484 10.484-5.79 0-10.484-4.694-10.485-10.484z" fill="#3d9970" data-fill-palette-color="primary"></path><path d="M252.89 140.151c0-5.79 4.694-10.484 10.485-10.484 5.79 0 10.484 4.694 10.484 10.484 0 5.79-4.694 10.484-10.484 10.484-5.79 0-10.484-4.694-10.485-10.484z" fill="#3d9970" data-fill-palette-color="primary"></path></g><g id="text-1"><path d="M31.404 174.225v0c0.112 0.328-0.009 0.552-0.362 0.672v0l-1.468 0.499c-0.186 0.063-0.271 0.137-0.256 0.222 0.017 0.091 0.108 0.185 0.271 0.28v0c0.367 0.165 0.817 0.403 1.351 0.713 0.542 0.313 1.085 0.775 1.631 1.384 0.545 0.609 1.004 1.462 1.376 2.558v0c0.484 1.425 0.575 2.831 0.273 4.218-0.294 1.392-1.012 2.665-2.154 3.82-1.148 1.157-2.771 2.092-4.871 2.805v0c-2.1 0.713-4.001 0.983-5.705 0.808-1.697-0.177-3.14-0.733-4.329-1.67-1.195-0.934-2.067-2.21-2.616-3.826v0c-0.364-1.072-0.517-2.08-0.458-3.026 0.059-0.946 0.234-1.793 0.526-2.541v0c0.114-0.274 0.139-0.445 0.075-0.513-0.058-0.07-0.218-0.061-0.478 0.028v0l-6.513 2.212c-0.304 0.103-0.499 0.025-0.588-0.236v0l-0.735-2.164c-0.088-0.26 0.019-0.442 0.322-0.545v0l23.33-7.925c0.204-0.069 0.364-0.079 0.478-0.027 0.11 0.059 0.201 0.194 0.272 0.405v0zM17.118 179.668v0c-0.454 0.962-0.763 1.893-0.927 2.792-0.162 0.905-0.085 1.825 0.232 2.76v0c0.379 1.115 1.009 2.013 1.89 2.695 0.885 0.673 1.983 1.068 3.293 1.182 1.316 0.113 2.826-0.121 4.529-0.699v0c1.703-0.579 3.007-1.308 3.91-2.188 0.897-0.878 1.446-1.825 1.647-2.839 0.205-1.023 0.133-2.049-0.216-3.077v0c-0.324-0.954-0.824-1.734-1.5-2.341-0.674-0.6-1.392-1.006-2.154-1.216-0.762-0.211-1.447-0.213-2.054-0.007v0z" fill="#3d9970" data-fill-palette-color="secondary"></path><path d="M35.631 208.945v0c-0.99 0.695-1.728 1.569-2.212 2.62-0.485 1.052-0.69 2.143-0.616 3.273 0.078 1.136 0.465 2.199 1.161 3.19v0c0.707 1.007 1.544 1.761 2.512 2.265 0.965 0.498 2.067 0.731 3.308 0.698v0c0.142 0.02 0.235 0.055 0.278 0.105 0.045 0.041 0.084 0.125 0.117 0.253v0l0.257 1.715c0.026 0.253-0.101 0.374-0.381 0.363v0c-1.192 0.021-2.276-0.117-3.252-0.415-0.973-0.292-1.863-0.758-2.671-1.397-0.814-0.636-1.574-1.457-2.281-2.463v0c-1.049-1.494-1.634-3.057-1.757-4.689-0.117-1.636 0.207-3.218 0.972-4.747 0.762-1.534 1.948-2.866 3.559-3.997v0c1.756-1.233 3.505-1.953 5.246-2.16 1.732-0.209 3.348 0.027 4.849 0.708 1.503 0.672 2.757 1.725 3.765 3.16v0c1.034 1.472 1.61 2.982 1.728 4.529 0.115 1.542-0.231 3.047-1.037 4.516-0.803 1.475-2.072 2.821-3.806 4.039v0c-0.139 0.098-0.292 0.181-0.46 0.251-0.162 0.066-0.327-0.022-0.496-0.263v0l-8.141-11.597c-0.056-0.08-0.147-0.113-0.272-0.097-0.129 0.01-0.252 0.057-0.37 0.14zM37.789 207.526l6.461 9.204c0.154 0.22 0.28 0.343 0.379 0.369 0.09 0.025 0.225-0.026 0.407-0.154v0c0.867-0.609 1.55-1.368 2.047-2.276 0.492-0.905 0.726-1.869 0.703-2.892-0.028-1.019-0.388-2.021-1.079-3.006v0c-0.767-1.092-1.668-1.83-2.705-2.214-1.04-0.389-2.106-0.484-3.197-0.285-1.1 0.197-2.106 0.615-3.016 1.254z" fill="#3d9970" data-fill-palette-color="secondary"></path><path d="M69.328 233.116l-3.564-3.063c-0.149-0.128-0.287-0.117-0.415 0.031v0l-7.642 8.894c-0.755 0.878-1.111 1.594-1.07 2.147 0.038 0.558 0.357 1.096 0.957 1.612v0l1.935 1.663c0.094 0.081 0.149 0.167 0.166 0.258 0.021 0.096-0.017 0.201-0.115 0.315v0l-0.849 0.927c-0.162 0.189-0.378 0.214-0.648 0.077v0c-0.223-0.122-0.514-0.325-0.874-0.609-0.364-0.279-0.712-0.551-1.043-0.818-0.336-0.271-0.618-0.505-0.846-0.702v0c-1.176-1.01-1.798-2.023-1.865-3.038-0.073-1.02 0.407-2.13 1.438-3.331v0l8.052-9.37c0.158-0.184 0.142-0.356-0.047-0.518v0l-2.24-1.925c-0.208-0.179-0.223-0.373-0.044-0.581v0l1.011-1.176c0.162-0.189 0.337-0.202 0.526-0.04v0l2.388 2.053c0.129 0.111 0.257 0.092 0.386-0.057v0l4.136-4.196c0.229-0.226 0.437-0.258 0.625-0.096v0l1.4 1.202c0.228 0.196 0.231 0.423 0.009 0.682v0l-3.811 4.435c-0.128 0.149-0.117 0.287 0.031 0.415v0l3.535 3.038c0.203 0.175 0.233 0.347 0.088 0.515v0l-1.036 1.206c-0.179 0.208-0.37 0.225-0.574 0.05z" fill="#3d9970" data-fill-palette-color="secondary"></path><path d="M91.76 248.609v0c-0.098-0.882-0.435-1.735-1.011-2.561-0.579-0.82-1.415-1.511-2.509-2.073v0c-1.187-0.61-2.3-0.863-3.34-0.758-1.031 0.102-1.766 0.581-2.206 1.436v0c-0.236 0.46-0.285 0.983-0.145 1.57 0.14 0.587 0.658 1.331 1.555 2.234v0l3.538 3.397c1.297 1.197 2.077 2.363 2.339 3.498 0.265 1.129 0.132 2.212-0.401 3.247v0c-0.529 1.03-1.3 1.77-2.312 2.221-1.006 0.454-2.156 0.616-3.45 0.487-1.298-0.123-2.627-0.534-3.988-1.234v0c-1.728-0.888-3.062-2.012-4.004-3.372-0.935-1.356-1.412-2.69-1.429-4.001v0c-0.013-0.146 0.003-0.263 0.047-0.35 0.045-0.087 0.139-0.134 0.283-0.142v0l1.655-0.065c0.146-0.013 0.26 0.009 0.342 0.066 0.081 0.057 0.127 0.132 0.138 0.225v0c0.079 0.762 0.26 1.476 0.541 2.143 0.273 0.67 0.695 1.302 1.265 1.897 0.567 0.6 1.31 1.137 2.228 1.61v0c0.844 0.405 1.663 0.671 2.458 0.8 0.791 0.135 1.495 0.089 2.112-0.138 0.614-0.221 1.068-0.617 1.361-1.188v0c0.305-0.593 0.327-1.229 0.065-1.908-0.264-0.673-0.905-1.48-1.921-2.422v0l-2.896-2.692c-1.422-1.283-2.275-2.472-2.558-3.566-0.286-1.089-0.179-2.141 0.321-3.156v0c0.541-1.053 1.298-1.823 2.269-2.309 0.971-0.486 2.078-0.686 3.32-0.599 1.245 0.081 2.526 0.46 3.84 1.136v0c1.472 0.757 2.639 1.714 3.5 2.87 0.865 1.151 1.357 2.338 1.478 3.563v0c0.019 0.12 0.009 0.218-0.029 0.294-0.039 0.076-0.12 0.126-0.243 0.15v0l-1.765 0.042c-0.117-0.001-0.21-0.027-0.28-0.078-0.07-0.051-0.126-0.142-0.168-0.274z" fill="#3d9970" data-fill-palette-color="secondary"></path><path d="M131.172 254.033v0c0.346 0.016 0.511 0.211 0.493 0.583v0l-0.073 1.548c-0.009 0.196 0.028 0.303 0.112 0.32 0.091 0.017 0.211-0.033 0.361-0.15v0c0.288-0.281 0.674-0.613 1.157-0.996 0.49-0.389 1.118-0.726 1.885-1.011 0.767-0.285 1.728-0.4 2.885-0.345v0c1.503 0.071 2.845 0.501 4.025 1.291 1.188 0.783 2.11 1.917 2.767 3.402 0.656 1.491 0.932 3.345 0.827 5.559v0c-0.105 2.215-0.55 4.083-1.336 5.605-0.785 1.515-1.832 2.654-3.138 3.418-1.307 0.77-2.813 1.115-4.518 1.034v0c-1.13-0.053-2.125-0.281-2.984-0.682-0.859-0.401-1.583-0.874-2.173-1.419v0c-0.213-0.207-0.363-0.292-0.449-0.257-0.086 0.029-0.136 0.18-0.149 0.455v0l-0.325 6.87c-0.015 0.32-0.16 0.474-0.435 0.461v0l-2.283-0.108c-0.274-0.013-0.404-0.18-0.389-0.5v0l1.164-24.611c0.01-0.216 0.06-0.367 0.149-0.454 0.095-0.081 0.254-0.116 0.477-0.106v0zM131.009 269.32v0c0.73 0.775 1.482 1.403 2.258 1.885 0.783 0.482 1.667 0.747 2.654 0.793v0c1.176 0.056 2.243-0.202 3.2-0.772 0.951-0.577 1.719-1.454 2.305-2.632 0.586-1.184 0.922-2.674 1.008-4.471v0c0.085-1.797-0.117-3.277-0.606-4.439-0.489-1.156-1.169-2.013-2.039-2.572-0.877-0.565-1.858-0.874-2.943-0.925v0c-1.006-0.048-1.915 0.132-2.727 0.539-0.805 0.407-1.445 0.927-1.92 1.56-0.475 0.632-0.728 1.269-0.759 1.909v0z" fill="#3d9970" data-fill-palette-color="secondary"></path><path d="M175.416 266.814v0c-0.691 1.068-1.503 1.953-2.434 2.654-0.938 0.702-2.056 1.205-3.356 1.508v0c-1.873 0.437-3.457 0.299-4.751-0.413-1.295-0.712-2.124-1.849-2.488-3.41v0c-0.297-1.274-0.19-2.458 0.32-3.551 0.504-1.092 1.401-2.073 2.688-2.944 1.288-0.871 2.954-1.606 4.998-2.204v0l2.758-0.875c0.134-0.058 0.254-0.136 0.358-0.235 0.105-0.098 0.134-0.246 0.088-0.443v0l-0.225-0.965c-0.303-1.3-0.945-2.235-1.924-2.806-0.984-0.563-2.158-0.685-3.522-0.368v0c-1.058 0.247-1.957 0.708-2.699 1.386-0.742 0.677-1.336 1.574-1.78 2.692v0c-0.074 0.145-0.135 0.243-0.183 0.295-0.05 0.045-0.153 0.063-0.311 0.052v0l-2.101-0.195c-0.082-0.035-0.15-0.083-0.204-0.144-0.048-0.063-0.047-0.201 0.004-0.414v0c0.429-1.417 1.212-2.637 2.35-3.661 1.143-1.032 2.664-1.77 4.562-2.213v0c1.605-0.374 3.001-0.438 4.187-0.191 1.185 0.241 2.152 0.761 2.903 1.56 0.757 0.797 1.284 1.833 1.581 3.107v0l2.974 12.747c0.051 0.217 0.05 0.371-0.003 0.465-0.054 0.086-0.167 0.15-0.338 0.189v0l-1.835 0.428c-0.166 0.039-0.299 0.013-0.401-0.077-0.095-0.092-0.175-0.218-0.239-0.378v0l-0.417-1.656c-0.154-0.313-0.34-0.293-0.56 0.06zM174.288 259.863v0c-0.097-0.414-0.311-0.569-0.642-0.465v0l-2.328 0.775c-1.092 0.302-2.044 0.668-2.857 1.1-0.807 0.43-1.47 0.897-1.991 1.401-0.516 0.496-0.872 1.026-1.07 1.59-0.196 0.57-0.219 1.176-0.069 1.82v0c0.247 1.058 0.805 1.797 1.676 2.218 0.869 0.415 1.928 0.477 3.177 0.186v0c0.771-0.18 1.478-0.489 2.121-0.928 0.642-0.445 1.176-0.946 1.604-1.503v0c0.449-0.582 0.766-1.149 0.953-1.703 0.188-0.548 0.228-1.051 0.122-1.51v0z" fill="#3d9970" data-fill-palette-color="secondary"></path><path d="M189.444 235.091l11.296 23.791c0.107 0.225 0.134 0.396 0.081 0.515-0.052 0.119-0.191 0.232-0.415 0.338v0l-1.737 0.825c-0.337 0.16-0.58 0.083-0.728-0.23v0l-11.29-23.87c-0.149-0.313-0.09-0.533 0.176-0.659v0l2.003-0.951c0.272-0.129 0.476-0.049 0.614 0.241z" fill="#3d9970" data-fill-palette-color="secondary"></path><path d="M225.768 239.578v0c-0.169 1.261-0.525 2.407-1.068 3.439-0.548 1.036-1.345 1.968-2.39 2.797v0c-1.507 1.195-2.998 1.746-4.473 1.655-1.475-0.091-2.71-0.765-3.706-2.021v0c-0.813-1.025-1.222-2.141-1.226-3.348-0.01-1.203 0.381-2.473 1.174-3.811 0.793-1.338 1.985-2.713 3.578-4.126v0l2.12-1.969c0.097-0.11 0.171-0.232 0.224-0.365 0.053-0.134 0.016-0.28-0.11-0.439v0l-0.615-0.776c-0.829-1.046-1.808-1.618-2.938-1.716-1.131-0.089-2.244 0.302-3.342 1.171v0c-0.851 0.675-1.468 1.476-1.849 2.405-0.382 0.929-0.536 1.994-0.46 3.195v0c-0.005 0.162-0.018 0.277-0.04 0.345-0.026 0.062-0.112 0.122-0.258 0.179v0l-1.984 0.721c-0.089 0.004-0.171-0.01-0.246-0.042-0.07-0.036-0.128-0.161-0.173-0.377v0c-0.217-1.464-0.03-2.902 0.562-4.314 0.593-1.422 1.653-2.738 3.18-3.949v0c1.292-1.024 2.527-1.678 3.705-1.96 1.174-0.288 2.271-0.231 3.291 0.171 1.025 0.398 1.944 1.109 2.757 2.135v0l8.131 10.257c0.138 0.174 0.203 0.315 0.196 0.421-0.012 0.101-0.087 0.206-0.225 0.316v0l-1.477 1.17c-0.133 0.106-0.265 0.139-0.395 0.101-0.125-0.042-0.251-0.122-0.378-0.239v0l-1.084-1.319c-0.273-0.218-0.433-0.12-0.48 0.293zM221.781 233.774v0c-0.264-0.333-0.524-0.382-0.78-0.146v0l-1.774 1.695c-0.858 0.739-1.563 1.477-2.114 2.214-0.546 0.733-0.946 1.439-1.202 2.117-0.254 0.669-0.351 1.301-0.288 1.894 0.066 0.599 0.304 1.157 0.714 1.675v0c0.675 0.851 1.496 1.281 2.463 1.291 0.963 0.004 1.947-0.392 2.952-1.189v0c0.62-0.492 1.128-1.073 1.522-1.744 0.39-0.677 0.66-1.358 0.809-2.044v0c0.157-0.718 0.202-1.367 0.134-1.947-0.064-0.575-0.242-1.048-0.534-1.417v0z" fill="#3d9970" data-fill-palette-color="secondary"></path><path d="M232.628 205.542v0c0.755-1.036 1.584-1.825 2.487-2.364 0.902-0.549 1.843-0.903 2.825-1.063 0.983-0.15 1.952-0.169 2.906-0.056v0c0.323 0.057 0.434 0.215 0.334 0.474v0l-0.807 1.925c-0.041 0.189-0.193 0.276-0.457 0.261v0c-0.874-0.022-1.629 0.032-2.265 0.16-0.645 0.129-1.222 0.344-1.732 0.644-0.51 0.3-0.954 0.71-1.331 1.228v0c-0.739 1.015-1.134 2.091-1.185 3.228-0.051 1.136 0.25 2.262 0.904 3.377 0.653 1.115 1.638 2.152 2.954 3.11v0c1.338 0.974 2.641 1.596 3.911 1.864 1.269 0.269 2.431 0.201 3.486-0.204 1.055-0.405 1.961-1.125 2.716-2.162v0c0.697-0.957 1.062-1.958 1.094-3.002 0.027-1.048-0.207-2.194-0.702-3.437v0c-0.058-0.131-0.073-0.227-0.046-0.288 0.024-0.055 0.094-0.118 0.21-0.187v0l1.411-0.939c0.162-0.1 0.321-0.046 0.476 0.164v0c0.303 0.673 0.546 1.384 0.729 2.133 0.192 0.747 0.276 1.516 0.25 2.307-0.025 0.791-0.174 1.589-0.445 2.395-0.27 0.815-0.694 1.619-1.271 2.412v0c-1.074 1.475-2.365 2.526-3.873 3.152-1.508 0.626-3.108 0.812-4.801 0.558-1.693-0.254-3.346-0.967-4.958-2.142v0c-1.634-1.19-2.833-2.561-3.597-4.112-0.768-1.546-1.096-3.141-0.984-4.783 0.112-1.642 0.699-3.193 1.761-4.653z" fill="#3d9970" data-fill-palette-color="secondary"></path><path d="M254.68 188.947v0c1.132 0.429 2.268 0.549 3.411 0.36 1.142-0.19 2.16-0.632 3.054-1.329 0.896-0.703 1.559-1.62 1.988-2.752v0c0.436-1.15 0.59-2.267 0.463-3.35-0.13-1.078-0.556-2.121-1.28-3.13v0c-0.063-0.129-0.086-0.225-0.069-0.288 0.009-0.06 0.056-0.14 0.144-0.24v0l1.274-1.175c0.195-0.164 0.366-0.127 0.514 0.111v0c0.687 0.974 1.181 1.949 1.484 2.924 0.304 0.969 0.419 1.967 0.343 2.995-0.069 1.03-0.321 2.12-0.757 3.271v0c-0.647 1.707-1.611 3.069-2.893 4.087-1.288 1.016-2.779 1.636-4.473 1.861-1.697 0.231-3.466-0.002-5.307-0.701v0c-2.006-0.761-3.584-1.803-4.733-3.127-1.145-1.316-1.858-2.786-2.137-4.41-0.288-1.62-0.121-3.25 0.5-4.889v0c0.638-1.682 1.563-3.007 2.777-3.974 1.211-0.961 2.651-1.52 4.32-1.678 1.671-0.164 3.498 0.13 5.479 0.881v0c0.159 0.06 0.314 0.14 0.466 0.24 0.145 0.097 0.165 0.283 0.061 0.558v0l-5.024 13.249c-0.035 0.092-0.011 0.185 0.072 0.279 0.081 0.101 0.188 0.176 0.323 0.227zM252.295 187.959l3.987-10.515c0.095-0.251 0.126-0.424 0.093-0.521-0.03-0.088-0.148-0.172-0.356-0.25v0c-0.991-0.376-2.002-0.514-3.033-0.416-1.025 0.101-1.954 0.448-2.788 1.042-0.828 0.596-1.455 1.456-1.881 2.582v0c-0.473 1.248-0.577 2.408-0.313 3.481 0.262 1.079 0.782 2.014 1.56 2.806 0.781 0.8 1.692 1.397 2.731 1.791z" fill="#3d9970" data-fill-palette-color="secondary"></path></g></svg></g></svg></g></svg></g></svg></g><defs></defs></svg><rect width="279.72" height="279.72" fill="none" stroke="none" visibility="hidden"></rect></g></svg></g></svg>