<svg xmlns="http://www.w3.org/2000/svg" version="1.1" xmlns:xlink="http://www.w3.org/1999/xlink" xmlns:svgjs="http://svgjs.dev/svgjs" width="1500" height="1500" viewBox="0 0 1500 1500"><rect width="1500" height="1500" fill="#ffffff"></rect><g transform="matrix(0.6666666666666666,0,0,0.6666666666666666,249.39393939393938,575.2427960783178)"><svg viewBox="0 0 396 139" data-background-color="#ffffff" preserveAspectRatio="xMidYMid meet" height="526" width="1500" xmlns="http://www.w3.org/2000/svg" xmlns:xlink="http://www.w3.org/1999/xlink"><g id="tight-bounds" transform="matrix(1,0,0,1,0.2400000000000091,-0.22837068883890765)"><svg viewBox="0 0 395.52 139.45660085083603" height="139.45660085083603" width="395.52"><g><svg viewBox="0 0 647.2827819455183 228.22577002274193" height="139.45660085083603" width="395.52"><g transform="matrix(1,0,0,1,251.76278194551838,67.89957984933241)"><svg viewBox="0 0 395.52 92.42661032407712" height="92.42661032407712" width="395.52"><g id="textblocktransform"><svg viewBox="0 0 395.52 92.42661032407712" height="92.42661032407712" width="395.52" id="textblock"><g><svg viewBox="0 0 395.52 49.850497133923916" height="49.850497133923916" width="395.52"><g transform="matrix(1,0,0,1,0,0)"><svg width="395.52" viewBox="1.5375 -37.1 359.78249999999997 45.35" height="49.850497133923916" data-palette-color="#3d9970"><path d="M37.75-26.5L37.75-26.5Q38.05-26.5 38.2-26.28 38.35-26.05 38.25-25.75L38.25-25.75 30.6-0.65Q30.5-0.3 30.28-0.15 30.05 0 29.65 0L29.65 0 27.25 0Q26.4 0 26.2-0.65L26.2-0.65 20.25-19.35Q20.05-19.8 19.9-19.8 19.75-19.8 19.65-19.35L19.65-19.35 14-0.65Q13.9-0.3 13.68-0.15 13.45 0 13.05 0L13.05 0 10.5 0Q9.7 0 9.45-0.65L9.45-0.65 1.55-25.75Q1.5-26.05 1.65-26.28 1.8-26.5 2.15-26.5L2.15-26.5 5.1-26.5Q5.4-26.5 5.6-26.38 5.8-26.25 5.9-25.95L5.9-25.95 11.85-6.5Q12-6 12.2-6.03 12.4-6.05 12.6-6.55L12.6-6.55 18.5-26Q18.6-26.25 18.78-26.38 18.95-26.5 19.2-26.5L19.2-26.5 21.55-26.5Q21.85-26.5 22.05-26.38 22.25-26.25 22.3-25.95L22.3-25.95 28.45-6.5Q28.6-6 28.8-6.03 29-6.05 29.15-6.55L29.15-6.55 34.9-25.95Q35.05-26.25 35.25-26.38 35.45-26.5 35.75-26.5L35.75-26.5 37.75-26.5ZM53.85 0.5L53.85 0.5Q50.1 0.5 47.22-1.23 44.35-2.95 42.77-6.03 41.2-9.1 41.2-13.1L41.2-13.1Q41.2-17.25 42.82-20.38 44.45-23.5 47.3-25.25 50.15-27 53.9-27L53.9-27Q57.7-27 60.52-25.23 63.35-23.45 64.92-20.33 66.5-17.2 66.5-13.15L66.5-13.15Q66.5-9.15 64.9-6.08 63.3-3 60.47-1.25 57.65 0.5 53.85 0.5L53.85 0.5ZM53.95-2.65L53.95-2.65Q56.55-2.65 58.4-3.93 60.25-5.2 61.22-7.58 62.2-9.95 62.2-13.25L62.2-13.25Q62.2-16.55 61.2-18.93 60.2-21.3 58.35-22.6 56.5-23.9 53.9-23.9L53.9-23.9Q51.35-23.9 49.45-22.6 47.55-21.3 46.52-18.93 45.5-16.55 45.5-13.25L45.5-13.25Q45.5-10 46.52-7.6 47.55-5.2 49.45-3.93 51.35-2.65 53.95-2.65L53.95-2.65ZM105.7-26.5L105.7-26.5Q106-26.5 106.15-26.28 106.3-26.05 106.2-25.75L106.2-25.75 98.55-0.65Q98.45-0.3 98.22-0.15 98 0 97.6 0L97.6 0 95.2 0Q94.35 0 94.15-0.65L94.15-0.65 88.2-19.35Q88-19.8 87.85-19.8 87.7-19.8 87.6-19.35L87.6-19.35 81.95-0.65Q81.85-0.3 81.62-0.15 81.4 0 81 0L81 0 78.45 0Q77.65 0 77.4-0.65L77.4-0.65 69.5-25.75Q69.45-26.05 69.6-26.28 69.75-26.5 70.1-26.5L70.1-26.5 73.05-26.5Q73.35-26.5 73.55-26.38 73.75-26.25 73.85-25.95L73.85-25.95 79.8-6.5Q79.95-6 80.15-6.03 80.35-6.05 80.55-6.55L80.55-6.55 86.45-26Q86.55-26.25 86.72-26.38 86.9-26.5 87.15-26.5L87.15-26.5 89.5-26.5Q89.8-26.5 90-26.38 90.2-26.25 90.25-25.95L90.25-25.95 96.4-6.5Q96.55-6 96.75-6.03 96.95-6.05 97.1-6.55L97.1-6.55 102.84-25.95Q103-26.25 103.2-26.38 103.4-26.5 103.7-26.5L103.7-26.5 105.7-26.5ZM115.04-26.5L115.04-26.5Q115.74-26.5 115.74-25.75L115.74-25.75 115.74-23.65Q115.74-23.25 115.92-23.23 116.09-23.2 116.39-23.45L116.39-23.45Q116.94-24.05 117.89-24.88 118.84-25.7 120.37-26.35 121.89-27 124.24-27L124.24-27Q127.29-27 129.77-25.53 132.24-24.05 133.72-21.1 135.19-18.15 135.19-13.65L135.19-13.65Q135.19-9.15 133.74-6 132.29-2.85 129.72-1.18 127.14 0.5 123.69 0.5L123.69 0.5Q121.39 0.5 119.62-0.23 117.84-0.95 116.59-2L116.59-2Q116.14-2.4 115.97-2.33 115.79-2.25 115.79-1.7L115.79-1.7 115.79 7.6Q115.79 8.25 115.24 8.25L115.24 8.25 112.14 8.25Q111.59 8.25 111.59 7.6L111.59 7.6 111.59-25.7Q111.59-26.15 111.77-26.33 111.94-26.5 112.39-26.5L112.39-26.5 115.04-26.5ZM115.79-5.85L115.79-5.85Q117.34-4.35 118.97-3.45 120.59-2.55 122.59-2.55L122.59-2.55Q124.99-2.55 126.87-3.8 128.74-5.05 129.82-7.5 130.89-9.95 130.89-13.6L130.89-13.6Q130.89-17.25 129.79-19.55 128.69-21.85 126.87-22.9 125.04-23.95 122.84-23.95L122.84-23.95Q120.79-23.95 119.19-23.05 117.59-22.15 116.69-20.83 115.79-19.5 115.79-18.2L115.79-18.2 115.79-5.85ZM144.24-11.6L144.24-11.6Q144.24-9.15 145.41-7.13 146.59-5.1 148.56-3.9 150.54-2.7 152.99-2.7L152.99-2.7Q155.49-2.7 157.44-3.73 159.39-4.75 160.79-6.85L160.79-6.85Q160.99-7.05 161.12-7.08 161.24-7.1 161.49-7L161.49-7 163.59-5.95Q164.04-5.7 163.69-5.25L163.69-5.25Q162.34-3.25 160.72-1.98 159.09-0.7 157.09-0.1 155.09 0.5 152.59 0.5L152.59 0.5Q148.89 0.5 146.04-1.2 143.19-2.9 141.54-5.95 139.89-9 139.89-13L139.89-13Q139.89-17.35 141.56-20.48 143.24-23.6 146.12-25.3 148.99-27 152.54-27L152.54-27Q156.19-27 158.89-25.4 161.59-23.8 163.09-20.75 164.59-17.7 164.59-13.4L164.59-13.4Q164.59-13.05 164.52-12.7 164.44-12.35 163.84-12.35L163.84-12.35 144.69-12.35Q144.49-12.35 144.37-12.13 144.24-11.9 144.24-11.6L144.24-11.6ZM144.34-15.1L159.54-15.1Q160.09-15.1 160.24-15.23 160.39-15.35 160.39-15.8L160.39-15.8Q160.39-17.95 159.47-19.83 158.54-21.7 156.81-22.85 155.09-24 152.64-24L152.64-24Q149.94-24 148.09-22.73 146.24-21.45 145.29-19.4 144.34-17.35 144.34-15.1L144.34-15.1ZM183.24-23.35L176.89-23.35Q176.49-23.35 176.49-22.95L176.49-22.95 176.49-7.1Q176.49-4.75 177.29-3.95 178.09-3.15 179.69-3.15L179.69-3.15 183.14-3.15Q183.39-3.15 183.54-3.03 183.69-2.9 183.69-2.6L183.69-2.6 183.64-0.9Q183.64-0.4 183.04-0.25L183.04-0.25Q182.54-0.15 181.61-0.1 180.69-0.05 179.81-0.03 178.94 0 178.34 0L178.34 0Q175.19 0 173.74-1.48 172.29-2.95 172.29-6.15L172.29-6.15 172.29-22.85Q172.29-23.35 171.79-23.35L171.79-23.35 167.79-23.35Q167.24-23.35 167.24-23.9L167.24-23.9 167.24-26Q167.24-26.5 167.74-26.5L167.74-26.5 171.99-26.5Q172.34-26.5 172.34-26.9L172.34-26.9 172.89-34.85Q172.94-35.5 173.44-35.5L173.44-35.5 175.94-35.5Q176.54-35.5 176.54-34.8L176.54-34.8 176.54-26.9Q176.54-26.5 176.94-26.5L176.94-26.5 183.24-26.5Q183.79-26.5 183.79-26.05L183.79-26.05 183.79-23.9Q183.79-23.35 183.24-23.35L183.24-23.35ZM205.14-20.65L205.14-20.65Q204.14-22.15 202.34-23.1 200.54-24.05 198.04-24.05L198.04-24.05Q195.34-24.05 193.56-22.9 191.79-21.75 191.79-19.8L191.79-19.8Q191.79-18.75 192.59-17.82 193.39-16.9 195.84-16.1L195.84-16.1 202.19-14.2Q205.64-13.25 207.16-11.45 208.69-9.65 208.69-7.3L208.69-7.3Q208.69-4.95 207.29-3.2 205.89-1.45 203.44-0.48 200.99 0.5 197.89 0.5L197.89 0.5Q193.94 0.5 190.99-1.07 188.04-2.65 186.79-5L186.79-5Q186.64-5.25 186.64-5.45 186.64-5.65 186.89-5.8L186.89-5.8 188.84-6.9Q189.09-7.05 189.29-7.03 189.49-7 189.59-6.85L189.59-6.85Q190.44-5.55 191.56-4.6 192.69-3.65 194.26-3.1 195.84-2.55 197.94-2.55L197.94-2.55Q199.84-2.6 201.39-3.1 202.94-3.6 203.84-4.58 204.74-5.55 204.74-6.85L204.74-6.85Q204.74-8.2 203.64-9.18 202.54-10.15 199.84-10.9L199.84-10.9 194.69-12.35Q190.94-13.35 189.41-15.05 187.89-16.75 187.84-19.05L187.84-19.05Q187.84-21.45 189.14-23.23 190.44-25 192.76-26 195.09-27 198.09-27L198.09-27Q201.44-27 204.06-25.73 206.69-24.45 208.04-22.35L208.04-22.35Q208.19-22.15 208.19-21.98 208.19-21.8 207.99-21.65L207.99-21.65 205.89-20.5Q205.69-20.4 205.51-20.43 205.34-20.45 205.14-20.65L205.14-20.65ZM218.28-26.5L218.28-26.5Q218.98-26.5 218.98-25.75L218.98-25.75 218.98-23.65Q218.98-23.25 219.16-23.23 219.33-23.2 219.63-23.45L219.63-23.45Q220.18-24.05 221.13-24.88 222.08-25.7 223.61-26.35 225.13-27 227.48-27L227.48-27Q230.53-27 233.01-25.53 235.48-24.05 236.96-21.1 238.43-18.15 238.43-13.65L238.43-13.65Q238.43-9.15 236.98-6 235.53-2.85 232.96-1.18 230.38 0.5 226.93 0.5L226.93 0.5Q224.63 0.5 222.86-0.23 221.08-0.95 219.83-2L219.83-2Q219.38-2.4 219.21-2.33 219.03-2.25 219.03-1.7L219.03-1.7 219.03 7.6Q219.03 8.25 218.48 8.25L218.48 8.25 215.38 8.25Q214.83 8.25 214.83 7.6L214.83 7.6 214.83-25.7Q214.83-26.15 215.01-26.33 215.18-26.5 215.63-26.5L215.63-26.5 218.28-26.5ZM219.03-5.85L219.03-5.85Q220.58-4.35 222.21-3.45 223.83-2.55 225.83-2.55L225.83-2.55Q228.23-2.55 230.11-3.8 231.98-5.05 233.06-7.5 234.13-9.95 234.13-13.6L234.13-13.6Q234.13-17.25 233.03-19.55 231.93-21.85 230.11-22.9 228.28-23.95 226.08-23.95L226.08-23.95Q224.03-23.95 222.43-23.05 220.83-22.15 219.93-20.83 219.03-19.5 219.03-18.2L219.03-18.2 219.03-5.85ZM259.93-3.2L259.93-3.2Q258.08-1.4 255.91-0.45 253.73 0.5 251.03 0.5L251.03 0.5Q247.13 0.5 244.91-1.5 242.68-3.5 242.68-6.75L242.68-6.75Q242.68-9.4 244.18-11.33 245.68-13.25 248.63-14.38 251.58-15.5 255.88-15.75L255.88-15.75 259.78-16.05Q260.08-16.1 260.33-16.25 260.58-16.4 260.58-16.8L260.58-16.8 260.58-18.15Q260.58-20.85 258.91-22.43 257.23-24 254.38-24L254.38-24Q252.18-24 250.41-23 248.63-22 247.23-20L247.23-20Q247.03-19.75 246.91-19.68 246.78-19.6 246.48-19.7L246.48-19.7 243.78-20.6Q243.63-20.7 243.56-20.85 243.48-21 243.68-21.4L243.68-21.4Q245.18-24 247.91-25.5 250.63-27 254.58-27L254.58-27Q257.93-27 260.16-25.98 262.38-24.95 263.5-23.03 264.63-21.1 264.63-18.45L264.63-18.45 264.63-0.75Q264.63-0.3 264.48-0.15 264.33 0 263.98 0L263.98 0 261.43 0Q261.08 0 260.93-0.23 260.78-0.45 260.73-0.8L260.73-0.8 260.68-3.1Q260.53-3.8 259.93-3.2L259.93-3.2ZM260.58-12.7L260.58-12.7Q260.58-13.55 259.88-13.5L259.88-13.5 256.58-13.2Q254.28-13.1 252.48-12.63 250.68-12.15 249.43-11.4 248.18-10.65 247.53-9.63 246.88-8.6 246.88-7.25L246.88-7.25Q246.88-5.05 248.41-3.83 249.93-2.6 252.53-2.6L252.53-2.6Q254.13-2.6 255.61-3.18 257.08-3.75 258.18-4.65L258.18-4.65Q259.33-5.6 259.96-6.6 260.58-7.6 260.58-8.55L260.58-8.55 260.58-12.7ZM276.33-36.45L276.33-0.85Q276.33-0.35 276.13-0.18 275.93 0 275.43 0L275.43 0 272.83 0Q272.08 0 272.08-0.7L272.08-0.7 272.13-36.4Q272.13-37.1 272.73-37.1L272.73-37.1 275.73-37.1Q276.33-37.1 276.33-36.45L276.33-36.45ZM299.28-3.2L299.28-3.2Q297.43-1.4 295.25-0.45 293.07 0.5 290.38 0.5L290.38 0.5Q286.48 0.5 284.25-1.5 282.03-3.5 282.03-6.75L282.03-6.75Q282.03-9.4 283.53-11.33 285.03-13.25 287.98-14.38 290.93-15.5 295.23-15.75L295.23-15.75 299.13-16.05Q299.43-16.1 299.68-16.25 299.93-16.4 299.93-16.8L299.93-16.8 299.93-18.15Q299.93-20.85 298.25-22.43 296.57-24 293.73-24L293.73-24Q291.53-24 289.75-23 287.98-22 286.57-20L286.57-20Q286.38-19.75 286.25-19.68 286.13-19.6 285.82-19.7L285.82-19.7 283.13-20.6Q282.98-20.7 282.9-20.85 282.82-21 283.03-21.4L283.03-21.4Q284.53-24 287.25-25.5 289.98-27 293.93-27L293.93-27Q297.28-27 299.5-25.98 301.73-24.95 302.85-23.03 303.98-21.1 303.98-18.45L303.98-18.45 303.98-0.75Q303.98-0.3 303.82-0.15 303.68 0 303.32 0L303.32 0 300.78 0Q300.43 0 300.28-0.23 300.13-0.45 300.07-0.8L300.07-0.8 300.03-3.1Q299.88-3.8 299.28-3.2L299.28-3.2ZM299.93-12.7L299.93-12.7Q299.93-13.55 299.23-13.5L299.23-13.5 295.93-13.2Q293.63-13.1 291.82-12.63 290.03-12.15 288.78-11.4 287.53-10.65 286.88-9.63 286.23-8.6 286.23-7.25L286.23-7.25Q286.23-5.05 287.75-3.83 289.28-2.6 291.88-2.6L291.88-2.6Q293.48-2.6 294.95-3.18 296.43-3.75 297.53-4.65L297.53-4.65Q298.68-5.6 299.3-6.6 299.93-7.6 299.93-8.55L299.93-8.55 299.93-12.7ZM322.42-27L322.42-27Q325.02-27 327-26.18 328.97-25.35 330.4-23.93 331.82-22.5 332.77-20.8L332.77-20.8Q333.07-20.2 332.52-20.05L332.52-20.05 329.77-19.4Q329.42-19.25 329.12-19.7L329.12-19.7Q328.12-21.15 327.15-22.05 326.17-22.95 325.07-23.43 323.97-23.9 322.67-23.9L322.67-23.9Q320.12-23.9 318.2-22.63 316.27-21.35 315.22-18.95 314.17-16.55 314.17-13.25L314.17-13.25Q314.17-9.9 315.25-7.5 316.32-5.1 318.25-3.85 320.17-2.6 322.77-2.6L322.77-2.6Q325.17-2.6 326.92-3.8 328.67-5 330.12-7.3L330.12-7.3Q330.27-7.55 330.4-7.58 330.52-7.6 330.77-7.5L330.77-7.5 332.92-6.7Q333.27-6.55 333.12-6.05L333.12-6.05Q332.37-4.75 331.37-3.55 330.37-2.35 329.05-1.45 327.72-0.55 326.07-0.03 324.42 0.5 322.42 0.5L322.42 0.5Q318.72 0.5 315.9-1.23 313.07-2.95 311.47-6.03 309.87-9.1 309.87-13.15L309.87-13.15Q309.87-17.25 311.5-20.35 313.12-23.45 315.95-25.23 318.77-27 322.42-27L322.42-27ZM340.97-11.6L340.97-11.6Q340.97-9.15 342.14-7.13 343.32-5.1 345.3-3.9 347.27-2.7 349.72-2.7L349.72-2.7Q352.22-2.7 354.17-3.73 356.12-4.75 357.52-6.85L357.52-6.85Q357.72-7.05 357.84-7.08 357.97-7.1 358.22-7L358.22-7 360.32-5.95Q360.77-5.7 360.42-5.25L360.42-5.25Q359.07-3.25 357.44-1.98 355.82-0.7 353.82-0.1 351.82 0.5 349.32 0.5L349.32 0.5Q345.62 0.5 342.77-1.2 339.92-2.9 338.27-5.95 336.62-9 336.62-13L336.62-13Q336.62-17.35 338.3-20.48 339.97-23.6 342.84-25.3 345.72-27 349.27-27L349.27-27Q352.92-27 355.62-25.4 358.32-23.8 359.82-20.75 361.32-17.7 361.32-13.4L361.32-13.4Q361.32-13.05 361.25-12.7 361.17-12.35 360.57-12.35L360.57-12.35 341.42-12.35Q341.22-12.35 341.09-12.13 340.97-11.9 340.97-11.6L340.97-11.6ZM341.07-15.1L356.27-15.1Q356.82-15.1 356.97-15.23 357.12-15.35 357.12-15.8L357.12-15.8Q357.12-17.95 356.19-19.83 355.27-21.7 353.55-22.85 351.82-24 349.37-24L349.37-24Q346.67-24 344.82-22.73 342.97-21.45 342.02-19.4 341.07-17.35 341.07-15.1L341.07-15.1Z" opacity="1" transform="matrix(1,0,0,1,0,0)" fill="#3d9970" class="wordmark-text-0" data-fill-palette-color="primary" id="text-0"></path></svg></g></svg></g><g transform="matrix(1,0,0,1,0,61.61900309531214)"><svg viewBox="0 0 395.52 30.80760722876498" height="30.80760722876498" width="395.52"><g transform="matrix(1,0,0,1,0,0)"><svg width="395.52" viewBox="3.85 -37.1 582.22 45.35" height="30.80760722876498" data-palette-color="#3d9970"><path d="M7.3-26.5L7.3-26.5Q8-26.5 8-25.75L8-25.75 8-23.65Q8-23.25 8.18-23.23 8.35-23.2 8.65-23.45L8.65-23.45Q9.2-24.05 10.15-24.88 11.1-25.7 12.63-26.35 14.15-27 16.5-27L16.5-27Q19.55-27 22.03-25.53 24.5-24.05 25.98-21.1 27.45-18.15 27.45-13.65L27.45-13.65Q27.45-9.15 26-6 24.55-2.85 21.98-1.18 19.4 0.5 15.95 0.5L15.95 0.5Q13.65 0.5 11.88-0.23 10.1-0.95 8.85-2L8.85-2Q8.4-2.4 8.22-2.33 8.05-2.25 8.05-1.7L8.05-1.7 8.05 7.6Q8.05 8.25 7.5 8.25L7.5 8.25 4.4 8.25Q3.85 8.25 3.85 7.6L3.85 7.6 3.85-25.7Q3.85-26.15 4.03-26.33 4.2-26.5 4.65-26.5L4.65-26.5 7.3-26.5ZM8.05-5.85L8.05-5.85Q9.6-4.35 11.23-3.45 12.85-2.55 14.85-2.55L14.85-2.55Q17.25-2.55 19.13-3.8 21-5.05 22.08-7.5 23.15-9.95 23.15-13.6L23.15-13.6Q23.15-17.25 22.05-19.55 20.95-21.85 19.13-22.9 17.3-23.95 15.1-23.95L15.1-23.95Q13.05-23.95 11.45-23.05 9.85-22.15 8.95-20.83 8.05-19.5 8.05-18.2L8.05-18.2 8.05-5.85ZM68.68-11.6L68.68-11.6Q68.68-9.15 69.85-7.13 71.03-5.1 73-3.9 74.98-2.7 77.43-2.7L77.43-2.7Q79.93-2.7 81.88-3.73 83.83-4.75 85.23-6.85L85.23-6.85Q85.43-7.05 85.55-7.08 85.68-7.1 85.93-7L85.93-7 88.03-5.95Q88.48-5.7 88.13-5.25L88.13-5.25Q86.78-3.25 85.15-1.98 83.53-0.7 81.53-0.1 79.53 0.5 77.03 0.5L77.03 0.5Q73.33 0.5 70.48-1.2 67.63-2.9 65.98-5.95 64.33-9 64.33-13L64.33-13Q64.33-17.35 66-20.48 67.68-23.6 70.55-25.3 73.43-27 76.98-27L76.98-27Q80.63-27 83.33-25.4 86.03-23.8 87.53-20.75 89.03-17.7 89.03-13.4L89.03-13.4Q89.03-13.05 88.95-12.7 88.88-12.35 88.28-12.35L88.28-12.35 69.13-12.35Q68.93-12.35 68.8-12.13 68.68-11.9 68.68-11.6L68.68-11.6ZM68.78-15.1L83.98-15.1Q84.53-15.1 84.68-15.23 84.83-15.35 84.83-15.8L84.83-15.8Q84.83-17.95 83.9-19.83 82.98-21.7 81.25-22.85 79.53-24 77.08-24L77.08-24Q74.38-24 72.53-22.73 70.68-21.45 69.73-19.4 68.78-17.35 68.78-15.1L68.78-15.1ZM139.85-23.35L133.5-23.35Q133.1-23.35 133.1-22.95L133.1-22.95 133.1-7.1Q133.1-4.75 133.9-3.95 134.7-3.15 136.3-3.15L136.3-3.15 139.75-3.15Q140-3.15 140.15-3.03 140.3-2.9 140.3-2.6L140.3-2.6 140.25-0.9Q140.25-0.4 139.65-0.25L139.65-0.25Q139.15-0.15 138.23-0.1 137.3-0.05 136.43-0.03 135.55 0 134.95 0L134.95 0Q131.8 0 130.35-1.48 128.9-2.95 128.9-6.15L128.9-6.15 128.9-22.85Q128.9-23.35 128.4-23.35L128.4-23.35 124.4-23.35Q123.85-23.35 123.85-23.9L123.85-23.9 123.85-26Q123.85-26.5 124.35-26.5L124.35-26.5 128.6-26.5Q128.95-26.5 128.95-26.9L128.95-26.9 129.5-34.85Q129.55-35.5 130.05-35.5L130.05-35.5 132.55-35.5Q133.15-35.5 133.15-34.8L133.15-34.8 133.15-26.9Q133.15-26.5 133.55-26.5L133.55-26.5 139.85-26.5Q140.4-26.5 140.4-26.05L140.4-26.05 140.4-23.9Q140.4-23.35 139.85-23.35L139.85-23.35ZM193.93-20.65L193.93-20.65Q192.93-22.15 191.13-23.1 189.33-24.05 186.83-24.05L186.83-24.05Q184.13-24.05 182.36-22.9 180.58-21.75 180.58-19.8L180.58-19.8Q180.58-18.75 181.38-17.82 182.18-16.9 184.63-16.1L184.63-16.1 190.98-14.2Q194.43-13.25 195.96-11.45 197.48-9.65 197.48-7.3L197.48-7.3Q197.48-4.95 196.08-3.2 194.68-1.45 192.23-0.48 189.78 0.5 186.68 0.5L186.68 0.5Q182.73 0.5 179.78-1.07 176.83-2.65 175.58-5L175.58-5Q175.43-5.25 175.43-5.45 175.43-5.65 175.68-5.8L175.68-5.8 177.63-6.9Q177.88-7.05 178.08-7.03 178.28-7 178.38-6.85L178.38-6.85Q179.23-5.55 180.36-4.6 181.48-3.65 183.06-3.1 184.63-2.55 186.73-2.55L186.73-2.55Q188.63-2.6 190.18-3.1 191.73-3.6 192.63-4.58 193.53-5.55 193.53-6.85L193.53-6.85Q193.53-8.2 192.43-9.18 191.33-10.15 188.63-10.9L188.63-10.9 183.48-12.35Q179.73-13.35 178.21-15.05 176.68-16.75 176.63-19.05L176.63-19.05Q176.63-21.45 177.93-23.23 179.23-25 181.56-26 183.88-27 186.88-27L186.88-27Q190.23-27 192.86-25.73 195.48-24.45 196.83-22.35L196.83-22.35Q196.98-22.15 196.98-21.98 196.98-21.8 196.78-21.65L196.78-21.65 194.68-20.5Q194.48-20.4 194.31-20.43 194.13-20.45 193.93-20.65L193.93-20.65ZM282.14-26.5L282.14-26.5Q282.84-26.5 282.84-25.75L282.84-25.75 282.84-23.65Q282.84-23.25 283.01-23.23 283.19-23.2 283.49-23.45L283.49-23.45Q284.04-24.05 284.99-24.88 285.94-25.7 287.46-26.35 288.99-27 291.34-27L291.34-27Q294.39-27 296.86-25.53 299.34-24.05 300.81-21.1 302.29-18.15 302.29-13.65L302.29-13.65Q302.29-9.15 300.84-6 299.39-2.85 296.81-1.18 294.24 0.5 290.79 0.5L290.79 0.5Q288.49 0.5 286.71-0.23 284.94-0.95 283.69-2L283.69-2Q283.24-2.4 283.06-2.33 282.89-2.25 282.89-1.7L282.89-1.7 282.89 7.6Q282.89 8.25 282.34 8.25L282.34 8.25 279.24 8.25Q278.69 8.25 278.69 7.6L278.69 7.6 278.69-25.7Q278.69-26.15 278.86-26.33 279.04-26.5 279.49-26.5L279.49-26.5 282.14-26.5ZM282.89-5.85L282.89-5.85Q284.44-4.35 286.06-3.45 287.69-2.55 289.69-2.55L289.69-2.55Q292.09-2.55 293.96-3.8 295.84-5.05 296.91-7.5 297.99-9.95 297.99-13.6L297.99-13.6Q297.99-17.25 296.89-19.55 295.79-21.85 293.96-22.9 292.14-23.95 289.94-23.95L289.94-23.95Q287.89-23.95 286.29-23.05 284.69-22.15 283.79-20.83 282.89-19.5 282.89-18.2L282.89-18.2 282.89-5.85ZM355.96-3.2L355.96-3.2Q354.11-1.4 351.94-0.45 349.76 0.5 347.06 0.5L347.06 0.5Q343.16 0.5 340.94-1.5 338.71-3.5 338.71-6.75L338.71-6.75Q338.71-9.4 340.21-11.33 341.71-13.25 344.66-14.38 347.61-15.5 351.91-15.75L351.91-15.75 355.81-16.05Q356.11-16.1 356.36-16.25 356.61-16.4 356.61-16.8L356.61-16.8 356.61-18.15Q356.61-20.85 354.94-22.43 353.26-24 350.41-24L350.41-24Q348.21-24 346.44-23 344.66-22 343.26-20L343.26-20Q343.06-19.75 342.94-19.68 342.81-19.6 342.51-19.7L342.51-19.7 339.81-20.6Q339.66-20.7 339.59-20.85 339.51-21 339.71-21.4L339.71-21.4Q341.21-24 343.94-25.5 346.66-27 350.61-27L350.61-27Q353.96-27 356.19-25.98 358.41-24.95 359.54-23.03 360.66-21.1 360.66-18.45L360.66-18.45 360.66-0.75Q360.66-0.3 360.51-0.15 360.36 0 360.01 0L360.01 0 357.46 0Q357.11 0 356.96-0.23 356.81-0.45 356.76-0.8L356.76-0.8 356.71-3.1Q356.56-3.8 355.96-3.2L355.96-3.2ZM356.61-12.7L356.61-12.7Q356.61-13.55 355.91-13.5L355.91-13.5 352.61-13.2Q350.31-13.1 348.51-12.63 346.71-12.15 345.46-11.4 344.21-10.65 343.56-9.63 342.91-8.6 342.91-7.25L342.91-7.25Q342.91-5.05 344.44-3.83 345.96-2.6 348.56-2.6L348.56-2.6Q350.16-2.6 351.64-3.18 353.11-3.75 354.21-4.65L354.21-4.65Q355.36-5.6 355.99-6.6 356.61-7.6 356.61-8.55L356.61-8.55 356.61-12.7ZM404.54-36.45L404.54-0.85Q404.54-0.35 404.34-0.18 404.14 0 403.64 0L403.64 0 401.04 0Q400.29 0 400.29-0.7L400.29-0.7 400.34-36.4Q400.34-37.1 400.94-37.1L400.94-37.1 403.94-37.1Q404.54-37.1 404.54-36.45L404.54-36.45ZM459.67-3.2L459.67-3.2Q457.82-1.4 455.64-0.45 453.47 0.5 450.77 0.5L450.77 0.5Q446.87 0.5 444.64-1.5 442.42-3.5 442.42-6.75L442.42-6.75Q442.42-9.4 443.92-11.33 445.42-13.25 448.37-14.38 451.32-15.5 455.62-15.75L455.62-15.75 459.52-16.05Q459.82-16.1 460.07-16.25 460.32-16.4 460.32-16.8L460.32-16.8 460.32-18.15Q460.32-20.85 458.64-22.43 456.97-24 454.12-24L454.12-24Q451.92-24 450.14-23 448.37-22 446.97-20L446.97-20Q446.77-19.75 446.64-19.68 446.52-19.6 446.22-19.7L446.22-19.7 443.52-20.6Q443.37-20.7 443.29-20.85 443.22-21 443.42-21.4L443.42-21.4Q444.92-24 447.64-25.5 450.37-27 454.32-27L454.32-27Q457.67-27 459.89-25.98 462.12-24.95 463.24-23.03 464.37-21.1 464.37-18.45L464.37-18.45 464.37-0.75Q464.37-0.3 464.22-0.15 464.07 0 463.72 0L463.72 0 461.17 0Q460.82 0 460.67-0.23 460.52-0.45 460.47-0.8L460.47-0.8 460.42-3.1Q460.27-3.8 459.67-3.2L459.67-3.2ZM460.32-12.7L460.32-12.7Q460.32-13.55 459.62-13.5L459.62-13.5 456.32-13.2Q454.02-13.1 452.22-12.63 450.42-12.15 449.17-11.4 447.92-10.65 447.27-9.63 446.62-8.6 446.62-7.25L446.62-7.25Q446.62-5.05 448.14-3.83 449.67-2.6 452.27-2.6L452.27-2.6Q453.87-2.6 455.34-3.18 456.82-3.75 457.92-4.65L457.92-4.65Q459.07-5.6 459.69-6.6 460.32-7.6 460.32-8.55L460.32-8.55 460.32-12.7ZM514.99-27L514.99-27Q517.59-27 519.57-26.18 521.54-25.35 522.97-23.93 524.39-22.5 525.34-20.8L525.34-20.8Q525.64-20.2 525.09-20.05L525.09-20.05 522.34-19.4Q521.99-19.25 521.69-19.7L521.69-19.7Q520.69-21.15 519.72-22.05 518.74-22.95 517.64-23.43 516.54-23.9 515.24-23.9L515.24-23.9Q512.69-23.9 510.77-22.63 508.84-21.35 507.79-18.95 506.74-16.55 506.74-13.25L506.74-13.25Q506.74-9.9 507.82-7.5 508.89-5.1 510.82-3.85 512.74-2.6 515.34-2.6L515.34-2.6Q517.74-2.6 519.49-3.8 521.24-5 522.69-7.3L522.69-7.3Q522.84-7.55 522.97-7.58 523.09-7.6 523.34-7.5L523.34-7.5 525.49-6.7Q525.84-6.55 525.69-6.05L525.69-6.05Q524.94-4.75 523.94-3.55 522.94-2.35 521.62-1.45 520.29-0.55 518.64-0.03 516.99 0.5 514.99 0.5L514.99 0.5Q511.29 0.5 508.47-1.23 505.64-2.95 504.04-6.03 502.44-9.1 502.44-13.15L502.44-13.15Q502.44-17.25 504.07-20.35 505.69-23.45 508.52-25.23 511.34-27 514.99-27L514.99-27ZM565.72-11.6L565.72-11.6Q565.72-9.15 566.9-7.13 568.07-5.1 570.05-3.9 572.02-2.7 574.47-2.7L574.47-2.7Q576.97-2.7 578.92-3.73 580.87-4.75 582.27-6.85L582.27-6.85Q582.47-7.05 582.6-7.08 582.72-7.1 582.97-7L582.97-7 585.07-5.95Q585.52-5.7 585.17-5.25L585.17-5.25Q583.82-3.25 582.2-1.98 580.57-0.7 578.57-0.1 576.57 0.5 574.07 0.5L574.07 0.5Q570.37 0.5 567.52-1.2 564.67-2.9 563.02-5.95 561.37-9 561.37-13L561.37-13Q561.37-17.35 563.05-20.48 564.72-23.6 567.6-25.3 570.47-27 574.02-27L574.02-27Q577.67-27 580.37-25.4 583.07-23.8 584.57-20.75 586.07-17.7 586.07-13.4L586.07-13.4Q586.07-13.05 586-12.7 585.92-12.35 585.32-12.35L585.32-12.35 566.17-12.35Q565.97-12.35 565.85-12.13 565.72-11.9 565.72-11.6L565.72-11.6ZM565.82-15.1L581.02-15.1Q581.57-15.1 581.72-15.23 581.87-15.35 581.87-15.8L581.87-15.8Q581.87-17.95 580.95-19.83 580.02-21.7 578.3-22.85 576.57-24 574.12-24L574.12-24Q571.42-24 569.57-22.73 567.72-21.45 566.77-19.4 565.82-17.35 565.82-15.1L565.82-15.1Z" opacity="1" transform="matrix(1,0,0,1,0,0)" fill="#3d9970" class="slogan-text-1" data-fill-palette-color="secondary" id="text-1"></path></svg></g></svg></g></svg></g></svg></g><g><svg viewBox="0 0 228.22577002274193 228.22577002274193" height="228.22577002274193" width="228.22577002274193"><g><svg></svg></g><g id="icon-0"><svg viewBox="0 0 228.22577002274193 228.22577002274193" height="228.22577002274193" width="228.22577002274193"><g><path d="M0 114.113c0-63.023 51.09-114.113 114.113-114.113 63.023 0 114.113 51.09 114.113 114.113 0 63.023-51.09 114.113-114.113 114.113-63.023 0-114.113-51.09-114.113-114.113zM114.113 223.73c60.54 0 109.617-49.077 109.617-109.617 0-60.54-49.077-109.617-109.617-109.617-60.54 0-109.617 49.077-109.617 109.617 0 60.54 49.077 109.617 109.617 109.617z" data-fill-palette-color="accent" fill="#3d9970" stroke="transparent"></path></g><g transform="matrix(1,0,0,1,45.15677043482883,57.46233230197703)"><svg viewBox="0 0 137.91222915308427 113.30110541878787" height="113.30110541878787" width="137.91222915308427"><g><svg xmlns="http://www.w3.org/2000/svg" xmlns:xlink="http://www.w3.org/1999/xlink" version="1.1" x="0" y="0" viewBox="2.316 10.136000000000006 96.60699999999999 79.36699999999999" enable-background="new 0 0 100 100" xml:space="preserve" height="113.30110541878787" width="137.91222915308427" class="icon-cg-0" data-fill-palette-color="accent" id="cg-0"><g fill="#3d9970" data-fill-palette-color="accent"><path d="M50.283 89.503c-10.104 0-19.423-2.506-26.975-7.251C11.316 80.843 2.316 70.738 2.316 58.61c0-8.161 4.051-15.58 10.876-19.993l1.833-28.475 18.024 11.582c5.142-2.307 10.648-3.385 17.233-3.385 6.611 0 12.183 1.107 17.399 3.469l18.166-11.672 1.695 28.169c7.039 4.317 11.381 12.026 11.381 20.305 0 12.334-9.539 22.682-21.784 23.716C69.61 87.022 60.333 89.503 50.283 89.503zM17.544 15.131l-1.618 25.133-0.634 0.383C8.941 44.485 5.15 51.2 5.15 58.61c0 10.783 8.076 19.751 18.786 20.859l0.334 0.036 0.283 0.181c7.143 4.567 16.041 6.982 25.729 6.982 9.646 0 18.511-2.394 25.64-6.924l0.303-0.193 0.358-0.024C87.522 78.77 96.09 69.583 96.09 58.61c0-7.521-4.068-14.508-10.618-18.236l-0.666-0.379L83.31 15.137l-13.088 8.409 5.344 5.343-7.812-3.906c-5.196-2.598-10.747-3.808-17.471-3.808-6.525 0-11.893 1.118-16.893 3.517l-7.488 3.593 4.738-4.739L17.544 15.131z" fill="#3d9970" data-fill-palette-color="accent"></path></g><g fill="#3d9970" data-fill-palette-color="accent"><path d="M32.6 45.712c-4.046 0-7.339-3.292-7.339-7.339 0-4.046 3.292-7.339 7.339-7.339 4.047 0 7.339 3.292 7.339 7.339C39.939 42.42 36.647 45.712 32.6 45.712zM32.6 33.869c-2.484 0-4.505 2.021-4.505 4.504s2.021 4.505 4.505 4.505 4.504-2.021 4.504-4.505S35.084 33.869 32.6 33.869z" fill="#3d9970" data-fill-palette-color="accent"></path></g><g fill="#3d9970" data-fill-palette-color="accent"><path d="M69.04 45.712c-4.047 0-7.339-3.292-7.339-7.339 0-4.046 3.292-7.339 7.339-7.339 4.046 0 7.339 3.292 7.339 7.339C76.379 42.42 73.086 45.712 69.04 45.712zM69.04 33.869c-2.483 0-4.506 2.021-4.506 4.504s2.022 4.505 4.506 4.505 4.505-2.021 4.505-4.505S71.523 33.869 69.04 33.869z" fill="#3d9970" data-fill-palette-color="accent"></path></g><g fill="#3d9970" data-fill-palette-color="accent"><circle cx="32.724" cy="38.219" r="1.7" fill="#3d9970" data-fill-palette-color="accent"></circle></g><g fill="#3d9970" data-fill-palette-color="accent"><circle cx="32.724" cy="66.115" r="0.85" fill="#3d9970" data-fill-palette-color="accent"></circle><path d="M32.724 67.979c-1.027 0-1.862-0.836-1.862-1.863s0.835-1.862 1.862-1.862c1.027 0 1.863 0.835 1.863 1.862S33.751 67.979 32.724 67.979zM32.724 65.954c-0.089 0-0.162 0.072-0.162 0.161 0 0.09 0.073 0.162 0.162 0.162 0.089 0 0.162-0.072 0.162-0.162C32.886 66.026 32.813 65.954 32.724 65.954z" fill="#3d9970" data-fill-palette-color="accent"></path></g><g fill="#3d9970" data-fill-palette-color="accent"><circle cx="40.417" cy="66.115" r="0.85" fill="#3d9970" data-fill-palette-color="accent"></circle><path d="M40.417 67.979c-1.027 0-1.863-0.836-1.863-1.863s0.836-1.862 1.863-1.862c1.026 0 1.862 0.835 1.862 1.862S41.444 67.979 40.417 67.979zM40.417 65.954c-0.09 0-0.162 0.072-0.162 0.161 0 0.09 0.072 0.162 0.162 0.162 0.089 0 0.162-0.072 0.162-0.162C40.579 66.026 40.506 65.954 40.417 65.954z" fill="#3d9970" data-fill-palette-color="accent"></path></g><g fill="#3d9970" data-fill-palette-color="accent"><circle cx="36.773" cy="61.257" r="0.85" fill="#3d9970" data-fill-palette-color="accent"></circle><path d="M36.773 63.12c-1.027 0-1.863-0.836-1.863-1.863 0-1.026 0.835-1.863 1.863-1.863s1.863 0.837 1.863 1.863C38.636 62.284 37.8 63.12 36.773 63.12zM36.773 61.095c-0.089 0-0.162 0.073-0.162 0.162s0.073 0.161 0.162 0.161c0.089 0 0.162-0.072 0.162-0.161S36.862 61.095 36.773 61.095z" fill="#3d9970" data-fill-palette-color="accent"></path></g><g fill="#3d9970" data-fill-palette-color="accent"><circle cx="60.257" cy="66.115" r="0.85" fill="#3d9970" data-fill-palette-color="accent"></circle><path d="M60.256 67.979c-1.027 0-1.862-0.836-1.862-1.863s0.835-1.862 1.862-1.862 1.863 0.835 1.863 1.862S61.283 67.979 60.256 67.979zM60.256 65.954c-0.089 0-0.16 0.072-0.16 0.161 0 0.09 0.071 0.162 0.16 0.162 0.09 0 0.163-0.072 0.163-0.162C60.419 66.026 60.346 65.954 60.256 65.954z" fill="#3d9970" data-fill-palette-color="accent"></path></g><g fill="#3d9970" data-fill-palette-color="accent"><circle cx="64.71" cy="61.257" r="0.85" fill="#3d9970" data-fill-palette-color="accent"></circle><path d="M64.71 63.12c-1.027 0-1.862-0.836-1.862-1.863 0-1.026 0.835-1.863 1.862-1.863s1.862 0.837 1.862 1.863C66.572 62.284 65.737 63.12 64.71 63.12zM64.71 61.095c-0.089 0-0.162 0.073-0.162 0.162s0.073 0.161 0.162 0.161 0.163-0.072 0.163-0.161S64.799 61.095 64.71 61.095z" fill="#3d9970" data-fill-palette-color="accent"></path></g><g fill="#3d9970" data-fill-palette-color="accent"><circle cx="69.164" cy="66.115" r="0.85" fill="#3d9970" data-fill-palette-color="accent"></circle><path d="M69.164 67.979c-1.027 0-1.863-0.836-1.863-1.863s0.836-1.862 1.863-1.862 1.862 0.835 1.862 1.862S70.191 67.979 69.164 67.979zM69.164 65.954c-0.09 0-0.162 0.072-0.162 0.161 0 0.09 0.072 0.162 0.162 0.162 0.088 0 0.161-0.072 0.161-0.162C69.325 66.026 69.252 65.954 69.164 65.954z" fill="#3d9970" data-fill-palette-color="accent"></path></g><g fill="#3d9970" data-fill-palette-color="accent"><circle cx="69.164" cy="38.219" r="1.7" fill="#3d9970" data-fill-palette-color="accent"></circle></g><path d="M64.181 47.96c-3.413 0-6.633 1.067-9.287 2.944-0.177-0.017-0.357-0.031-0.55-0.031-0.556 0-1.145 0.067-1.771 0.138-0.695 0.078-1.416 0.159-2.158 0.159-0.743 0-1.462-0.081-2.159-0.159-0.624-0.07-1.215-0.138-1.77-0.138-0.063 0-0.123 0.006-0.185 0.007-2.647-1.861-5.851-2.92-9.248-2.92-8.869 0-16.083 7.215-16.083 16.083 0 8.869 7.215 16.084 16.083 16.084 3.266 0 6.354-0.98 8.94-2.71 1.231 0.935 2.76 1.495 4.421 1.495 1.746 0 3.343-0.622 4.604-1.646 2.632 1.824 5.802 2.861 9.162 2.861 8.869 0 16.084-7.215 16.084-16.084C80.265 55.175 73.05 47.96 64.181 47.96zM50.415 54.005c0.902 0 1.738-0.095 2.477-0.178 0.543-0.062 1.057-0.119 1.452-0.119 0.295 0 0.433 0.032 0.485 0.05 0.027 0.063 0.091 0.258 0.091 0.702 0 2.484-2.021 4.506-4.505 4.506-2.484 0-4.505-2.021-4.505-4.506 0-0.444 0.064-0.64 0.091-0.702 0.052-0.018 0.19-0.05 0.485-0.05 0.396 0 0.909 0.058 1.452 0.119C48.677 53.91 49.513 54.005 50.415 54.005zM50.415 76.079c-0.765 0-1.484-0.195-2.115-0.534 0.869-0.853 1.652-1.804 2.317-2.851 0.626 0.986 1.359 1.887 2.168 2.701C52.098 75.826 51.285 76.079 50.415 76.079zM64.181 77.294c-5.39 0-10.198-3.222-12.253-8.206l-1.31-3.181-1.311 3.181c-2.054 4.984-6.863 8.206-12.253 8.206-7.306 0-13.25-5.945-13.25-13.251s5.944-13.249 13.25-13.249c2.309 0 4.503 0.604 6.426 1.672-0.266 0.535-0.404 1.2-0.404 1.994 0 4.047 3.292 7.34 7.339 7.34 4.047 0 7.339-3.293 7.339-7.34 0-0.705-0.108-1.31-0.318-1.812 1.997-1.184 4.308-1.854 6.745-1.854 7.306 0 13.25 5.943 13.25 13.249S71.486 77.294 64.181 77.294z" fill="#3d9970" data-fill-palette-color="accent"></path></svg></g></svg></g></svg></g></svg></g></svg></g><defs></defs></svg><rect width="395.52" height="139.45660085083603" fill="none" stroke="none" visibility="hidden"></rect></g></svg></g></svg>