<svg xmlns="http://www.w3.org/2000/svg" version="1.1" xmlns:xlink="http://www.w3.org/1999/xlink" xmlns:svgjs="http://svgjs.dev/svgjs" width="1500" height="212" viewBox="0 0 1500 212"><g transform="matrix(1,0,0,1,-0.9090909090909918,-0.29424918333791084)"><svg viewBox="0 0 396 56" data-background-color="#ffffff" preserveAspectRatio="xMidYMid meet" height="212" width="1500" xmlns="http://www.w3.org/2000/svg" xmlns:xlink="http://www.w3.org/1999/xlink"><g id="tight-bounds" transform="matrix(1,0,0,1,0.2400000000000091,0.07772619937227887)"><svg viewBox="0 0 395.52 55.84454760125545" height="55.84454760125545" width="395.52"><g><svg viewBox="0 0 524.288067257256 74.02566223887048" height="55.84454760125545" width="395.52"><g><rect width="4.8304707779918745" height="53.8319757959948" x="111.29238501855235" y="10.09684322143784" fill="#dfdfdf" opacity="1" stroke-width="0" stroke="transparent" fill-opacity="1" class="rect-qz-0" data-fill-palette-color="primary" rx="1%" id="qz-0" data-palette-color="#dfdfdf"></rect></g><g transform="matrix(1,0,0,1,128.76806725725595,10.230753608990064)"><svg viewBox="0 0 395.52 53.564155020890354" height="53.564155020890354" width="395.52"><g id="textblocktransform"><svg viewBox="0 0 395.52 53.564155020890354" height="53.564155020890354" width="395.52" id="textblock"><g><svg viewBox="0 0 395.52 53.564155020890354" height="53.564155020890354" width="395.52"><g transform="matrix(1,0,0,1,0,0)"><svg width="395.52" viewBox="1.55 -37 347.82 47" height="53.564155020890354" data-palette-color="#dfdfdf"><g class="wordmark-text-0" data-fill-palette-color="primary" id="text-0"><path d="M8.45 0L1.55-25.8 5.45-25.8 8.2-14.65 10.95-3.35 11.05-3.35 14.2-14.65 17.45-25.8 21-25.8 24.35-14.65 27.55-3.35 27.65-3.35 30.3-14.65 33.1-25.8 36.85-25.8 30 0 25.05 0 21.45-12.4 19.2-20.25 19.1-20.25 16.9-12.4 13.3 0 8.45 0ZM52.4 0.6L52.4 0.6Q49.8 0.6 47.65-0.35 45.5-1.3 43.97-3.08 42.45-4.85 41.6-7.33 40.75-9.8 40.75-12.9L40.75-12.9Q40.75-15.95 41.6-18.45 42.45-20.95 43.97-22.73 45.5-24.5 47.65-25.45 49.8-26.4 52.4-26.4L52.4-26.4Q55-26.4 57.12-25.45 59.25-24.5 60.8-22.73 62.35-20.95 63.2-18.45 64.05-15.95 64.05-12.9L64.05-12.9Q64.05-9.8 63.2-7.33 62.35-4.85 60.8-3.08 59.25-1.3 57.12-0.35 55 0.6 52.4 0.6ZM52.4-2.95L52.4-2.95Q55.65-2.95 57.7-4.95 59.75-6.95 59.75-11.05L59.75-11.05 59.75-14.75Q59.75-18.85 57.7-20.85 55.65-22.85 52.4-22.85L52.4-22.85Q49.15-22.85 47.1-20.85 45.05-18.85 45.05-14.75L45.05-14.75 45.05-11.05Q45.05-6.95 47.1-4.95 49.15-2.95 52.4-2.95ZM74.85 0L67.95-25.8 71.85-25.8 74.6-14.65 77.35-3.35 77.45-3.35 80.6-14.65 83.85-25.8 87.4-25.8 90.75-14.65 93.95-3.35 94.05-3.35 96.7-14.65 99.5-25.8 103.25-25.8 96.4 0 91.45 0 87.85-12.4 85.6-20.25 85.5-20.25 83.3-12.4 79.7 0 74.85 0ZM109.04 10L109.04-25.8 113.04-25.8 113.04-21.6 113.24-21.6Q114.24-24.05 116.17-25.23 118.09-26.4 120.79-26.4L120.79-26.4Q123.19-26.4 125.14-25.45 127.09-24.5 128.47-22.75 129.84-21 130.57-18.5 131.29-16 131.29-12.9L131.29-12.9Q131.29-9.8 130.57-7.3 129.84-4.8 128.47-3.05 127.09-1.3 125.14-0.35 123.19 0.6 120.79 0.6L120.79 0.6Q115.54 0.6 113.24-4.2L113.24-4.2 113.04-4.2 113.04 10 109.04 10ZM119.69-3L119.69-3Q123.09-3 125.04-5.13 126.99-7.25 126.99-10.7L126.99-10.7 126.99-15.1Q126.99-18.55 125.04-20.68 123.09-22.8 119.69-22.8L119.69-22.8Q118.34-22.8 117.12-22.43 115.89-22.05 114.99-21.4 114.09-20.75 113.57-19.83 113.04-18.9 113.04-17.85L113.04-17.85 113.04-8.25Q113.04-7 113.57-6.03 114.09-5.05 114.99-4.38 115.89-3.7 117.12-3.35 118.34-3 119.69-3ZM147.74 0.6L147.74 0.6Q145.09 0.6 142.97-0.35 140.84-1.3 139.32-3.08 137.79-4.85 136.97-7.33 136.14-9.8 136.14-12.9L136.14-12.9Q136.14-15.95 136.97-18.45 137.79-20.95 139.32-22.73 140.84-24.5 142.97-25.45 145.09-26.4 147.74-26.4L147.74-26.4Q150.34-26.4 152.39-25.45 154.44-24.5 155.89-22.83 157.34-21.15 158.12-18.85 158.89-16.55 158.89-13.8L158.89-13.8 158.89-11.9 140.34-11.9 140.34-10.7Q140.34-9.05 140.87-7.63 141.39-6.2 142.37-5.15 143.34-4.1 144.77-3.5 146.19-2.9 147.99-2.9L147.99-2.9Q150.44-2.9 152.27-4.05 154.09-5.2 155.09-7.35L155.09-7.35 157.94-5.3Q156.69-2.65 154.04-1.03 151.39 0.6 147.74 0.6ZM147.74-23.05L147.74-23.05Q146.09-23.05 144.74-22.48 143.39-21.9 142.42-20.85 141.44-19.8 140.89-18.38 140.34-16.95 140.34-15.25L140.34-15.25 140.34-14.9 154.59-14.9 154.59-15.45Q154.59-18.9 152.72-20.98 150.84-23.05 147.74-23.05ZM176.19 0L171.19 0Q169.09 0 168.01-1.18 166.94-2.35 166.94-4.25L166.94-4.25 166.94-22.3 162.69-22.3 162.69-25.8 165.09-25.8Q166.39-25.8 166.86-26.33 167.34-26.85 167.34-28.15L167.34-28.15 167.34-32.95 170.94-32.95 170.94-25.8 176.59-25.8 176.59-22.3 170.94-22.3 170.94-3.5 176.19-3.5 176.19 0ZM190.79 0.6L190.79 0.6Q187.19 0.6 184.76-0.78 182.34-2.15 180.59-4.45L180.59-4.45 183.44-6.75Q184.94-4.85 186.79-3.83 188.64-2.8 191.09-2.8L191.09-2.8Q193.64-2.8 195.06-3.9 196.49-5 196.49-7L196.49-7Q196.49-8.5 195.51-9.58 194.54-10.65 191.99-11.05L191.99-11.05 189.94-11.35Q188.14-11.6 186.64-12.13 185.14-12.65 184.01-13.53 182.89-14.4 182.26-15.7 181.64-17 181.64-18.8L181.64-18.8Q181.64-20.7 182.34-22.13 183.04-23.55 184.26-24.5 185.49-25.45 187.19-25.93 188.89-26.4 190.84-26.4L190.84-26.4Q193.99-26.4 196.11-25.3 198.24-24.2 199.84-22.25L199.84-22.25 197.19-19.85Q196.34-21.05 194.69-22.03 193.04-23 190.54-23L190.54-23Q188.04-23 186.76-21.93 185.49-20.85 185.49-19L185.49-19Q185.49-17.1 186.76-16.25 188.04-15.4 190.44-15L190.44-15 192.44-14.7Q196.74-14.05 198.54-12.23 200.34-10.4 200.34-7.45L200.34-7.45Q200.34-3.7 197.79-1.55 195.24 0.6 190.79 0.6ZM207.38 10L207.38-25.8 211.38-25.8 211.38-21.6 211.58-21.6Q212.58-24.05 214.51-25.23 216.43-26.4 219.13-26.4L219.13-26.4Q221.53-26.4 223.48-25.45 225.43-24.5 226.81-22.75 228.18-21 228.91-18.5 229.63-16 229.63-12.9L229.63-12.9Q229.63-9.8 228.91-7.3 228.18-4.8 226.81-3.05 225.43-1.3 223.48-0.35 221.53 0.6 219.13 0.6L219.13 0.6Q213.88 0.6 211.58-4.2L211.58-4.2 211.38-4.2 211.38 10 207.38 10ZM218.03-3L218.03-3Q221.43-3 223.38-5.13 225.33-7.25 225.33-10.7L225.33-10.7 225.33-15.1Q225.33-18.55 223.38-20.68 221.43-22.8 218.03-22.8L218.03-22.8Q216.68-22.8 215.46-22.43 214.23-22.05 213.33-21.4 212.43-20.75 211.91-19.83 211.38-18.9 211.38-17.85L211.38-17.85 211.38-8.25Q211.38-7 211.91-6.03 212.43-5.05 213.33-4.38 214.23-3.7 215.46-3.35 216.68-3 218.03-3ZM257.38 0L255.13 0Q252.88 0 251.91-1.2 250.93-2.4 250.68-4.2L250.68-4.2 250.43-4.2Q249.58-1.8 247.63-0.6 245.68 0.6 242.98 0.6L242.98 0.6Q238.88 0.6 236.61-1.5 234.33-3.6 234.33-7.2L234.33-7.2Q234.33-10.85 237.01-12.8 239.68-14.75 245.33-14.75L245.33-14.75 250.43-14.75 250.43-17.3Q250.43-20.05 248.93-21.5 247.43-22.95 244.33-22.95L244.33-22.95Q241.98-22.95 240.41-21.9 238.83-20.85 237.78-19.1L237.78-19.1 235.38-21.35Q236.43-23.45 238.73-24.93 241.03-26.4 244.53-26.4L244.53-26.4Q249.23-26.4 251.83-24.1 254.43-21.8 254.43-17.7L254.43-17.7 254.43-3.5 257.38-3.5 257.38 0ZM243.63-2.8L243.63-2.8Q245.13-2.8 246.38-3.15 247.63-3.5 248.53-4.15 249.43-4.8 249.93-5.65 250.43-6.5 250.43-7.5L250.43-7.5 250.43-11.75 245.13-11.75Q241.68-11.75 240.11-10.75 238.53-9.75 238.53-7.85L238.53-7.85 238.53-6.8Q238.53-4.9 239.91-3.85 241.28-2.8 243.63-2.8ZM270.88 0L267.33 0Q265.23 0 264.15-1.18 263.08-2.35 263.08-4.15L263.08-4.15 263.08-37 267.08-37 267.08-3.5 270.88-3.5 270.88 0ZM297.68 0L295.43 0Q293.18 0 292.2-1.2 291.23-2.4 290.98-4.2L290.98-4.2 290.73-4.2Q289.88-1.8 287.93-0.6 285.98 0.6 283.28 0.6L283.28 0.6Q279.18 0.6 276.9-1.5 274.63-3.6 274.63-7.2L274.63-7.2Q274.63-10.85 277.3-12.8 279.98-14.75 285.63-14.75L285.63-14.75 290.73-14.75 290.73-17.3Q290.73-20.05 289.23-21.5 287.73-22.95 284.63-22.95L284.63-22.95Q282.28-22.95 280.7-21.9 279.13-20.85 278.08-19.1L278.08-19.1 275.68-21.35Q276.73-23.45 279.03-24.93 281.33-26.4 284.83-26.4L284.83-26.4Q289.53-26.4 292.13-24.1 294.73-21.8 294.73-17.7L294.73-17.7 294.73-3.5 297.68-3.5 297.68 0ZM283.93-2.8L283.93-2.8Q285.43-2.8 286.68-3.15 287.93-3.5 288.83-4.15 289.73-4.8 290.23-5.65 290.73-6.5 290.73-7.5L290.73-7.5 290.73-11.75 285.43-11.75Q281.98-11.75 280.4-10.75 278.83-9.75 278.83-7.85L278.83-7.85 278.83-6.8Q278.83-4.9 280.2-3.85 281.58-2.8 283.93-2.8ZM312.97 0.6L312.97 0.6Q310.27 0.6 308.12-0.35 305.97-1.3 304.5-3.05 303.02-4.8 302.25-7.3 301.47-9.8 301.47-12.9L301.47-12.9Q301.47-16 302.25-18.5 303.02-21 304.5-22.75 305.97-24.5 308.12-25.45 310.27-26.4 312.97-26.4L312.97-26.4Q316.82-26.4 319.15-24.73 321.47-23.05 322.62-20.35L322.62-20.35 319.27-18.65Q318.57-20.65 316.97-21.75 315.37-22.85 312.97-22.85L312.97-22.85Q311.17-22.85 309.82-22.28 308.47-21.7 307.57-20.68 306.67-19.65 306.22-18.23 305.77-16.8 305.77-15.1L305.77-15.1 305.77-10.7Q305.77-7.3 307.6-5.13 309.42-2.95 312.97-2.95L312.97-2.95Q317.82-2.95 319.97-7.45L319.97-7.45 322.87-5.5Q321.62-2.7 319.15-1.05 316.67 0.6 312.97 0.6ZM338.22 0.6L338.22 0.6Q335.57 0.6 333.45-0.35 331.32-1.3 329.8-3.08 328.27-4.85 327.45-7.33 326.62-9.8 326.62-12.9L326.62-12.9Q326.62-15.95 327.45-18.45 328.27-20.95 329.8-22.73 331.32-24.5 333.45-25.45 335.57-26.4 338.22-26.4L338.22-26.4Q340.82-26.4 342.87-25.45 344.92-24.5 346.37-22.83 347.82-21.15 348.6-18.85 349.37-16.55 349.37-13.8L349.37-13.8 349.37-11.9 330.82-11.9 330.82-10.7Q330.82-9.05 331.35-7.63 331.87-6.2 332.85-5.15 333.82-4.1 335.25-3.5 336.67-2.9 338.47-2.9L338.47-2.9Q340.92-2.9 342.75-4.05 344.57-5.2 345.57-7.35L345.57-7.35 348.42-5.3Q347.17-2.65 344.52-1.03 341.87 0.6 338.22 0.6ZM338.22-23.05L338.22-23.05Q336.57-23.05 335.22-22.48 333.87-21.9 332.9-20.85 331.92-19.8 331.37-18.38 330.82-16.95 330.82-15.25L330.82-15.25 330.82-14.9 345.07-14.9 345.07-15.45Q345.07-18.9 343.2-20.98 341.32-23.05 338.22-23.05Z" fill="#dfdfdf" data-fill-palette-color="primary"></path></g></svg></g></svg></g></svg></g></svg></g><g><svg viewBox="0 0 98.64717355784065 74.02566223887048" height="74.02566223887048" width="98.64717355784065"><g><svg xmlns="http://www.w3.org/2000/svg" xmlns:xlink="http://www.w3.org/1999/xlink" version="1.1" x="0" y="0" viewBox="0.8833187001706966 8.64929991235549 62.23412837492861 46.70100927029353" enable-background="new 0 0 64 64" xml:space="preserve" height="74.02566223887048" width="98.64717355784065" class="icon-icon-0" data-fill-palette-color="accent" id="icon-0"><g fill="#dfdfdf" data-fill-palette-color="accent"><path fill="#dfdfdf" d="M21.362 16.882c-0.876 0.662-1.687 1.274-2.496 1.889-2.427 1.837-4.859 3.669-7.275 5.52-0.29 0.223-0.514 0.261-0.846 0.108-0.924-0.427-1.911-0.524-2.924-0.553-1.088-0.031-2.189-0.099-3.257-0.294-0.549-0.1-1.068-0.331-1.498-0.687-0.241-0.199-0.499-0.419-0.658-0.693-0.214-0.37 0.026-0.542-0.03-0.886-0.032-0.2-0.155-0.35-0.299-0.483-0.163-0.15-0.411-0.223-0.56-0.378-0.184-0.19-0.305-0.518-0.444-0.746-0.291-0.477-0.264-0.899 0.173-1.226 0.533-0.398 1.073-0.809 1.665-1.102 2.327-1.146 4.673-2.254 7.019-3.358 0.397-0.187 0.604-0.379 0.683-0.87 0.165-1.017 0.401-2.039 0.763-3 0.395-1.051 1.128-1.154 1.931-0.355 0.401 0.399 0.728 0.874 1.115 1.346 0.099-0.205 0.179-0.389 0.275-0.564 0.224-0.405 0.42-0.831 0.692-1.202 0.69-0.942 1.351-0.93 2.016 0.027 0.725 1.044 1.035 2.255 1.261 3.475 0.167 0.895 0.416 1.669 1.158 2.289C20.399 15.615 20.829 16.264 21.362 16.882z" data-fill-palette-color="accent"></path><path fill="#dfdfdf" d="M23.002 18.46c0.587 0.776 1.132 1.497 1.713 2.265-3.337 2.528-6.64 5.03-9.992 7.569-0.58-0.764-1.126-1.482-1.717-2.261C16.334 23.511 19.637 21.009 23.002 18.46z" data-fill-palette-color="accent"></path><path fill="#dfdfdf" d="M35.47 9.704c0.37 0.488 0.713 0.94 1.087 1.432-3.67 2.778-7.316 5.539-11.011 8.337-0.375-0.492-0.718-0.941-1.091-1.43C28.136 15.257 31.77 12.505 35.47 9.704z" data-fill-palette-color="accent"></path><path fill="#dfdfdf" d="M63.073 52.631c-0.356-1.969-0.74-3.933-1.037-5.911-0.232-1.55-0.7-2.966-1.624-4.254-0.777-1.084-1.463-2.238-2.122-3.398-0.256-0.45-0.437-0.998-0.467-1.512-0.195-3.253-0.67-6.452-1.72-9.546-0.115-0.338-0.087-0.58 0.114-0.87 0.866-1.251 1.708-2.519 2.562-3.777 0.337-0.497 0.251-1.052-0.226-1.426-0.453-0.352-0.972-0.295-1.39 0.129-0.845 0.862-1.751 1.669-2.535 2.583-0.458 0.535-0.941 0.881-1.521 0.957-1.416-0.672-2.674-0.685-2.674-0.685-0.137-0.032-0.274-0.058-0.413-0.071-2.805-0.265-5.61-0.536-8.419-0.768-4.364-0.359-8.73-0.673-13.092-1.045-0.775-0.066-1.612-0.033-2.255-0.651-3.31 2.506-6.593 4.994-9.906 7.502 0.132 0.364 0.255 0.674 0.354 0.991 0.903 2.881 2.805 5.689 3.592 8.721 0.907 3.495-0.245 11.214-0.024 11.834 0.36 1.002 1.359 1.556 2.442 1.476 1.186-0.089 1.85-0.681 2.204-1.775 0.915-2.818 1.888-5.618 2.81-8.433 0.127-0.39 0.307-0.502 0.619-0.503 0.068 0 0.142 0.004 0.223 0.013 0.843 0.087 1.686 0.181 2.529 0.268 1.314 0.137 2.63 0.256 3.948 0.303 0.166 0.006 0.332 0.01 0.498 0.013 1.987 0.04 3.957-0.101 5.899-0.446 1.264-0.223 2.516-0.532 3.754-0.933 0.081-0.027 0.155-0.045 0.221-0.052 0.018-0.002 0.037-0.003 0.055-0.006 1.801-0.153 3.602-0.301 5.402-0.477 1.091-0.107 1.896 0.262 2.544 1.136 0.872 1.178 1.803 2.315 2.688 3.484 0.173 0.227 0.3 0.513 0.37 0.79 0.477 1.884 0.938 3.773 1.407 5.659 0.098 0.396 0.197 0.792 0.297 1.187 0.254 1.007 0.877 1.71 1.861 2.056C61.826 55.822 63.405 54.475 63.073 52.631z" data-fill-palette-color="accent"></path><path fill="#dfdfdf" d="M56.002 30.561c-0.087-0.227-0.168-0.524-0.242-0.9-0.032-0.165-0.068-0.326-0.107-0.481C55.796 29.636 55.91 30.097 56.002 30.561z" data-fill-palette-color="accent"></path></g></svg></g></svg></g></svg></g><defs></defs></svg><rect width="395.52" height="55.84454760125545" fill="none" stroke="none" visibility="hidden"></rect></g></svg></g></svg>