<svg width="54" height="54" viewBox="0 0 54 54" fill="none" xmlns="http://www.w3.org/2000/svg">
<mask id="path-1-inside-1_182_54" fill="white">
<path fill-rule="evenodd" clip-rule="evenodd" d="M54 27C54 12.0883 41.9117 0 27 0V0C12.0883 0 0 12.0883 0 27V27C0 41.9117 12.0883 54 27 54V54C41.9117 54 54 41.9117 54 27V27ZM18.8169 12.0473C21.9738 8.8904 25.0892 6.06578 25.7538 5.73347C26.46 5.44271 28.4123 5.19347 30.1154 5.19347C34.02 5.15194 36.0554 6.02424 38.2154 8.64117V8.64117C39.1871 9.84929 40.654 10.5519 42.2045 10.5519H43.8231C48.9738 10.5519 49.2231 10.7596 49.2231 14.7473C49.2231 17.2812 49.0985 17.7796 48.1846 18.6519V18.6519C47.4063 19.4901 46.2814 19.8011 45.1502 19.9703C44.026 20.1385 42.4524 20.3804 40.7492 20.6458L38.0913 21.0695C36.1407 21.3805 34.4247 22.5314 33.3969 24.2181V24.2181C32.4831 25.7135 31.7769 27.1673 31.7769 27.4581C31.7769 27.8319 32.3585 27.9981 33.5631 27.9981C35.4738 27.9981 38.2985 29.1196 39.2123 30.2412C39.5446 30.615 40.0431 31.8196 40.2923 32.8996C40.7492 34.6858 40.9154 34.8519 42.2031 34.9766C44.9031 35.2673 45.6508 36.9704 44.6123 40.5012C43.7815 43.1596 42.6185 43.9073 38.5062 44.4058C36.3789 44.6495 35.3864 44.7633 35.0432 45.2956C34.7431 45.7611 34.9395 46.5468 35.3077 48.0196C35.7646 49.8473 34.7677 49.4319 33.7708 47.355C32.94 45.6104 32.94 45.4442 33.5631 44.4889C34.1446 43.6166 34.6431 43.4089 37.26 43.1596C41.8292 42.7442 42.4523 42.4119 43.2831 39.795C44.1138 37.1781 43.6569 36.3058 41.5385 36.3058C39.9185 36.3058 39.4615 35.8073 39.0877 33.7304C38.6308 31.1135 37.3015 30.0335 34.2277 29.5766C31.86 29.2442 31.4862 29.2858 30.9462 29.9919C29.6585 31.5704 27.2077 32.3181 27.2077 31.155C27.2077 30.8227 27.6646 30.4489 28.2462 30.3242C28.7862 30.1996 29.4092 29.7427 29.6169 29.3273C30.1154 28.3719 30.5723 24.2596 30.1985 24.2596C29.4923 24.2596 25.5046 28.7873 24.0923 31.1135C21.8492 34.8519 20.9354 38.2581 20.6446 43.9489C20.4369 47.6042 20.1877 48.975 19.7723 49.0996C19.3154 49.2658 19.2323 48.3104 19.3985 43.7412C19.6062 37.2612 20.5615 33.8965 23.5108 29.4104C25.3385 26.5858 29.8246 22.1827 30.8631 22.1827C31.1538 22.1827 31.5277 22.5566 31.6523 23.055C31.86 23.8442 31.9431 23.8442 32.6492 22.7642V22.7642C33.0287 22.1616 32.8097 21.3632 32.1758 21.0385L31.6523 20.7704C29.9492 19.8981 28.8692 18.6935 29.3677 18.2366C29.5338 18.0704 30.3646 18.4442 31.2369 19.0258C33.1477 20.355 34.0615 20.355 41.0815 19.2335C45.36 18.5689 46.6892 18.195 47.2708 17.5304C48.4338 16.1181 48.1431 15.6196 45.6508 14.8719C43.74 14.3319 43.2 13.9996 42.8677 13.0027C42.4523 11.9642 42.2031 11.7981 40.7077 11.7981C39.2123 11.7981 38.8385 11.5904 37.2185 9.67963C36.2215 8.51655 34.7677 7.2704 34.02 6.97963C32.1508 6.1904 30.5308 6.23194 30.5308 7.02117C30.5308 7.72732 29.4923 7.85194 29.0769 7.22886C28.9523 6.97963 28.2462 6.81348 27.4985 6.81348C26.3354 6.81348 25.38 7.60271 20.2708 12.7119C15.12 17.8627 14.3308 18.8181 14.3308 19.9812C14.3308 21.8504 14.7046 22.5566 16.0338 23.2212C19.8138 25.1735 23.4692 22.6812 26.2938 16.2427C27.1246 14.3735 27.7477 13.875 28.2462 14.6642C28.5369 15.2042 25.3385 21.2689 23.9677 22.7227C22.0569 24.7581 20.7277 25.215 17.5708 25.0073L17.3809 24.9934C15.7398 24.8727 14.1508 25.5986 13.1677 26.9181V26.9181C11.0492 29.7427 8.80615 33.5227 7.22769 36.8873C6.06462 39.3796 5.19231 40.0858 5.19231 38.5489C5.19231 37.095 10.0938 28.455 13.1262 24.6335C13.9569 23.595 13.9569 23.4704 13.2923 22.1827C11.9215 19.5658 12.5446 18.4442 18.8169 12.0473ZM45.5262 13.4181C47.52 14.1242 48.06 13.9996 47.8938 12.9196C47.8108 12.1719 47.4785 11.9642 46.0246 11.8812C43.8231 11.715 43.5323 12.7119 45.5262 13.4181Z"/>
</mask>
<path fill-rule="evenodd" clip-rule="evenodd" d="M54 27C54 12.0883 41.9117 0 27 0V0C12.0883 0 0 12.0883 0 27V27C0 41.9117 12.0883 54 27 54V54C41.9117 54 54 41.9117 54 27V27ZM18.8169 12.0473C21.9738 8.8904 25.0892 6.06578 25.7538 5.73347C26.46 5.44271 28.4123 5.19347 30.1154 5.19347C34.02 5.15194 36.0554 6.02424 38.2154 8.64117V8.64117C39.1871 9.84929 40.654 10.5519 42.2045 10.5519H43.8231C48.9738 10.5519 49.2231 10.7596 49.2231 14.7473C49.2231 17.2812 49.0985 17.7796 48.1846 18.6519V18.6519C47.4063 19.4901 46.2814 19.8011 45.1502 19.9703C44.026 20.1385 42.4524 20.3804 40.7492 20.6458L38.0913 21.0695C36.1407 21.3805 34.4247 22.5314 33.3969 24.2181V24.2181C32.4831 25.7135 31.7769 27.1673 31.7769 27.4581C31.7769 27.8319 32.3585 27.9981 33.5631 27.9981C35.4738 27.9981 38.2985 29.1196 39.2123 30.2412C39.5446 30.615 40.0431 31.8196 40.2923 32.8996C40.7492 34.6858 40.9154 34.8519 42.2031 34.9766C44.9031 35.2673 45.6508 36.9704 44.6123 40.5012C43.7815 43.1596 42.6185 43.9073 38.5062 44.4058C36.3789 44.6495 35.3864 44.7633 35.0432 45.2956C34.7431 45.7611 34.9395 46.5468 35.3077 48.0196C35.7646 49.8473 34.7677 49.4319 33.7708 47.355C32.94 45.6104 32.94 45.4442 33.5631 44.4889C34.1446 43.6166 34.6431 43.4089 37.26 43.1596C41.8292 42.7442 42.4523 42.4119 43.2831 39.795C44.1138 37.1781 43.6569 36.3058 41.5385 36.3058C39.9185 36.3058 39.4615 35.8073 39.0877 33.7304C38.6308 31.1135 37.3015 30.0335 34.2277 29.5766C31.86 29.2442 31.4862 29.2858 30.9462 29.9919C29.6585 31.5704 27.2077 32.3181 27.2077 31.155C27.2077 30.8227 27.6646 30.4489 28.2462 30.3242C28.7862 30.1996 29.4092 29.7427 29.6169 29.3273C30.1154 28.3719 30.5723 24.2596 30.1985 24.2596C29.4923 24.2596 25.5046 28.7873 24.0923 31.1135C21.8492 34.8519 20.9354 38.2581 20.6446 43.9489C20.4369 47.6042 20.1877 48.975 19.7723 49.0996C19.3154 49.2658 19.2323 48.3104 19.3985 43.7412C19.6062 37.2612 20.5615 33.8965 23.5108 29.4104C25.3385 26.5858 29.8246 22.1827 30.8631 22.1827C31.1538 22.1827 31.5277 22.5566 31.6523 23.055C31.86 23.8442 31.9431 23.8442 32.6492 22.7642V22.7642C33.0287 22.1616 32.8097 21.3632 32.1758 21.0385L31.6523 20.7704C29.9492 19.8981 28.8692 18.6935 29.3677 18.2366C29.5338 18.0704 30.3646 18.4442 31.2369 19.0258C33.1477 20.355 34.0615 20.355 41.0815 19.2335C45.36 18.5689 46.6892 18.195 47.2708 17.5304C48.4338 16.1181 48.1431 15.6196 45.6508 14.8719C43.74 14.3319 43.2 13.9996 42.8677 13.0027C42.4523 11.9642 42.2031 11.7981 40.7077 11.7981C39.2123 11.7981 38.8385 11.5904 37.2185 9.67963C36.2215 8.51655 34.7677 7.2704 34.02 6.97963C32.1508 6.1904 30.5308 6.23194 30.5308 7.02117C30.5308 7.72732 29.4923 7.85194 29.0769 7.22886C28.9523 6.97963 28.2462 6.81348 27.4985 6.81348C26.3354 6.81348 25.38 7.60271 20.2708 12.7119C15.12 17.8627 14.3308 18.8181 14.3308 19.9812C14.3308 21.8504 14.7046 22.5566 16.0338 23.2212C19.8138 25.1735 23.4692 22.6812 26.2938 16.2427C27.1246 14.3735 27.7477 13.875 28.2462 14.6642C28.5369 15.2042 25.3385 21.2689 23.9677 22.7227C22.0569 24.7581 20.7277 25.215 17.5708 25.0073L17.3809 24.9934C15.7398 24.8727 14.1508 25.5986 13.1677 26.9181V26.9181C11.0492 29.7427 8.80615 33.5227 7.22769 36.8873C6.06462 39.3796 5.19231 40.0858 5.19231 38.5489C5.19231 37.095 10.0938 28.455 13.1262 24.6335C13.9569 23.595 13.9569 23.4704 13.2923 22.1827C11.9215 19.5658 12.5446 18.4442 18.8169 12.0473ZM45.5262 13.4181C47.52 14.1242 48.06 13.9996 47.8938 12.9196C47.8108 12.1719 47.4785 11.9642 46.0246 11.8812C43.8231 11.715 43.5323 12.7119 45.5262 13.4181Z" fill="#D9D9D9"/>
<path d="M25.7538 5.73347L25.3731 4.8088L25.3393 4.82271L25.3066 4.83905L25.7538 5.73347ZM18.8169 12.0473L18.1098 11.3402L18.1029 11.3472L18.8169 12.0473ZM30.1154 5.19347L30.1154 6.19353L30.126 6.19342L30.1154 5.19347ZM40.7492 20.6458L40.5952 19.6577L40.5918 19.6583L40.7492 20.6458ZM39.2123 30.2412L38.4371 30.8728L38.4506 30.8895L38.4649 30.9055L39.2123 30.2412ZM40.2923 32.8996L39.3179 33.1245L39.3206 33.136L39.3235 33.1475L40.2923 32.8996ZM42.2031 34.9766L42.3102 33.9822L42.2994 33.9812L42.2031 34.9766ZM44.6123 40.5012L45.5668 40.7994L45.5693 40.7914L45.5717 40.7833L44.6123 40.5012ZM38.5062 44.4058L38.62 45.3993L38.6265 45.3985L38.5062 44.4058ZM35.0432 45.2956L34.2027 44.7537L34.2027 44.7537L35.0432 45.2956ZM35.3077 48.0196L34.3375 48.2622L34.3375 48.2622L35.3077 48.0196ZM33.7708 47.355L32.8679 47.7849L32.8692 47.7877L33.7708 47.355ZM33.5631 44.4889L32.731 43.9341L32.7255 43.9426L33.5631 44.4889ZM37.26 43.1596L37.1695 42.1637L37.1652 42.1641L37.26 43.1596ZM43.2831 39.795L44.2362 40.0976L44.2362 40.0976L43.2831 39.795ZM39.0877 33.7304L38.1026 33.9024L38.1035 33.9076L39.0877 33.7304ZM34.2277 29.5766L34.3747 28.5874L34.3667 28.5863L34.2277 29.5766ZM30.9462 29.9919L31.721 30.6241L31.731 30.6119L31.7405 30.5994L30.9462 29.9919ZM28.2462 30.3242L28.4557 31.302L28.4634 31.3004L28.471 31.2986L28.2462 30.3242ZM29.6169 29.3273L28.7303 28.8648L28.7264 28.8724L28.7225 28.8801L29.6169 29.3273ZM24.0923 31.1135L23.2375 30.5945L23.2348 30.599L24.0923 31.1135ZM20.6446 43.9489L21.643 44.0056L21.6433 43.9999L20.6446 43.9489ZM19.7723 49.0996L19.485 48.1418L19.4575 48.15L19.4306 48.1598L19.7723 49.0996ZM19.3985 43.7412L20.3978 43.7775L20.3979 43.7732L19.3985 43.7412ZM23.5108 29.4104L24.3464 29.9597L24.3503 29.9536L23.5108 29.4104ZM31.6523 23.055L30.6821 23.2976L30.6852 23.3095L31.6523 23.055ZM31.6523 20.7704L32.1082 19.8804L32.1082 19.8804L31.6523 20.7704ZM29.3677 18.2366L30.0434 18.9737L30.0594 18.959L30.0748 18.9437L29.3677 18.2366ZM31.2369 19.0258L31.808 18.2049L31.7999 18.1992L31.7916 18.1937L31.2369 19.0258ZM41.0815 19.2335L40.928 18.2453L40.9238 18.246L41.0815 19.2335ZM47.2708 17.5304L48.0233 18.1889L48.0332 18.1777L48.0427 18.1661L47.2708 17.5304ZM45.6508 14.8719L45.9381 13.9141L45.9304 13.9118L45.9227 13.9096L45.6508 14.8719ZM42.8677 13.0027L43.8164 12.6865L43.8071 12.6586L43.7962 12.6313L42.8677 13.0027ZM37.2185 9.67963L37.9812 9.03293L37.9777 9.02884L37.2185 9.67963ZM34.02 6.97963L33.631 7.90088L33.6442 7.90645L33.6576 7.91163L34.02 6.97963ZM29.0769 7.22886L28.1825 7.67608L28.2103 7.73176L28.2449 7.78356L29.0769 7.22886ZM20.2708 12.7119L20.9779 13.419L20.9779 13.419L20.2708 12.7119ZM16.0338 23.2212L16.4928 22.3326L16.4811 22.3267L16.0338 23.2212ZM26.2938 16.2427L25.38 15.8366L25.3781 15.841L26.2938 16.2427ZM28.2462 14.6642L29.1266 14.1901L29.1102 14.1596L29.0916 14.1303L28.2462 14.6642ZM23.9677 22.7227L23.2401 22.0367L23.2386 22.0383L23.9677 22.7227ZM17.5708 25.0073L17.4974 26.0047L17.5051 26.0052L17.5708 25.0073ZM7.22769 36.8873L6.32237 36.4626L6.32151 36.4644L7.22769 36.8873ZM13.1262 24.6335L12.3453 24.0088L12.3428 24.0119L13.1262 24.6335ZM13.2923 22.1827L14.1809 21.7241L14.1781 21.7187L13.2923 22.1827ZM47.8938 12.9196L46.9 13.0301L46.9023 13.0509L46.9055 13.0717L47.8938 12.9196ZM46.0246 11.8812L45.9494 12.8783L45.9585 12.879L45.9676 12.8795L46.0246 11.8812ZM38.0913 21.0695L37.9338 20.082L38.0913 21.0695ZM32.1758 21.0385L31.7199 21.9286L32.1758 21.0385ZM45.1502 19.9703L45.2981 20.9593L45.1502 19.9703ZM17.3809 24.9934L17.4542 23.9961L17.3809 24.9934ZM25.3066 4.83905C25.0183 4.98323 24.6087 5.30334 24.1949 5.64673C23.7441 6.0208 23.1816 6.51464 22.5473 7.09123C21.2776 8.24557 19.698 9.75207 18.1098 11.3402L19.524 12.7544C21.0928 11.1857 22.6494 9.70138 23.8927 8.57111C24.515 8.00539 25.0532 7.53345 25.4721 7.1858C25.682 7.01165 25.8556 6.87393 25.9911 6.77321C26.1403 6.66226 26.2021 6.62739 26.2011 6.6279L25.3066 4.83905ZM30.1154 4.19347C29.2196 4.19347 28.2643 4.25872 27.4367 4.36216C26.6429 4.46138 25.8608 4.60799 25.3731 4.8088L26.1346 6.65815C26.3531 6.56819 26.9001 6.4448 27.6848 6.34671C28.4357 6.25285 29.3081 6.19347 30.1154 6.19347V4.19347ZM38.9866 8.0046C37.8405 6.61607 36.6701 5.62208 35.2117 5.00047C33.766 4.38425 32.1254 4.17203 30.1047 4.19353L30.126 6.19342C32.0099 6.17338 33.3394 6.37654 34.4275 6.84032C35.503 7.29871 36.4303 8.04934 37.4442 9.27773L38.9866 8.0046ZM43.8231 9.55194H42.2045V11.5519H43.8231V9.55194ZM50.2231 14.7473C50.2231 13.7668 50.2102 12.916 50.088 12.2333C49.9607 11.5221 49.691 10.85 49.0694 10.3655C48.4905 9.91436 47.745 9.73974 46.9485 9.65262C46.1374 9.56391 45.1011 9.55194 43.8231 9.55194V11.5519C45.1205 11.5519 46.0468 11.5659 46.7311 11.6408C47.43 11.7172 47.7126 11.8437 47.8399 11.943C47.9244 12.0088 48.0389 12.1364 48.1193 12.5857C48.2048 13.0635 48.2231 13.734 48.2231 14.7473H50.2231ZM48.8751 19.3753C49.4022 18.8721 49.8026 18.376 50.0134 17.5781C50.1978 16.8799 50.2231 15.9874 50.2231 14.7473H48.2231C48.2231 16.0411 48.186 16.6648 48.0797 17.0673C47.9997 17.3701 47.8809 17.5594 47.4941 17.9286L48.8751 19.3753ZM40.9032 21.6339C42.6056 21.3686 44.1769 21.127 45.2981 20.9593L45.0023 18.9813C43.8752 19.1499 42.2992 19.3922 40.5952 19.6577L40.9032 21.6339ZM38.2487 22.057L40.9067 21.6333L40.5918 19.6583L37.9338 20.082L38.2487 22.057ZM32.7769 27.4581C32.7769 27.5764 32.7502 27.6398 32.7671 27.5834C32.7764 27.5524 32.7957 27.4965 32.8296 27.4119C32.8968 27.2444 33.0013 27.0141 33.1402 26.7339C33.4168 26.1759 33.8072 25.4644 34.2502 24.7395L32.5436 23.6966C32.0728 24.4672 31.6532 25.2303 31.3482 25.8458C31.1963 26.1523 31.0672 26.4334 30.9735 26.667C30.9269 26.783 30.8839 26.9001 30.851 27.0101C30.8257 27.0946 30.7769 27.2671 30.7769 27.4581H32.7769ZM33.5631 26.9981C32.9795 26.9981 32.6542 26.9548 32.5041 26.91C32.4301 26.8879 32.4831 26.8893 32.5673 26.9676C32.6153 27.0122 32.6721 27.0808 32.7153 27.1762C32.7591 27.2731 32.7769 27.3712 32.7769 27.4581H30.7769C30.7769 27.8496 30.9442 28.1895 31.2059 28.4327C31.4368 28.6473 31.7104 28.7604 31.9325 28.8266C32.3743 28.9583 32.9421 28.9981 33.5631 28.9981V26.9981ZM39.9875 29.6095C39.366 28.8467 38.2358 28.2085 37.1306 27.7696C35.9966 27.3194 34.6839 26.9981 33.5631 26.9981V28.9981C34.3531 28.9981 35.408 29.2376 36.3925 29.6285C37.4057 30.0308 38.1448 30.5141 38.4371 30.8728L39.9875 29.6095ZM41.2667 32.6748C41.129 32.0779 40.9249 31.4554 40.7092 30.9273C40.51 30.4398 40.2494 29.9027 39.9597 29.5768L38.4649 30.9055C38.4624 30.9027 38.4762 30.9183 38.5048 30.9624C38.532 31.0043 38.5654 31.0609 38.604 31.1333C38.6816 31.2786 38.7686 31.4657 38.8578 31.6838C39.0366 32.1215 39.2064 32.6414 39.3179 33.1245L41.2667 32.6748ZM42.2994 33.9812C41.9782 33.9501 41.8134 33.9229 41.7123 33.8926C41.6702 33.88 41.6568 33.8717 41.6584 33.8726C41.6591 33.8731 41.6616 33.8746 41.6649 33.8772C41.6664 33.8784 41.6676 33.8796 41.6686 33.8805C41.6696 33.8814 41.67 33.8819 41.6699 33.8818C41.6675 33.8791 41.6194 33.8255 41.5398 33.6115C41.4602 33.3976 41.3754 33.0985 41.2611 32.6518L39.3235 33.1475C39.4377 33.5939 39.545 33.9853 39.6653 34.3088C39.7856 34.6322 39.9452 34.9628 40.2024 35.2406C40.7555 35.8379 41.5115 35.9143 42.1068 35.9719L42.2994 33.9812ZM45.5717 40.7833C46.1046 38.9715 46.2691 37.367 45.726 36.1236C45.1313 34.7621 43.8503 34.1482 42.3101 33.9823L42.096 35.9708C43.2558 36.0957 43.6987 36.4787 43.8932 36.9241C44.1393 37.4876 44.1585 38.5001 43.6529 40.219L45.5717 40.7833ZM38.6265 45.3985C40.6836 45.1492 42.2099 44.8219 43.3289 44.1057C44.5219 43.3422 45.1194 42.231 45.5668 40.7994L43.6578 40.2029C43.2744 41.4298 42.875 42.0217 42.2508 42.4212C41.5524 42.8681 40.441 43.1639 38.3858 43.413L38.6265 45.3985ZM35.8837 45.8374C35.8246 45.9291 35.8004 45.8363 36.3254 45.718C36.8168 45.6073 37.5312 45.524 38.62 45.3993L38.3923 43.4123C37.3538 43.5313 36.5084 43.6267 35.8859 43.7669C35.297 43.8995 34.605 44.1297 34.2027 44.7537L35.8837 45.8374ZM36.2778 47.7771C36.0877 47.0168 35.9647 46.518 35.9163 46.1497C35.8661 45.7676 35.9339 45.7596 35.8837 45.8374L34.2027 44.7537C33.8524 45.2971 33.8683 45.9147 33.9333 46.4101C34.0002 46.9192 34.1594 47.5497 34.3375 48.2622L36.2778 47.7771ZM32.8692 47.7877C33.139 48.3497 33.4204 48.8244 33.6953 49.1915C33.9386 49.5163 34.2755 49.8938 34.6923 50.0715C34.9215 50.1692 35.3307 50.2675 35.753 50.0439C36.1642 49.8262 36.3167 49.445 36.3726 49.2134C36.4782 48.7758 36.3973 48.2549 36.2778 47.7771L34.3375 48.2622C34.3862 48.4567 34.4093 48.5975 34.4178 48.6917C34.4274 48.7961 34.4149 48.8002 34.4284 48.7444C34.4395 48.6984 34.5132 48.4373 34.8171 48.2764C35.1322 48.1096 35.4057 48.2014 35.4765 48.2316C35.5493 48.2627 35.5578 48.2854 35.5025 48.2332C35.4555 48.1887 35.3853 48.1116 35.2962 47.9926C35.1181 47.7548 34.901 47.3988 34.6723 46.9223L32.8692 47.7877ZM32.7255 43.9426C32.4291 44.397 32.0724 44.9406 32.1241 45.6943C32.1471 46.0309 32.2464 46.3541 32.368 46.6674C32.4903 46.9825 32.6614 47.3513 32.8679 47.7849L34.6736 46.9251C34.4647 46.4864 34.3243 46.1803 34.2324 45.9436C34.1399 45.7053 34.1223 45.6001 34.1194 45.5576C34.1191 45.5533 34.074 45.5361 34.4007 45.0351L32.7255 43.9426ZM37.1652 42.1641C35.8777 42.2867 34.9694 42.4079 34.3043 42.6516C33.5259 42.9368 33.1026 43.3768 32.731 43.9342L34.3951 45.0436C34.6051 44.7286 34.7218 44.6287 34.9923 44.5296C35.3759 44.389 36.0254 44.2817 37.3548 44.1551L37.1652 42.1641ZM42.33 39.4924C41.921 40.7805 41.6521 41.1705 41.1874 41.429C40.9099 41.5833 40.5001 41.7209 39.8322 41.843C39.1666 41.9646 38.3104 42.06 37.1695 42.1637L37.3505 44.1555C38.4942 44.0516 39.4293 43.9497 40.1917 43.8104C40.9516 43.6715 41.6063 43.4846 42.1596 43.1768C43.3564 42.5111 43.8144 41.4264 44.2362 40.0976L42.33 39.4924ZM41.5385 37.3058C42.0157 37.3058 42.3048 37.3573 42.4711 37.4195C42.6082 37.4709 42.6195 37.5107 42.624 37.5197C42.6446 37.5605 42.6949 37.7037 42.663 38.0553C42.6314 38.4022 42.5277 38.8694 42.33 39.4924L44.2362 40.0976C44.4538 39.4121 44.6045 38.789 44.6548 38.2363C44.7046 37.6884 44.664 37.1228 44.4095 36.6184C43.8499 35.5099 42.6265 35.3058 41.5385 35.3058V37.3058ZM38.1035 33.9076C38.2875 34.9298 38.5277 35.8587 39.1193 36.4841C39.7798 37.1824 40.6659 37.3058 41.5385 37.3058V35.3058C40.7911 35.3058 40.6387 35.18 40.5722 35.1097C40.437 34.9667 40.2617 34.6079 40.0719 33.5532L38.1035 33.9076ZM34.0807 30.5657C35.5481 30.7838 36.4297 31.1305 36.9933 31.6071C37.529 32.06 37.8988 32.7351 38.1026 33.9024L40.0728 33.5584C39.8197 32.1088 39.2964 30.9354 38.2848 30.0799C37.301 29.248 35.9811 28.8262 34.3747 28.5874L34.0807 30.5657ZM31.7405 30.5994C31.8502 30.4559 31.8949 30.4234 31.9059 30.4161C31.909 30.4141 31.913 30.4116 31.9242 30.4077C31.9373 30.4031 31.9677 30.3943 32.0256 30.3871C32.3224 30.35 32.8604 30.3945 34.0887 30.5668L34.3667 28.5863C33.2273 28.4263 32.3945 28.3254 31.7775 28.4025C31.4271 28.4463 31.1019 28.5498 30.8016 28.7487C30.5166 28.9374 30.3121 29.1749 30.1518 29.3845L31.7405 30.5994ZM26.2077 31.155C26.2077 31.4816 26.297 31.8284 26.5316 32.1246C26.7625 32.4162 27.0665 32.5733 27.3453 32.6501C27.8647 32.793 28.4293 32.699 28.889 32.5571C29.8443 32.2621 30.9482 31.5713 31.721 30.6241L30.1713 29.3598C29.6564 29.991 28.891 30.4633 28.2991 30.646C27.9851 30.743 27.8566 30.7164 27.8762 30.7218C27.9051 30.7298 28.0075 30.7668 28.0994 30.8828C28.195 31.0035 28.2077 31.1192 28.2077 31.155H26.2077ZM28.0366 29.3464C27.6074 29.4384 27.2012 29.6254 26.8815 29.883C26.5981 30.1113 26.2077 30.5441 26.2077 31.155H28.2077C28.2077 31.3029 28.1576 31.398 28.138 31.4296C28.118 31.4618 28.11 31.4616 28.1362 31.4405C28.1903 31.3969 28.3034 31.3347 28.4557 31.302L28.0366 29.3464ZM28.7225 28.8801C28.7243 28.8765 28.7093 28.9055 28.6591 28.9595C28.6114 29.0107 28.5463 29.069 28.467 29.1268C28.299 29.2493 28.1301 29.3247 28.0213 29.3499L28.471 31.2986C28.9022 31.1991 29.3149 30.9838 29.6453 30.7428C29.966 30.509 30.3098 30.1776 30.5114 29.7745L28.7225 28.8801ZM30.1985 25.2596C29.6829 25.2596 29.4386 24.8873 29.3874 24.7962C29.3529 24.7348 29.3361 24.6862 29.3294 24.6653C29.3255 24.653 29.3231 24.6439 29.3218 24.6384C29.3204 24.6329 29.3198 24.6299 29.3198 24.6298C29.3197 24.6295 29.3201 24.6313 29.3207 24.6354C29.3213 24.6395 29.3221 24.6452 29.3231 24.6528C29.3249 24.6681 29.3269 24.6888 29.3288 24.7153C29.3325 24.7688 29.335 24.8376 29.3354 24.922C29.3371 25.2677 29.3038 25.7687 29.2411 26.3228C29.179 26.8725 29.0911 27.4457 28.9912 27.9307C28.8837 28.4524 28.7834 28.7631 28.7303 28.8648L30.5035 29.7899C30.6997 29.4139 30.8434 28.8522 30.9501 28.3342C31.0644 27.7795 31.1608 27.1454 31.2285 26.5476C31.2956 25.9542 31.3376 25.3674 31.3354 24.9122C31.3343 24.694 31.3233 24.4546 31.2827 24.2466C31.2642 24.1517 31.2254 23.9844 31.1307 23.8159C31.0453 23.6641 30.7608 23.2596 30.1985 23.2596V25.2596ZM24.9471 31.6325C25.6074 30.5449 26.9116 28.8835 28.1584 27.4778C28.7779 26.7792 29.3633 26.1663 29.8263 25.7355C30.0601 25.518 30.2438 25.3646 30.3732 25.272C30.4039 25.25 30.4281 25.2339 30.4463 25.2226C30.4648 25.2111 30.4729 25.2071 30.4716 25.2078C30.4715 25.2078 30.4515 25.2179 30.4148 25.2291C30.381 25.2394 30.3044 25.2596 30.1985 25.2596V23.2596C29.9223 23.2596 29.6984 23.3591 29.5865 23.4143C29.4516 23.4809 29.3233 23.564 29.2094 23.6455C28.98 23.8096 28.7253 24.0281 28.4638 24.2714C27.9364 24.7622 27.3042 25.4266 26.662 26.1507C25.3853 27.5904 23.9895 29.3559 23.2375 30.5945L24.9471 31.6325ZM21.6433 43.9999C21.9282 38.424 22.8131 35.1892 24.9498 31.628L23.2348 30.599C20.8854 34.5147 19.9426 38.0922 19.6459 43.8978L21.6433 43.9999ZM20.0597 50.0575C20.6225 49.8886 20.8712 49.3953 20.9771 49.1424C21.1058 48.8348 21.1976 48.4499 21.2719 48.0178C21.4225 47.1418 21.539 45.8358 21.643 44.0056L19.6462 43.8921C19.5425 45.7173 19.4306 46.9244 19.3008 47.6788C19.2349 48.0619 19.1735 48.2715 19.1322 48.3702C19.068 48.5236 19.1298 48.2483 19.485 48.1418L20.0597 50.0575ZM18.3991 43.7048C18.3166 45.9756 18.2925 47.4144 18.3543 48.2683C18.3826 48.6594 18.4358 49.0904 18.605 49.4256C18.7004 49.6145 18.887 49.8823 19.2316 50.0267C19.5863 50.1754 19.913 50.1125 20.114 50.0394L19.4306 48.1598C19.5174 48.1283 19.7415 48.0719 20.0048 48.1822C20.2582 48.2884 20.3646 48.4731 20.3905 48.5244C20.4208 48.5844 20.3779 48.5222 20.3491 48.124C20.2967 47.3995 20.3142 46.076 20.3978 43.7775L18.3991 43.7048ZM22.6752 28.8611C21.1616 31.1634 20.1337 33.2184 19.4652 35.5528C18.7996 37.877 18.5041 40.4303 18.399 43.7091L20.3979 43.7732C20.5006 40.572 20.7866 38.203 21.3879 36.1034C21.9863 34.0139 22.9107 32.1436 24.3464 29.9597L22.6752 28.8611ZM30.8631 21.1827C30.4558 21.1827 30.0761 21.3706 29.8366 21.5042C29.5522 21.663 29.2418 21.8778 28.9242 22.1216C28.2858 22.6118 27.5389 23.2805 26.7821 24.024C25.2754 25.5042 23.6405 27.3691 22.6712 28.8671L24.3503 29.9536C25.2087 28.6271 26.7308 26.8781 28.1837 25.4507C28.9067 24.7403 29.5903 24.1317 30.1422 23.708C30.4197 23.4949 30.6445 23.3437 30.8113 23.2506C31.0231 23.1325 31.0107 23.1827 30.8631 23.1827V21.1827ZM32.6224 22.8125C32.5191 22.3992 32.3124 22.0297 32.0511 21.7496C31.8184 21.5004 31.4061 21.1827 30.8631 21.1827V23.1827C30.7247 23.1827 30.637 23.1402 30.6096 23.1251C30.579 23.1083 30.5751 23.0995 30.5889 23.1143C30.6012 23.1274 30.6199 23.1513 30.6386 23.1858C30.657 23.2197 30.6722 23.2579 30.6822 23.2976L32.6224 22.8125ZM31.8123 22.217C31.6342 22.4893 31.5192 22.6564 31.4403 22.7561C31.4011 22.8057 31.3919 22.8113 31.4077 22.7971C31.412 22.7932 31.5145 22.696 31.7039 22.645C31.8105 22.6163 31.9439 22.6026 32.0911 22.6288C32.2386 22.655 32.3607 22.7143 32.4534 22.7804C32.618 22.8978 32.6825 23.0308 32.6871 23.0398C32.6988 23.0628 32.695 23.0608 32.6781 23.0083C32.6627 22.9602 32.644 22.8941 32.6194 22.8005L30.6852 23.3095C30.7321 23.4875 30.8003 23.7425 30.9057 23.949C30.9583 24.0522 31.0728 24.2523 31.2923 24.4088C31.5658 24.6038 31.9045 24.6622 32.2238 24.5762C32.4807 24.507 32.6585 24.3624 32.7487 24.2809C32.8506 24.1888 32.9381 24.0864 33.0092 23.9965C33.151 23.8171 33.3112 23.5792 33.4862 23.3115L31.8123 22.217ZM31.1964 21.6604L31.7199 21.9286L32.6317 20.1485L32.1082 19.8804L31.1964 21.6604ZM28.692 17.4994C28.1969 17.9532 28.1875 18.5621 28.3178 18.9923C28.4367 19.3851 28.6872 19.7345 28.9411 20.0167C29.4649 20.5987 30.2696 21.1857 31.1964 21.6604L32.1082 19.8804C31.3319 19.4828 30.7451 19.0314 30.4277 18.6787C30.2611 18.4936 30.2286 18.4016 30.232 18.4128C30.2467 18.4614 30.2893 18.7483 30.0434 18.9737L28.692 17.4994ZM31.7916 18.1937C31.3231 17.8814 30.8429 17.6089 30.4331 17.4324C30.2342 17.3467 30.0079 17.2642 29.7851 17.2239C29.6747 17.204 29.5201 17.1858 29.348 17.2052C29.1805 17.2241 28.8996 17.2905 28.6606 17.5295L30.0748 18.9437C29.8774 19.1411 29.6587 19.1828 29.5719 19.1926C29.5223 19.1982 29.4849 19.1972 29.4646 19.1959C29.4435 19.1946 29.4312 19.1924 29.4293 19.192C29.4271 19.1916 29.4449 19.1949 29.4862 19.2087C29.5259 19.2219 29.5778 19.2416 29.6419 19.2692C29.9071 19.3834 30.2785 19.5887 30.6822 19.8578L31.7916 18.1937ZM40.9238 18.246C37.3793 18.8123 35.4978 19.0727 34.2626 19.0489C33.6735 19.0375 33.2745 18.9606 32.937 18.8374C32.5918 18.7114 32.2586 18.5184 31.808 18.2049L30.6659 19.8467C31.1706 20.1978 31.6682 20.5033 32.2512 20.7161C32.8417 20.9317 33.4682 21.0339 34.224 21.0485C35.6784 21.0766 37.7637 20.7762 41.2393 20.221L40.9238 18.246ZM46.5182 16.8719C46.4265 16.9767 46.1871 17.1719 45.2962 17.418C44.4188 17.6604 43.0696 17.9127 40.928 18.2453L41.235 20.2216C43.3719 19.8897 44.8266 19.6227 45.8288 19.3458C46.8175 19.0727 47.5335 18.7487 48.0233 18.1889L46.5182 16.8719ZM45.3634 15.8298C45.9733 16.0127 46.3973 16.1659 46.6834 16.3043C46.9909 16.4531 47.0092 16.5245 46.976 16.4697C46.8967 16.3386 46.9424 16.2205 46.9236 16.2701C46.8868 16.3674 46.775 16.5594 46.4988 16.8947L48.0427 18.1661C48.3481 17.7953 48.6361 17.3954 48.794 16.9786C48.9699 16.5141 49.0052 15.9599 48.687 15.4341C48.415 14.9847 47.9661 14.7031 47.5544 14.5039C47.1214 14.2945 46.5744 14.105 45.9381 13.9141L45.3634 15.8298ZM41.919 13.3189C42.138 13.9758 42.4713 14.5159 43.115 14.9423C43.677 15.3146 44.433 15.5669 45.3788 15.8342L45.9227 13.9096C44.9578 13.6369 44.4884 13.4531 44.2196 13.275C44.0325 13.1511 43.9297 13.0266 43.8164 12.6865L41.919 13.3189ZM40.7077 12.7981C41.0724 12.7981 41.3142 12.8088 41.4864 12.8316C41.5688 12.8425 41.6222 12.8547 41.6559 12.8646C41.6723 12.8694 41.683 12.8735 41.6894 12.8761C41.6927 12.8774 41.6949 12.8785 41.6962 12.8791C41.6975 12.8798 41.6981 12.8801 41.6982 12.8801C41.6982 12.8801 41.6978 12.8799 41.6971 12.8795C41.6964 12.879 41.6956 12.8785 41.6948 12.8779C41.693 12.8765 41.6924 12.8758 41.6932 12.8765C41.6945 12.8779 41.7061 12.8895 41.727 12.9217C41.7758 12.9967 41.8397 13.1253 41.9392 13.3741L43.7962 12.6313C43.5924 12.1219 43.3223 11.5032 42.6872 11.1418C42.12 10.8191 41.4122 10.7981 40.7077 10.7981V12.7981ZM36.4557 10.3263C37.244 11.2561 37.8456 11.9217 38.494 12.3121C39.2224 12.7507 39.9241 12.7981 40.7077 12.7981V10.7981C39.9959 10.7981 39.763 10.7416 39.5257 10.5987C39.2082 10.4076 38.813 10.014 37.9812 9.03294L36.4557 10.3263ZM33.6576 7.91163C33.8634 7.9917 34.3051 8.27837 34.8789 8.76512C35.4233 9.22687 35.9978 9.79213 36.4592 10.3304L37.9777 9.02884C37.4422 8.40404 36.7913 7.7647 36.1726 7.2399C35.5834 6.74012 34.9243 6.25833 34.3824 6.04762L33.6576 7.91163ZM31.5308 7.02117C31.5308 7.24413 31.3823 7.39762 31.3059 7.44089C31.2811 7.45494 31.3517 7.41223 31.5907 7.40834C32.0488 7.40089 32.7799 7.54151 33.631 7.90088L34.409 6.05838C33.3909 5.62852 32.3773 5.39529 31.5582 5.40861C31.1585 5.41511 30.7073 5.48143 30.3203 5.70058C29.8817 5.94895 29.5308 6.4036 29.5308 7.02117H31.5308ZM28.2449 7.78356C28.6901 8.4514 29.4502 8.70024 30.0918 8.6147C30.4206 8.57087 30.7754 8.43278 31.0601 8.15515C31.3597 7.86308 31.5308 7.46356 31.5308 7.02117H29.5308C29.5308 6.9848 29.5379 6.9319 29.5629 6.87225C29.5878 6.81279 29.6239 6.76217 29.6639 6.72315C29.741 6.64802 29.8102 6.63455 29.8274 6.63225C29.8459 6.62979 29.8791 6.6294 29.909 6.67416L28.2449 7.78356ZM27.4985 7.81348C27.8071 7.81348 28.0855 7.84864 28.2747 7.8968C28.3197 7.90825 28.3545 7.91917 28.3799 7.92836C28.4061 7.9378 28.4162 7.94327 28.4141 7.94216C28.4136 7.94189 28.3869 7.92804 28.3483 7.89447C28.3106 7.86178 28.2404 7.79191 28.1825 7.67608L29.9713 6.78164C29.8023 6.44346 29.516 6.2627 29.3516 6.17546C29.1624 6.07509 28.9572 6.00676 28.768 5.95861C28.3861 5.86139 27.9375 5.81348 27.4985 5.81348V7.81348ZM20.9779 13.419C23.5445 10.8524 25.0216 9.41836 25.9972 8.62105C26.9527 7.84016 27.2589 7.81348 27.4985 7.81348V5.81348C26.5749 5.81348 25.8219 6.18141 24.7316 7.07244C23.6614 7.94705 22.1062 9.46227 19.5637 12.0048L20.9779 13.419ZM15.3308 19.9812C15.3308 19.7425 15.3566 19.4366 16.1432 18.4752C16.9459 17.4941 18.3905 16.0065 20.9779 13.419L19.5637 12.0048C17.0003 14.5682 15.4749 16.1336 14.5953 17.2087C13.6996 18.3035 13.3308 19.0568 13.3308 19.9812H15.3308ZM16.4811 22.3267C15.9065 22.0394 15.6903 21.818 15.5688 21.5872C15.4273 21.3183 15.3308 20.8797 15.3308 19.9812H13.3308C13.3308 20.9519 13.4212 21.801 13.7989 22.5186C14.1967 23.2743 14.832 23.7383 15.5866 24.1156L16.4811 22.3267ZM25.3781 15.841C23.9983 18.986 22.4742 21.0209 20.9595 22.0518C19.5176 23.0331 18.0505 23.1372 16.4927 22.3327L15.575 24.1097C17.7972 25.2574 20.0478 25.0915 22.0848 23.7052C24.0489 22.3684 25.7647 19.9379 27.2096 16.6445L25.3781 15.841ZM29.0916 14.1303C28.9109 13.844 28.597 13.4705 28.0881 13.3444C27.5317 13.2066 27.0653 13.4374 26.7669 13.6781C26.4769 13.912 26.2351 14.2355 26.0277 14.5722C25.8132 14.9207 25.5981 15.3459 25.38 15.8366L27.2077 16.6488C27.405 16.2049 27.5793 15.8668 27.7308 15.6208C27.8895 15.363 27.9904 15.2608 28.0224 15.235C28.0458 15.216 27.8806 15.3535 27.6072 15.2857C27.3813 15.2298 27.3322 15.0899 27.4007 15.1982L29.0916 14.1303ZM24.6953 23.4087C25.1114 22.9673 25.6127 22.2418 26.1035 21.4559C26.6063 20.6509 27.1374 19.7185 27.6138 18.8187C28.089 17.9211 28.519 17.0385 28.815 16.3342C28.9615 15.9856 29.0858 15.6557 29.1643 15.378C29.2029 15.2416 29.2395 15.0866 29.2557 14.9318C29.2663 14.8299 29.298 14.5085 29.1266 14.1901L27.3657 15.1383C27.2877 14.9935 27.2717 14.869 27.2673 14.8194C27.2623 14.763 27.2661 14.7274 27.2665 14.7237C27.2671 14.7178 27.2635 14.7499 27.2397 14.8338C27.1936 14.9969 27.1051 15.2407 26.9712 15.5593C26.7064 16.1894 26.3056 17.0151 25.8462 17.8829C25.388 18.7484 24.8806 19.6386 24.4072 20.3964C23.922 21.1734 23.5093 21.7512 23.2401 22.0367L24.6953 23.4087ZM17.5051 26.0052C19.1227 26.1116 20.4096 26.0607 21.5709 25.6486C22.7505 25.23 23.6904 24.4792 24.6968 23.4071L23.2386 22.0383C22.3342 23.0016 21.6541 23.4969 20.9021 23.7637C20.132 24.037 19.1757 24.1107 17.6364 24.0095L17.5051 26.0052ZM17.3076 25.9907L17.4974 26.0046L17.6441 24.01L17.4542 23.9961L17.3076 25.9907ZM8.13302 37.312C9.6849 34.0041 11.8936 30.2836 13.9677 27.5181L12.3677 26.3181C10.2049 29.2018 7.9274 33.0413 6.32237 36.4626L8.13302 37.312ZM4.19231 38.5489C4.19231 38.7814 4.2082 39.0138 4.25391 39.2289C4.29581 39.426 4.38386 39.7132 4.6037 39.9573C4.87235 40.2556 5.26295 40.4035 5.66997 40.3458C6.00195 40.2987 6.25323 40.1283 6.40527 40.0045C6.71846 39.7495 7.00695 39.3607 7.26707 38.9444C7.54034 38.507 7.83195 37.9572 8.13388 37.3102L6.32151 36.4644C6.04189 37.0636 5.78831 37.5367 5.57091 37.8846C5.34036 38.2536 5.19269 38.4127 5.14242 38.4536C5.11273 38.4778 5.20045 38.3924 5.38932 38.3656C5.65322 38.3282 5.92116 38.4316 6.08986 38.6189C6.20975 38.752 6.22056 38.8617 6.21021 38.8131C6.20367 38.7823 6.19231 38.7006 6.19231 38.5489H4.19231ZM12.3428 24.0119C10.7803 25.981 8.76771 29.1469 7.15299 31.9845C6.34318 33.4075 5.62257 34.767 5.10119 35.8719C4.8411 36.423 4.62396 36.9247 4.46963 37.3469C4.3309 37.7265 4.19231 38.171 4.19231 38.5489H6.19231C6.19231 38.5633 6.20689 38.4198 6.34806 38.0336C6.47363 37.6901 6.6631 37.2484 6.90991 36.7254C7.40233 35.6819 8.09662 34.37 8.89124 32.9736C10.4854 30.1723 12.4397 27.1075 13.9095 25.2551L12.3428 24.0119ZM12.4037 22.6413C12.5737 22.9708 12.6726 23.1723 12.7304 23.3222C12.7847 23.4635 12.7694 23.4782 12.7721 23.4372C12.7753 23.3869 12.7949 23.3848 12.738 23.4799C12.6714 23.5912 12.5575 23.7435 12.3453 24.0088L13.907 25.2582C14.1102 25.0042 14.3078 24.7516 14.4541 24.5071C14.6101 24.2465 14.7439 23.9381 14.7679 23.5659C14.7913 23.2029 14.7033 22.8802 14.5968 22.6035C14.4935 22.3354 14.3432 22.0385 14.1809 21.7241L12.4037 22.6413ZM18.1029 11.3472C15.0043 14.5073 13.161 16.4965 12.3108 18.0532C11.8622 18.8747 11.6458 19.6482 11.6972 20.4579C11.7469 21.2421 12.0429 21.9526 12.4065 22.6467L14.1781 21.7187C13.8563 21.1043 13.7161 20.6933 13.6932 20.3313C13.6718 19.9948 13.7463 19.5974 14.0661 19.0118C14.7529 17.7543 16.3572 15.9843 19.531 12.7474L18.1029 11.3472ZM46.9055 13.0717C46.94 13.296 46.9032 13.2923 46.9405 13.1948C46.9669 13.126 47.0207 13.0369 47.1126 12.9622C47.2005 12.8907 47.2803 12.8673 47.3105 12.8609C47.3401 12.8545 47.2598 12.8746 46.9712 12.8124C46.7042 12.7549 46.343 12.6465 45.86 12.4755L45.1923 14.3607C45.7063 14.5427 46.1602 14.6836 46.55 14.7676C46.9183 14.8469 47.3364 14.9007 47.7295 14.8165C48.2034 14.7149 48.6153 14.4137 48.8082 13.9101C48.9624 13.5075 48.9308 13.0833 48.8822 12.7676L46.9055 13.0717ZM45.9676 12.8795C46.3157 12.8994 46.5624 12.9252 46.7404 12.9574C46.8274 12.9731 46.8878 12.9886 46.9287 13.0017C46.9693 13.0146 46.9832 13.0229 46.9807 13.0214C46.9585 13.0089 46.9122 12.9693 46.8842 12.9154C46.8684 12.8852 46.8855 12.8997 46.9 13.0301L48.8877 12.8092C48.8607 12.5658 48.805 12.2739 48.6582 11.9918C48.499 11.6861 48.2632 11.4492 47.9659 11.2809C47.4591 10.9941 46.7818 10.9228 46.0817 10.8828L45.9676 12.8795ZM45.86 12.4755C45.648 12.4004 45.4805 12.3263 45.3526 12.2587C45.2227 12.1899 45.147 12.1347 45.1094 12.102C45.0673 12.0654 45.0986 12.0797 45.1348 12.1578C45.1777 12.2506 45.2187 12.4215 45.1569 12.6199C45.0987 12.8066 44.986 12.9003 44.9476 12.9272C44.9121 12.952 44.9153 12.9394 44.9941 12.9185C45.153 12.8763 45.462 12.8416 45.9494 12.8783L46.0999 10.884C45.4865 10.8377 44.9336 10.8653 44.4811 10.9854C44.0983 11.087 43.4583 11.3478 43.2474 12.0251C43.015 12.7711 43.489 13.3434 43.7972 13.6113C44.1482 13.9165 44.634 14.163 45.1923 14.3607L45.86 12.4755ZM37.4362 9.26792C38.5977 10.712 40.3512 11.5519 42.2045 11.5519V9.55194C40.9569 9.55194 39.7765 8.98654 38.9946 8.01441L37.4362 9.26792ZM37.9338 20.082C35.6939 20.4391 33.7233 21.7608 32.543 23.6977L34.2509 24.7385C35.1262 23.302 36.5876 22.3219 38.2487 22.057L37.9338 20.082ZM27 55C42.464 55 55 42.464 55 27H53C53 41.3594 41.3594 53 27 53V55ZM-1 27C-1 42.464 11.536 55 27 55V53C12.6406 53 1 41.3594 1 27H-1ZM33.4955 23.2971C34.1878 22.1975 33.7882 20.7408 32.6317 20.1485L31.7199 21.9286C31.8312 21.9855 31.8696 22.1257 31.803 22.2314L33.4955 23.2971ZM47.4518 17.9715C46.9182 18.5462 46.0904 18.8186 45.0023 18.9813L45.2981 20.9593C46.4724 20.7837 47.8945 20.434 48.9174 19.3324L47.4518 17.9715ZM27 1C41.3594 1 53 12.6406 53 27H55C55 11.536 42.464 -1 27 -1V1ZM17.4542 23.9961C15.4723 23.8503 13.5532 24.727 12.3658 26.3206L13.9696 27.5156C14.7485 26.4702 16.0074 25.8951 17.3076 25.9907L17.4542 23.9961ZM27 -1C11.536 -1 -1 11.536 -1 27H1C1 12.6406 12.6406 1 27 1V-1Z" fill="black" mask="url(#path-1-inside-1_182_54)"/>
</svg>
