<svg width="389" height="87" viewBox="0 0 389 87" fill="none" xmlns="http://www.w3.org/2000/svg">
<path d="M42.201 0.842451C39.1892 1.57505 38.0496 2.47045 28.363 12.0757C16.7228 23.5531 15.1762 25.6695 15.1762 29.6581C15.1762 31.5303 15.6646 33.7281 16.2344 34.6235C17.2926 35.9259 16.8856 36.7399 13.0598 41.8681C7.76879 48.9499 -0.615411 64.7415 0.0357892 66.4509C0.768389 68.3231 1.82659 67.1835 4.10579 62.2181C7.03619 55.8689 13.711 44.9613 16.967 41.3797C19.5718 38.3679 19.7346 38.3679 22.9092 39.1819C27.6304 40.4843 32.6772 38.9377 36.503 34.9491C40.4916 30.7163 45.9454 19.8901 44.643 18.5877C43.5034 17.4481 43.5848 17.2853 40.573 23.7159C39.1078 26.6463 36.5844 30.6349 34.875 32.5885C32.1888 35.6817 31.3748 36.0887 27.549 36.4957C22.5836 36.9027 19.8974 35.8445 18.5136 32.8327C16.4786 28.3557 17.1298 27.2161 28.77 15.4131C34.875 9.14525 40.8172 3.85425 41.9568 3.52865C43.1778 3.20305 44.8872 3.52865 46.3524 4.34265C48.8758 5.80785 50.5852 5.48225 49.8526 3.61005C49.527 2.87745 50.0154 2.47045 51.2364 2.47045C54.6552 2.55185 59.702 5.56365 63.2836 9.71505C66.5396 13.4595 67.1908 13.8665 70.284 13.8665C73.2144 13.8665 73.7028 14.1107 73.947 15.6573C74.1098 17.1225 75.2494 17.8551 78.9124 19.1575C82.6568 20.4599 83.5522 21.1111 83.5522 22.4949C83.5522 23.4717 83.0638 24.6113 82.494 25.0997C81.273 26.1579 62.0626 29.4953 57.26 29.4953C55.225 29.5767 53.19 28.8441 51.2364 27.4603C49.2828 26.0765 47.899 25.5881 47.4106 26.0765C46.3524 27.1347 48.1432 29.0883 51.969 31.0419L55.0622 32.5885L53.6784 34.7863C52.5388 36.4957 52.1318 36.6585 51.969 35.6817C51.3992 32.6699 49.2014 33.4839 43.9104 38.4493C32.6772 49.2755 28.2002 59.7761 27.7118 76.3003C27.4676 84.3589 27.6304 86.3125 28.5258 86.3125C30.2352 86.3125 30.6422 84.3589 30.6422 75.8119C30.6422 71.3349 31.212 65.8811 31.8632 63.1949C33.8168 55.8689 38.4566 47.6475 43.9918 42.1123L48.9572 37.0655L49.2014 40.9727C49.527 45.5311 47.9804 48.5429 44.8058 49.6825C43.6662 50.1709 43.015 50.8221 43.2592 51.3105C44.1546 52.8571 47.0036 52.1245 49.3642 49.8453C51.4806 47.7289 51.8876 47.5661 56.5274 48.0545C62.4696 48.6243 65.4 50.8221 66.0512 55.2991C66.7838 59.6947 67.5164 60.6715 70.9352 61.0785C74.761 61.5669 75.8192 63.1135 75.0866 67.1021C74.1098 72.2303 71.8306 73.7769 64.3418 74.5095C55.3064 75.3235 53.19 77.8469 56.2832 83.8705C58.5624 88.3475 60.7602 86.3939 58.5624 81.8355C56.853 78.2539 57.667 77.4399 62.7952 77.3585C68.0862 77.2771 73.0516 76.0561 74.6796 74.3467C75.575 73.5327 76.8774 70.6837 77.61 68.1603C78.9124 63.6019 78.831 63.3577 77.2844 61.2413C76.1448 59.6947 74.6796 58.8807 72.4818 58.6365C69.5514 58.2295 69.3072 57.9853 68.8188 55.2177C67.842 48.9499 64.3418 46.1823 56.446 45.2055C51.0736 44.5543 51.0736 44.6357 55.3064 37.5539C56.7716 35.1933 58.6438 32.9141 59.5392 32.5885C60.4346 32.1815 65.4 31.2861 70.5282 30.5535C81.1916 29.0069 84.122 28.1115 85.1802 25.9951C85.6686 25.1811 85.9942 21.7623 85.9942 18.4249C85.9942 10.8547 85.6686 10.6105 75.2494 10.6105H67.5978L64.6674 7.02885C59.3764 0.761051 51.562 -1.35535 42.201 0.842451ZM83.5522 15.8201V17.8551L79.8892 16.5527C77.8542 15.9015 76.2262 15.0061 76.2262 14.5991C76.2262 14.1921 77.8542 13.8665 79.8892 13.8665C83.2266 13.8665 83.5522 14.0293 83.5522 15.8201Z" fill="black"/>
<path d="M54.818 11.1802C53.597 12.3198 54.2482 14.6804 55.7948 14.6804C57.9112 14.6804 58.7252 13.2966 57.5042 11.8314C56.3646 10.529 55.632 10.2848 54.818 11.1802Z" fill="black"/>
<path d="M316.356 41.9494V53.7524H319.612H322.868V41.9494V30.1464H319.612H316.356V41.9494Z" fill="black"/>
<path d="M82.7382 31.693C82.7382 32.1 83.8778 37.2282 85.2616 43.089L87.785 53.7524H91.6922H95.5994L97.146 46.9962L98.6926 40.3214L100.158 46.9962L101.623 53.7524H105.53H109.437L111.961 43.089C113.345 37.2282 114.484 32.1 114.484 31.693C114.484 30.5534 107.972 30.7976 107.565 31.9372C107.402 32.507 106.751 35.356 106.181 38.2864L105.042 43.5774L103.577 37.2282L102.111 30.879L98.774 31.1232L95.3552 31.3674L94.0528 37.4724C92.7504 43.7402 92.3434 43.7402 91.2038 37.0654C90.3084 31.8558 89.5758 30.9604 85.9942 30.9604C84.2034 30.9604 82.7382 31.286 82.7382 31.693Z" fill="black"/>
<path d="M181.069 31.4488C180.662 31.7744 180.418 36.9026 180.418 42.9262V53.7524H184.081H187.744V50.0894V46.4264H191.814C197.349 46.4264 199.954 43.9844 199.954 38.8562C199.954 33.2396 197.675 31.693 188.802 31.2046C184.895 30.9604 181.395 31.0418 181.069 31.4488ZM192.221 39.1004C192.221 40.7284 191.733 41.2168 190.023 41.3796C187.988 41.6238 187.744 41.3796 187.744 39.1004C187.744 36.8212 187.988 36.577 190.023 36.8212C191.733 36.984 192.221 37.4724 192.221 39.1004Z" fill="black"/>
<path d="M227.63 33.728C227.142 35.356 226.165 36.6584 225.514 36.6584C224.863 36.6584 224.374 37.4724 224.374 38.6934C224.374 39.9958 224.863 40.7284 225.595 40.7284C226.572 40.7284 226.816 41.868 226.816 46.2636C226.816 49.5196 227.223 52.2058 227.793 52.7756C228.363 53.3454 230.561 53.7524 232.677 53.7524C236.34 53.7524 236.584 53.5896 236.584 51.7174C236.584 50.2522 236.177 49.6824 234.956 49.6824C233.491 49.6824 233.328 49.1126 233.328 45.2054C233.328 41.2982 233.491 40.7284 234.956 40.7284C236.177 40.7284 236.584 40.1586 236.584 38.6934C236.584 37.2282 236.177 36.6584 235.038 36.6584C233.817 36.6584 233.328 36.0072 233.165 33.9722C233.003 31.8558 232.514 31.286 230.723 31.1232C228.933 30.879 228.444 31.286 227.63 33.728Z" fill="black"/>
<path d="M271.423 31.4488C271.016 31.7744 270.772 36.9026 270.772 42.9262V53.7524H274.435H278.098V50.0894V46.4264H282.168C287.703 46.4264 290.308 43.9844 290.308 38.8562C290.308 33.2396 288.029 31.693 279.156 31.2046C275.249 30.9604 271.749 31.0418 271.423 31.4488ZM282.575 39.1004C282.575 40.7284 282.087 41.2168 280.377 41.3796C278.342 41.6238 278.098 41.3796 278.098 39.1004C278.098 36.8212 278.342 36.577 280.377 36.8212C282.087 36.984 282.575 37.4724 282.575 39.1004Z" fill="black"/>
<path d="M122.706 36.6584C118.229 37.7166 116.519 40.0772 116.519 45.2868C116.519 49.2754 116.845 50.0894 118.798 51.7988C120.589 53.264 122.054 53.7524 125.148 53.7524C130.601 53.7524 133.613 52.043 134.834 48.38C137.358 40.7284 131.253 34.7862 122.706 36.6584ZM128.241 41.868C129.625 43.496 129.055 48.1358 127.345 49.194C124.334 51.0662 121.81 47.3218 122.95 42.682C123.52 40.4028 126.694 39.9958 128.241 41.868Z" fill="black"/>
<path d="M209.152 36.7398C203.047 38.5306 201.012 46.8334 205.571 51.3918C207.687 53.5082 208.583 53.7524 212.815 53.7524C218.106 53.7524 221.932 51.7174 221.932 48.787C221.932 47.566 221.362 47.2404 219.165 47.2404C217.455 47.2404 216.234 47.7288 215.909 48.5428C215.257 50.3336 210.211 49.7638 209.885 47.8102C209.641 46.5892 210.373 46.4264 215.746 46.4264H221.932V43.5774C221.932 40.3214 219.002 36.6584 216.478 36.6584C215.664 36.6584 214.281 36.4956 213.385 36.3328C212.49 36.0886 210.618 36.3328 209.152 36.7398ZM215.257 42.1122C215.42 42.8448 214.606 43.1704 212.653 43.1704C209.885 43.1704 209.071 42.5192 210.292 41.2168C211.187 40.3214 214.85 41.054 215.257 42.1122Z" fill="black"/>
<path d="M243.91 36.9026C242.364 37.4724 240.573 38.8562 239.922 39.9958C237.968 43.4146 240.166 46.0194 245.945 47.2404C248.794 47.8102 250.422 48.5428 250.178 49.1126C249.69 50.5778 246.759 50.7406 245.538 49.2754C244.236 47.6474 239.026 47.6474 239.026 49.194C239.026 51.7174 243.096 53.7524 247.98 53.7524C258.237 53.7524 259.946 45.3682 250.178 42.9262C246.434 41.9494 244.968 40.0772 248.387 40.5656C255.388 41.6238 256.12 41.6238 256.12 40.8098C256.12 39.426 253.027 36.6584 251.48 36.6584C250.666 36.6584 249.283 36.4956 248.387 36.2514C247.492 36.0886 245.457 36.3328 243.91 36.9026Z" fill="black"/>
<path d="M298.448 36.6584C295.843 37.3096 293.564 39.2632 293.564 40.9726C293.564 41.3796 296.006 41.5424 299.018 41.3796C305.693 41.054 307.077 42.682 300.727 43.4146C298.204 43.7402 295.843 44.5542 294.948 45.531C293.157 47.3218 292.913 50.7406 294.378 52.5314C295.518 53.9152 301.786 54.1594 304.146 52.9384C305.204 52.3686 305.856 52.3686 306.181 52.9384C306.425 53.3454 308.298 53.7524 310.333 53.7524C313.589 53.7524 313.914 53.5896 313.914 51.7174C313.914 50.415 313.426 49.6824 312.693 49.6824C311.716 49.6824 311.472 48.6242 311.472 44.9612C311.472 39.2632 310.414 37.6352 306.181 36.6584C302.437 35.763 302.274 35.763 298.448 36.6584ZM304.797 47.8102C304.472 49.3568 302.355 50.0894 300.32 49.3568C298.448 48.6242 300.565 46.4264 303.088 46.4264C304.553 46.4264 305.042 46.8334 304.797 47.8102Z" fill="black"/>
<path d="M331.008 36.6584C328.403 37.3096 326.124 39.2632 326.124 40.9726C326.124 41.3796 328.566 41.5424 331.578 41.3796C338.253 41.054 339.637 42.682 333.287 43.4146C330.764 43.7402 328.403 44.5542 327.508 45.531C325.717 47.3218 325.473 50.7406 326.938 52.5314C328.078 53.9152 334.346 54.1594 336.706 52.9384C337.764 52.3686 338.416 52.3686 338.741 52.9384C338.985 53.3454 340.858 53.7524 342.893 53.7524C346.149 53.7524 346.474 53.5896 346.474 51.7174C346.474 50.415 345.986 49.6824 345.253 49.6824C344.276 49.6824 344.032 48.6242 344.032 44.9612C344.032 39.2632 342.974 37.6352 338.741 36.6584C334.997 35.763 334.834 35.763 331.008 36.6584ZM337.357 47.8102C337.032 49.3568 334.915 50.0894 332.88 49.3568C331.008 48.6242 333.125 46.4264 335.648 46.4264C337.113 46.4264 337.602 46.8334 337.357 47.8102Z" fill="black"/>
<path d="M354.451 36.4142C351.44 36.9026 348.102 40.24 348.021 42.9262C347.695 50.9848 350.137 53.7524 357.463 53.7524C361.94 53.7524 364.789 52.5314 365.929 49.9266C367.313 46.9148 367.068 46.4264 363.975 46.4264C362.022 46.4264 360.963 46.9148 360.312 48.0544C358.033 52.3686 352.579 48.1358 354.289 43.3332C355.184 40.7284 359.173 39.7516 359.987 41.868C360.312 42.7634 361.533 43.1704 363.731 43.1704C366.417 43.1704 366.906 42.9262 366.499 41.868C366.254 41.1354 366.01 40.3214 366.01 39.9144C366.01 37.8794 359.01 35.763 354.451 36.4142Z" fill="black"/>
<path d="M375.86 36.6584C371.383 37.7166 369.673 40.0772 369.673 45.2868C369.673 49.2754 369.999 50.0894 371.952 51.7988C373.825 53.4268 375.127 53.7524 379.278 53.7524C382.046 53.7524 384.895 53.264 385.628 52.6942C387.337 51.3918 388.884 48.38 388.232 47.7288C387.174 46.6706 382.453 47.2404 381.965 48.5428C381.313 50.3336 376.267 49.7638 375.941 47.8102C375.697 46.5892 376.429 46.4264 382.209 46.4264C389.535 46.4264 389.779 46.1822 387.663 41.1354C385.953 37.1468 381.476 35.4374 375.86 36.6584ZM381.802 41.9494C382.127 42.9262 381.558 43.1704 379.034 43.1704C375.941 43.1704 375.046 42.5192 376.348 41.2982C377.325 40.24 381.313 40.7284 381.802 41.9494Z" fill="black"/>
<path d="M139.718 44.9612L142.811 53.3454L146.067 53.5896C149.242 53.8338 149.242 53.8338 150.3 49.9266C151.847 44.31 152.335 44.2286 153.556 49.2754C154.614 53.7524 154.614 53.7524 157.708 53.7524C159.417 53.7524 160.964 53.4268 161.208 53.1012C161.452 52.6942 162.917 48.8684 164.464 44.5542L167.313 36.6584H164.138H160.964L159.987 41.1354C159.417 43.5774 158.684 45.6124 158.359 45.6124C158.033 45.6124 157.301 43.5774 156.731 41.1354L155.754 36.6584H152.335H148.916L147.695 41.7052L146.474 46.8334L145.009 41.7052L143.544 36.6584H140.125H136.706L139.718 44.9612Z" fill="black"/>
<path d="M56.1204 56.6829C55.8762 57.3341 56.039 58.3109 56.6088 58.8807C57.7484 60.0203 60.4346 57.6597 59.6206 56.2759C58.8066 54.9735 56.6902 55.2177 56.1204 56.6829Z" fill="black"/>
<path d="M136.462 77.7655C136.462 81.2657 136.788 83.8705 137.276 83.8705C137.765 83.8705 138.09 82.8123 138.09 81.5099C138.09 79.3935 138.416 79.1493 141.509 78.7423C145.498 78.1725 147.207 76.3817 146.312 73.8583C145.742 72.3931 144.928 72.0675 141.021 71.8233L136.462 71.5791V77.7655ZM143.625 73.2071C144.277 73.6141 144.602 74.5909 144.439 75.4049C144.277 76.5445 143.381 77.0329 141.102 77.1957C138.253 77.4399 138.09 77.3585 138.09 74.9979C138.09 72.8001 138.334 72.4745 140.369 72.4745C141.59 72.4745 143.056 72.8001 143.625 73.2071Z" fill="black"/>
<path d="M191 73.6954C191 75.5676 190.837 75.649 189.372 74.9164C187.174 73.7768 184.732 74.5908 183.186 76.9514C182.128 78.6608 182.046 79.2306 183.023 81.1842C184 83.2192 184.57 83.4634 188.395 83.5448L192.628 83.6262V77.6026C192.628 74.1838 192.303 71.6604 191.814 71.6604C191.407 71.6604 191 72.5558 191 73.6954ZM190.349 77.7654C191.489 80.3702 189.942 82.4052 187.012 82.0796C185.384 81.9168 184.814 81.347 184.651 79.4748C184.163 75.5676 188.721 74.1838 190.349 77.7654Z" fill="black"/>
<path d="M269.144 77.7655C269.144 81.2657 269.47 83.8705 269.958 83.8705C270.447 83.8705 270.772 82.6495 270.772 81.1843C270.772 77.8469 272.4 75.4863 274.517 75.8933C275.738 76.0561 276.145 76.9515 276.307 80.0447C276.47 82.1611 276.959 83.8705 277.366 83.8705C277.854 83.8705 278.098 82.0797 277.935 79.7191C277.691 74.8351 275.982 73.0443 273.214 74.7537C271.016 76.1375 270.772 76.0561 270.772 73.6955C270.772 72.5559 270.447 71.6605 269.958 71.6605C269.47 71.6605 269.144 74.2653 269.144 77.7655Z" fill="black"/>
<path d="M298.448 77.6027V83.6263L301.867 83.7077C305.774 83.8705 308.216 82.1611 308.216 79.2307C308.216 75.5677 303.414 72.7187 301.053 75.0793C300.32 75.8119 300.076 75.5677 300.076 73.8583C300.076 72.6373 299.751 71.6605 299.262 71.6605C298.774 71.6605 298.448 74.1839 298.448 77.6027ZM305.774 76.9515C306.344 77.6841 306.588 78.9865 306.263 80.2075C305.774 81.9983 305.367 82.3239 303.088 82.0797C301.053 81.9169 300.402 81.4285 300.239 79.9633C299.669 76.3817 303.576 74.2653 305.774 76.9515Z" fill="black"/>
<path d="M160.882 73.6954C160.882 74.3466 160.394 74.9164 159.905 74.9164C159.091 74.9164 159.091 75.0792 159.824 75.5676C160.312 75.8932 160.882 77.8468 161.045 79.8004C161.208 82.8936 161.615 83.5448 163.161 83.7076C164.138 83.8704 164.952 83.6262 164.952 83.1378C164.952 82.6494 164.382 82.2424 163.731 82.2424C162.836 82.2424 162.51 81.347 162.51 78.9864C162.51 76.6258 162.836 75.7304 163.731 75.7304C164.708 75.7304 164.627 75.4048 163.324 74.1024C161.371 72.1488 160.882 72.0674 160.882 73.6954Z" fill="black"/>
<path d="M263.446 73.6954C263.446 74.3466 262.958 74.9164 262.469 74.9164C261.655 74.9164 261.655 75.0792 262.388 75.5676C262.876 75.8932 263.446 77.8468 263.609 79.8004C263.772 82.8936 264.179 83.5448 265.725 83.7076C266.702 83.8704 267.516 83.6262 267.516 83.1378C267.516 82.6494 266.946 82.2424 266.295 82.2424C265.4 82.2424 265.074 81.347 265.074 78.9864C265.074 76.6258 265.4 75.7304 266.295 75.7304C267.272 75.7304 267.191 75.4048 265.888 74.1024C263.935 72.1488 263.446 72.0674 263.446 73.6954Z" fill="black"/>
<path d="M332.473 74.1025C331.334 75.3235 331.334 75.6491 332.311 76.0561C333.043 76.3817 333.45 77.7655 333.45 80.2075C333.45 83.3007 333.694 83.8705 335.078 83.8705C335.974 83.8705 336.706 83.4635 336.706 83.0565C336.706 82.5681 336.381 82.2425 335.892 82.2425C334.671 82.2425 334.915 75.9747 336.136 75.4863C336.95 75.1607 336.95 74.9979 336.136 74.9979C335.567 74.9165 335.078 74.3467 335.078 73.6955C335.078 72.0675 334.183 72.2303 332.473 74.1025Z" fill="black"/>
<path d="M149.812 76.1374C147.777 78.2538 147.695 80.3702 149.649 82.8122C150.789 84.2774 155.591 84.1146 156.812 82.6494C158.115 81.0214 157.219 80.0446 155.673 81.347C154.207 82.568 150.951 82.2424 150.463 80.7772C150.3 80.126 151.358 79.8004 154.289 79.8004C158.929 79.8004 159.661 78.5794 156.812 75.7304C154.614 73.5326 152.254 73.6954 149.812 76.1374ZM155.835 77.1142C155.998 77.8468 155.184 78.1724 153.231 78.1724C151.603 78.1724 150.3 77.8468 150.3 77.4398C150.3 75.649 155.184 75.4048 155.835 77.1142Z" fill="black"/>
<path d="M168.045 74.9978C165.766 76.3002 166.255 78.905 168.859 79.4748C172.441 80.2074 173.092 80.533 173.092 81.347C173.092 82.8122 170.406 83.0564 168.452 81.754C166.58 80.533 166.417 80.6144 166.743 81.9982C167.15 84.196 173.499 84.5216 174.639 82.4866C175.697 80.3702 174.883 79.312 171.546 78.4166C169.999 78.0096 168.615 77.277 168.371 76.7072C167.964 75.4048 171.627 75.4048 172.929 76.7072C173.418 77.1956 174.15 77.3584 174.476 77.0328C175.29 76.3002 172.441 74.1024 170.732 74.1024C169.999 74.1024 168.778 74.5094 168.045 74.9978Z" fill="black"/>
<path d="M195.884 75.7305C192.547 79.0679 194.826 83.8705 199.71 83.8705C201.094 83.8705 202.64 83.3007 203.21 82.6495C204.513 81.1029 203.617 79.8819 202.233 81.2657C200.85 82.6495 197.919 82.4867 196.698 81.0215C195.803 79.9633 196.21 79.8005 199.873 79.8005C203.454 79.8005 204.024 79.5563 204.024 78.2539C204.024 76.4631 201.175 74.1025 198.977 74.1025C198.163 74.1025 196.78 74.8351 195.884 75.7305ZM201.094 76.2189C203.373 77.1143 202.478 78.1725 199.547 78.1725C196.861 78.1725 196.047 77.5213 197.268 76.3003C197.919 75.5677 199.466 75.5677 201.094 76.2189Z" fill="black"/>
<path d="M207.931 74.9978C205.652 76.3002 206.141 78.905 208.745 79.4748C212.327 80.2074 212.978 80.533 212.978 81.347C212.978 82.8122 210.292 83.0564 208.338 81.754C206.466 80.533 206.303 80.6144 206.629 81.9982C207.036 84.196 213.385 84.5216 214.525 82.4866C215.583 80.3702 214.769 79.312 211.432 78.4166C209.885 78.0096 208.501 77.277 208.257 76.7072C207.85 75.4048 211.513 75.4048 212.815 76.7072C213.304 77.1956 214.036 77.3584 214.362 77.0328C215.176 76.3002 212.327 74.1024 210.618 74.1024C209.885 74.1024 208.664 74.5094 207.931 74.9978Z" fill="black"/>
<path d="M217.862 75.7305C214.525 79.0679 216.804 83.8705 221.688 83.8705C223.072 83.8705 224.618 83.3007 225.188 82.6495C226.491 81.1029 225.595 79.8819 224.211 81.2657C222.828 82.6495 219.897 82.4867 218.676 81.0215C217.781 79.9633 218.188 79.8005 221.851 79.8005C225.432 79.8005 226.002 79.5563 226.002 78.2539C226.002 76.4631 223.153 74.1025 220.955 74.1025C220.141 74.1025 218.758 74.8351 217.862 75.7305ZM223.072 76.2189C225.351 77.1143 224.456 78.1725 221.525 78.1725C218.839 78.1725 218.025 77.5213 219.246 76.3003C219.897 75.5677 221.444 75.5677 223.072 76.2189Z" fill="black"/>
<path d="M231.782 74.8351C231.13 75.2421 230.154 75.4049 229.502 75.1607C228.688 74.8351 228.444 75.8119 228.444 79.3121C228.444 81.8355 228.851 83.8705 229.258 83.8705C229.747 83.8705 230.072 82.6495 230.072 81.1029C230.072 78.2539 231.782 75.7305 233.654 75.7305C234.305 75.7305 235.526 77.5213 236.503 79.8005C237.48 81.9983 238.782 83.8705 239.352 83.8705C239.922 83.8705 241.143 82.1611 241.957 80.0447C242.852 77.8469 243.666 75.8119 243.829 75.4049C243.992 74.9979 243.666 74.8351 243.096 75.0793C242.526 75.2421 241.468 76.9515 240.654 78.9051L239.27 82.4867L237.887 78.9051C236.014 74.2653 234.386 73.2071 231.782 74.8351Z" fill="black"/>
<path d="M246.678 76.1374C244.643 78.2538 244.561 80.3702 246.515 82.8122C247.655 84.2774 252.457 84.1146 253.678 82.6494C254.981 81.0214 254.085 80.0446 252.539 81.347C251.073 82.568 247.817 82.2424 247.329 80.7772C247.166 80.126 248.224 79.8004 251.155 79.8004C255.795 79.8004 256.527 78.5794 253.678 75.7304C251.48 73.5326 249.12 73.6954 246.678 76.1374ZM252.701 77.1142C252.864 77.8468 252.05 78.1724 250.097 78.1724C248.469 78.1724 247.166 77.8468 247.166 77.4398C247.166 75.649 252.05 75.4048 252.701 77.1142Z" fill="black"/>
<path d="M282.331 75.4048C279.563 77.277 280.052 82.3238 283.064 83.382C285.831 84.3588 289.494 83.382 289.494 81.754C289.494 80.6958 289.25 80.6144 288.355 81.347C286.889 82.568 282.819 82.161 282.331 80.7772C282.168 80.126 283.226 79.8004 286.157 79.8004C290.797 79.8004 291.529 78.5794 288.68 75.7304C286.727 73.7768 284.773 73.6954 282.331 75.4048ZM287.866 76.9514C288.762 78.0096 288.436 78.1724 285.424 78.1724C282.412 78.1724 282.087 78.0096 282.982 76.9514C283.552 76.3002 284.61 75.7304 285.424 75.7304C286.238 75.7304 287.296 76.3002 287.866 76.9514Z" fill="black"/>
<path d="M311.635 75.4049C307.972 77.9283 310.007 83.8705 314.647 83.8705C317.089 83.8705 320.345 81.9169 319.449 80.9401C319.124 80.6145 318.31 80.8587 317.659 81.3471C316.193 82.5681 312.123 82.2425 311.635 80.7773C311.472 80.1261 312.53 79.8005 315.461 79.8005C319.042 79.8005 319.612 79.5563 319.612 78.2539C319.612 76.4631 316.763 74.1025 314.728 74.1025C313.996 74.1025 312.612 74.6723 311.635 75.4049ZM317.17 76.9515C318.066 78.0097 317.74 78.1725 314.728 78.1725C311.716 78.1725 311.391 78.0097 312.286 76.9515C312.856 76.3003 313.914 75.7305 314.728 75.7305C315.542 75.7305 316.6 76.3003 317.17 76.9515Z" fill="black"/>
<path d="M323.031 75.0793C321.322 76.7887 321.891 78.9051 324.333 79.4749C327.915 80.2075 328.566 80.5331 328.566 81.3471C328.566 82.8123 325.88 83.0565 323.926 81.7541C321.566 80.2889 320.508 80.7773 322.054 82.6495C323.682 84.6031 329.706 83.9519 330.113 81.9169C330.438 80.0447 328.159 78.1725 325.554 78.1725C324.415 78.1725 323.682 77.6841 323.682 76.9515C323.682 75.4863 327.02 75.3235 328.403 76.7073C328.892 77.1957 329.624 77.3585 329.95 77.0329C330.845 76.1375 327.834 74.1025 325.717 74.1025C324.74 74.1025 323.601 74.5095 323.031 75.0793Z" fill="black"/>
<path d="M101.46 75.8119C87.1338 76.7073 83.1452 77.1957 93.7272 76.8701C98.6926 76.7073 108.868 76.5445 116.438 76.5445C124.008 76.5445 129.95 76.3003 129.625 75.9747C128.892 75.1607 113.589 75.0793 101.46 75.8119Z" fill="black"/>
<path d="M344.032 77.277C344.032 77.684 353.8 77.9282 365.847 77.9282C384.244 77.9282 385.953 77.8468 376.999 77.277C361.615 76.463 344.032 76.463 344.032 77.277Z" fill="black"/>
</svg>
