<?xml version="1.0" encoding="UTF-8" standalone="no" ?>
<!DOCTYPE svg PUBLIC "-//W3C//DTD SVG 1.1//EN" "http://www.w3.org/Graphics/SVG/1.1/DTD/svg11.dtd">
<svg xmlns="http://www.w3.org/2000/svg" xmlns:xlink="http://www.w3.org/1999/xlink" version="1.1" width="1080" height="1080" viewBox="0 0 1080 1080" xml:space="preserve">
<desc>Created with Fabric.js 5.2.4</desc>
<defs>
</defs>
<g transform="matrix(1 0 0 1 540 540)" id="74f4a3d1-f1d7-479e-af4b-f17b490e36b5"  >
<rect style="stroke: none; stroke-width: 1; stroke-dasharray: none; stroke-linecap: butt; stroke-dashoffset: 0; stroke-linejoin: miter; stroke-miterlimit: 4; fill: rgb(255,255,255); fill-rule: nonzero; opacity: 1; visibility: hidden;" vector-effect="non-scaling-stroke"  x="-540" y="-540" rx="0" ry="0" width="1080" height="1080" />
</g>
<g transform="matrix(1 0 0 1 540 540)" id="fc06cd76-2c71-417f-bc01-f7e175ce224c"  >
</g>
<g transform="matrix(1 0 0 1.33 540 559.9)"  >
<g style="" vector-effect="non-scaling-stroke"   >
		<g transform="matrix(0.13 0 0 -0.13 -202.1 0)"  >
<path style="stroke: none; stroke-width: 1; stroke-dasharray: none; stroke-linecap: butt; stroke-dashoffset: 0; stroke-linejoin: miter; stroke-miterlimit: 4; fill: rgb(255,255,255); fill-rule: nonzero; opacity: 1;" vector-effect="non-scaling-stroke"  transform=" translate(-1200, -2939.56)" d="M 1165 3456 C 1149 3448 1074 3380 998 3304 C 847 3150 832 3123 865 3060 C 881 3029 881 3026 861 3001 C 788 2909 670 2701 670 2666 C 670 2629 691 2646 719 2706 C 757 2787 811 2878 862 2946 L 900 2997 L 968 2992 C 1044 2987 1076 2998 1122 3047 C 1155 3082 1232 3228 1225 3241 C 1213 3260 1198 3248 1178 3203 C 1110 3048 1022 2988 931 3035 C 899 3051 890 3068 890 3113 C 890 3141 909 3164 1033 3288 C 1156 3411 1179 3430 1207 3430 C 1225 3430 1242 3426 1245 3420 C 1255 3405 1280 3408 1280 3425 C 1280 3444 1319 3445 1364 3426 C 1382 3419 1417 3389 1441 3361 C 1480 3315 1489 3310 1525 3310 C 1561 3310 1567 3306 1577 3281 C 1585 3257 1598 3249 1644 3236 C 1704 3218 1711 3206 1683 3172 C 1669 3156 1637 3147 1534 3131 C 1365 3104 1343 3104 1297 3136 C 1276 3150 1256 3159 1252 3155 C 1240 3144 1266 3115 1307 3094 L 1348 3073 L 1331 3046 C 1314 3020 1312 3020 1307 3039 C 1304 3051 1295 3060 1288 3060 C 1263 3060 1155 2954 1111 2886 C 1040 2778 1017 2697 1012 2541 C 1008 2431 1010 2408 1021 2412 C 1031 2415 1037 2448 1042 2536 C 1049 2673 1071 2755 1125 2845 C 1159 2901 1255 3010 1272 3010 C 1281 3010 1270 2911 1258 2888 C 1253 2878 1238 2867 1225 2864 C 1211 2861 1200 2852 1200 2844 C 1200 2816 1259 2834 1290 2872 C 1303 2889 1312 2890 1369 2882 C 1443 2871 1475 2845 1486 2782 C 1495 2732 1506 2720 1545 2720 C 1596 2720 1607 2699 1587 2636 C 1567 2573 1552 2565 1442 2555 C 1379 2549 1367 2544 1353 2523 C 1338 2500 1338 2496 1358 2454 C 1382 2404 1406 2394 1395 2438 C 1376 2514 1376 2514 1472 2525 C 1571 2537 1599 2555 1619 2619 C 1644 2704 1626 2745 1561 2752 C 1530 2755 1526 2759 1515 2802 C 1509 2828 1497 2857 1489 2866 C 1467 2893 1399 2920 1353 2920 C 1324 2920 1310 2924 1310 2933 C 1310 2940 1327 2975 1349 3011 L 1388 3075 L 1526 3097 C 1603 3109 1669 3119 1673 3119 C 1677 3120 1692 3131 1705 3145 C 1727 3166 1730 3178 1730 3239 C 1730 3335 1724 3340 1600 3340 L 1502 3340 L 1465 3386 C 1413 3449 1364 3470 1270 3469 C 1229 3469 1182 3463 1165 3456 z M 1698 3283 C 1702 3257 1689 3254 1641 3271 C 1593 3288 1600 3312 1653 3308 C 1688 3306 1696 3301 1698 3283 z" stroke-linecap="round" />
</g>
		<g transform="matrix(0.13 0 0 -0.13 -86.77 -12.81)"  >
<path style="stroke: none; stroke-width: 1; stroke-dasharray: none; stroke-linecap: butt; stroke-dashoffset: 0; stroke-linejoin: miter; stroke-miterlimit: 4; fill: rgb(255,255,255); fill-rule: nonzero; opacity: 1;" vector-effect="non-scaling-stroke"  transform=" translate(-2064.99, -3035.66)" d="M 2283 3378 C 2200 3240 2159 3119 2099 2835 C 2062 2658 2056 2643 2040 2685 C 2021 2735 2010 2812 2002 2949 C 1990 3138 1978 3139 1930 2956 C 1898 2833 1886 2800 1870 2800 C 1851 2800 1829 2943 1827 3081 C 1825 3153 1822 3180 1813 3180 C 1796 3180 1796 3069 1811 2945 C 1826 2825 1839 2786 1867 2782 C 1897 2778 1915 2808 1943 2915 C 1965 2997 1967 3001 1973 2971 C 1977 2952 1980 2921 1980 2900 C 1980 2841 2010 2687 2026 2663 C 2044 2634 2066 2634 2080 2661 C 2086 2672 2107 2754 2126 2843 C 2184 3117 2226 3241 2300 3362 C 2317 3388 2330 3415 2330 3420 C 2330 3443 2312 3427 2283 3378 z" stroke-linecap="round" />
</g>
		<g transform="matrix(0.13 0 0 -0.13 -181.19 -50.04)"  >
<path style="stroke: none; stroke-width: 1; stroke-dasharray: none; stroke-linecap: butt; stroke-dashoffset: 0; stroke-linejoin: miter; stroke-miterlimit: 4; fill: rgb(255,255,255); fill-rule: nonzero; opacity: 1;" vector-effect="non-scaling-stroke"  transform=" translate(-1356.83, -3314.88)" d="M 1337 3327 C 1334 3319 1335 3307 1340 3300 C 1351 3282 1382 3296 1378 3317 C 1374 3339 1344 3346 1337 3327 z" stroke-linecap="round" />
</g>
		<g transform="matrix(0.13 0 0 -0.13 19.01 -7.63)"  >
<path style="stroke: none; stroke-width: 1; stroke-dasharray: none; stroke-linecap: butt; stroke-dashoffset: 0; stroke-linejoin: miter; stroke-miterlimit: 4; fill: rgb(255,255,255); fill-rule: nonzero; opacity: 1;" vector-effect="non-scaling-stroke"  transform=" translate(-2858.34, -2996.78)" d="M 2810 3285 C 2731 3263 2638 3214 2596 3171 C 2560 3134 2545 3091 2568 3083 C 2575 3080 2580 3088 2580 3104 C 2580 3164 2719 3255 2847 3280 C 3148 3339 3240 3095 2971 2951 C 2939 2934 2907 2920 2901 2920 C 2893 2920 2890 2964 2890 3060 C 2890 3147 2886 3200 2880 3200 C 2874 3200 2870 3146 2870 3057 C 2870 2959 2866 2910 2858 2902 C 2849 2893 2849 2890 2858 2890 C 2866 2890 2870 2862 2870 2796 C 2870 2663 2889 2663 2892 2795 L 2895 2901 L 2950 2924 C 3156 3007 3225 3177 3090 3266 C 3053 3291 3037 3295 2956 3297 C 2898 3299 2845 3294 2810 3285 z" stroke-linecap="round" />
</g>
		<g transform="matrix(0.13 0 0 -0.13 141.67 -7.63)"  >
<path style="stroke: none; stroke-width: 1; stroke-dasharray: none; stroke-linecap: butt; stroke-dashoffset: 0; stroke-linejoin: miter; stroke-miterlimit: 4; fill: rgb(255,255,255); fill-rule: nonzero; opacity: 1;" vector-effect="non-scaling-stroke"  transform=" translate(-3778.34, -2996.78)" d="M 3730 3285 C 3651 3263 3558 3214 3516 3171 C 3480 3134 3465 3091 3488 3083 C 3495 3080 3500 3088 3500 3104 C 3500 3164 3639 3255 3767 3280 C 4068 3339 4160 3095 3891 2951 C 3859 2934 3827 2920 3821 2920 C 3813 2920 3810 2964 3810 3060 C 3810 3147 3806 3200 3800 3200 C 3794 3200 3790 3146 3790 3057 C 3790 2959 3786 2910 3778 2902 C 3769 2893 3769 2890 3778 2890 C 3786 2890 3790 2862 3790 2796 C 3790 2663 3809 2663 3812 2795 L 3815 2901 L 3870 2924 C 4076 3007 4145 3177 4010 3266 C 3973 3291 3957 3295 3876 3297 C 3818 3299 3765 3294 3730 3285 z" stroke-linecap="round" />
</g>
		<g transform="matrix(0.13 0 0 -0.13 216.52 -12.69)"  >
<path style="stroke: none; stroke-width: 1; stroke-dasharray: none; stroke-linecap: butt; stroke-dashoffset: 0; stroke-linejoin: miter; stroke-miterlimit: 4; fill: rgb(255,255,255); fill-rule: nonzero; opacity: 1;" vector-effect="non-scaling-stroke"  transform=" translate(-4339.67, -3034.7)" d="M 4178 3198 C 4170 3184 4164 3127 4162 3048 C 4159 2941 4155 2919 4140 2905 C 4116 2883 4100 2894 4100 2931 C 4100 2957 4097 2960 4070 2960 C 4033 2960 4000 2929 4000 2895 C 4000 2875 4005 2870 4024 2870 C 4037 2870 4053 2877 4060 2885 C 4070 2897 4074 2897 4086 2886 C 4100 2871 4136 2875 4146 2892 C 4149 2897 4162 2890 4175 2875 C 4202 2847 4213 2844 4232 2864 C 4240 2872 4258 2875 4278 2872 C 4301 2869 4311 2872 4316 2884 C 4322 2900 4324 2900 4341 2884 C 4358 2869 4362 2869 4383 2883 C 4405 2897 4407 2897 4418 2879 C 4433 2855 4456 2855 4502 2880 C 4533 2897 4540 2897 4550 2885 C 4567 2864 4609 2866 4648 2890 C 4694 2918 4688 2924 4639 2898 C 4608 2882 4593 2879 4581 2887 C 4555 2904 4563 2923 4599 2933 C 4622 2938 4629 2945 4623 2951 C 4605 2969 4556 2957 4545 2933 C 4534 2907 4478 2877 4452 2882 C 4441 2884 4435 2895 4435 2910 C 4435 2930 4441 2936 4463 2938 C 4478 2940 4488 2946 4485 2951 C 4472 2970 4441 2958 4413 2923 C 4391 2897 4378 2889 4366 2893 C 4353 2898 4350 2907 4355 2928 C 4360 2955 4359 2957 4328 2958 C 4289 2959 4268 2945 4249 2905 C 4230 2866 4204 2861 4188 2895 C 4178 2916 4180 2931 4200 2988 C 4231 3073 4235 3212 4208 3218 C 4199 3220 4186 3211 4178 3198 z M 4216 3131 C 4213 3095 4204 3045 4195 3020 C 4181 2976 4180 2976 4186 3078 C 4191 3189 4197 3213 4212 3204 C 4219 3200 4220 3172 4216 3131 z M 4071 2922 C 4056 2894 4033 2877 4025 2889 C 4015 2906 4039 2940 4061 2940 C 4077 2940 4079 2937 4071 2922 z M 4321 2922 C 4316 2912 4304 2898 4296 2890 C 4282 2879 4280 2881 4280 2902 C 4280 2932 4287 2940 4312 2940 C 4327 2940 4329 2936 4321 2922 z" stroke-linecap="round" />
</g>
		<g transform="matrix(0.13 0 0 -0.13 70.9 -3.28)"  >
<path style="stroke: none; stroke-width: 1; stroke-dasharray: none; stroke-linecap: butt; stroke-dashoffset: 0; stroke-linejoin: miter; stroke-miterlimit: 4; fill: rgb(255,255,255); fill-rule: nonzero; opacity: 1;" vector-effect="non-scaling-stroke"  transform=" translate(-3247.52, -2964.18)" d="M 3227 3048 C 3223 3031 3212 3020 3197 3017 L 3175 3013 L 3198 3011 C 3217 3010 3220 3005 3220 2965 C 3220 2925 3216 2918 3188 2900 C 3146 2875 3124 2875 3110 2900 C 3099 2921 3103 2925 3144 2932 C 3177 2937 3175 2960 3142 2960 C 3092 2960 3062 2912 3092 2882 C 3109 2865 3161 2867 3189 2886 C 3210 2901 3212 2901 3226 2881 C 3246 2853 3268 2855 3302 2887 C 3330 2913 3353 2913 3331 2887 C 3322 2876 3323 2870 3334 2860 C 3352 2846 3370 2855 3370 2879 C 3370 2889 3380 2905 3393 2914 L 3415 2931 L 3391 2919 C 3372 2910 3365 2911 3351 2924 C 3337 2939 3337 2942 3350 2951 C 3362 2959 3361 2960 3345 2958 C 3333 2956 3326 2947 3326 2937 C 3328 2917 3273 2867 3256 2873 C 3249 2875 3245 2902 3245 2941 L 3245 3005 L 3295 3011 L 3345 3017 L 3299 3018 C 3259 3020 3253 3023 3244 3048 L 3234 3075 L 3227 3048 z" stroke-linecap="round" />
</g>
		<g transform="matrix(0.13 0 0 -0.13 -51.25 4.04)"  >
<path style="stroke: none; stroke-width: 1; stroke-dasharray: none; stroke-linecap: butt; stroke-dashoffset: 0; stroke-linejoin: miter; stroke-miterlimit: 4; fill: rgb(255,255,255); fill-rule: nonzero; opacity: 1;" vector-effect="non-scaling-stroke"  transform=" translate(-2331.39, -2909.23)" d="M 2222 2944 C 2196 2926 2192 2882 2216 2873 C 2225 2870 2249 2876 2270 2888 L 2308 2908 L 2314 2888 C 2318 2872 2324 2869 2341 2873 C 2354 2877 2370 2874 2377 2868 C 2395 2853 2419 2865 2430 2895 C 2435 2909 2446 2920 2455 2920 C 2467 2920 2465 2925 2449 2941 C 2425 2965 2426 2966 2414 2915 C 2403 2868 2387 2863 2380 2904 C 2374 2938 2350 2952 2350 2921 C 2350 2910 2346 2898 2340 2895 C 2334 2892 2330 2900 2330 2914 C 2330 2949 2315 2954 2302 2925 C 2287 2892 2272 2893 2268 2927 C 2264 2960 2251 2965 2222 2944 z M 2240 2894 C 2240 2886 2236 2880 2230 2880 C 2225 2880 2220 2889 2220 2901 C 2220 2912 2225 2918 2230 2915 C 2236 2912 2240 2902 2240 2894 z" stroke-linecap="round" />
</g>
		<g transform="matrix(0.13 0 0 -0.13 -178.63 22.56)"  >
<path style="stroke: none; stroke-width: 1; stroke-dasharray: none; stroke-linecap: butt; stroke-dashoffset: 0; stroke-linejoin: miter; stroke-miterlimit: 4; fill: rgb(255,255,255); fill-rule: nonzero; opacity: 1;" vector-effect="non-scaling-stroke"  transform=" translate(-1376.06, -2770.37)" d="M 1355 2780 C 1346 2765 1359 2750 1381 2750 C 1393 2750 1400 2757 1400 2770 C 1400 2791 1367 2799 1355 2780 z" stroke-linecap="round" />
</g>
		<g transform="matrix(0.13 0 0 -0.13 -68.44 53.87)"  >
<path style="stroke: none; stroke-width: 1; stroke-dasharray: none; stroke-linecap: butt; stroke-dashoffset: 0; stroke-linejoin: miter; stroke-miterlimit: 4; fill: rgb(255,255,255); fill-rule: nonzero; opacity: 1;" vector-effect="non-scaling-stroke"  transform=" translate(-2202.5, -2535.5)" d="M 2160 2536 C 2160 2505 2165 2480 2170 2480 C 2176 2480 2180 2491 2180 2504 C 2180 2525 2186 2529 2213 2532 C 2240 2534 2245 2539 2245 2560 C 2245 2582 2240 2585 2203 2588 L 2160 2591 L 2160 2536 z M 2235 2560 C 2235 2551 2224 2544 2208 2542 C 2185 2539 2180 2543 2180 2560 C 2180 2577 2185 2581 2208 2578 C 2224 2576 2235 2569 2235 2560 z" stroke-linecap="round" />
</g>
		<g transform="matrix(0.13 0 0 -0.13 -53.1 53.94)"  >
<path style="stroke: none; stroke-width: 1; stroke-dasharray: none; stroke-linecap: butt; stroke-dashoffset: 0; stroke-linejoin: miter; stroke-miterlimit: 4; fill: rgb(255,255,255); fill-rule: nonzero; opacity: 1;" vector-effect="non-scaling-stroke"  transform=" translate(-2317.5, -2535)" d="M 2270 2535 L 2270 2480 L 2318 2482 C 2361 2483 2362 2484 2328 2487 C 2299 2490 2290 2496 2290 2510 C 2290 2524 2299 2530 2328 2533 L 2365 2537 L 2328 2538 C 2298 2540 2290 2544 2290 2559 C 2290 2574 2298 2580 2328 2583 C 2362 2586 2361 2587 2318 2588 L 2270 2590 L 2270 2535 z" stroke-linecap="round" />
</g>
		<g transform="matrix(0.13 0 0 -0.13 -39.41 54.14)"  >
<path style="stroke: none; stroke-width: 1; stroke-dasharray: none; stroke-linecap: butt; stroke-dashoffset: 0; stroke-linejoin: miter; stroke-miterlimit: 4; fill: rgb(255,255,255); fill-rule: nonzero; opacity: 1;" vector-effect="non-scaling-stroke"  transform=" translate(-2420.22, -2533.5)" d="M 2388 2583 C 2407 2579 2410 2572 2410 2529 C 2410 2502 2415 2480 2420 2480 C 2426 2480 2430 2502 2430 2529 C 2430 2572 2433 2579 2453 2583 C 2465 2585 2450 2587 2420 2587 C 2390 2587 2375 2585 2388 2583 z" stroke-linecap="round" />
</g>
		<g transform="matrix(0.13 0 0 -0.13 -25.2 53.95)"  >
<path style="stroke: none; stroke-width: 1; stroke-dasharray: none; stroke-linecap: butt; stroke-dashoffset: 0; stroke-linejoin: miter; stroke-miterlimit: 4; fill: rgb(255,255,255); fill-rule: nonzero; opacity: 1;" vector-effect="non-scaling-stroke"  transform=" translate(-2526.77, -2534.93)" d="M 2486 2574 C 2477 2552 2496 2532 2528 2528 C 2544 2526 2555 2519 2555 2510 C 2555 2488 2521 2486 2499 2506 C 2483 2521 2480 2521 2480 2508 C 2480 2476 2553 2469 2569 2499 C 2581 2521 2570 2534 2527 2544 C 2511 2548 2500 2556 2503 2563 C 2508 2580 2541 2584 2551 2569 C 2555 2562 2562 2559 2565 2562 C 2579 2575 2558 2590 2525 2590 C 2504 2590 2490 2584 2486 2574 z" stroke-linecap="round" />
</g>
		<g transform="matrix(0.13 0 0 -0.13 -1.44 53.94)"  >
<path style="stroke: none; stroke-width: 1; stroke-dasharray: none; stroke-linecap: butt; stroke-dashoffset: 0; stroke-linejoin: miter; stroke-miterlimit: 4; fill: rgb(255,255,255); fill-rule: nonzero; opacity: 1;" vector-effect="non-scaling-stroke"  transform=" translate(-2705, -2535)" d="M 2650 2535 L 2650 2480 L 2688 2480 C 2731 2480 2760 2503 2760 2538 C 2760 2570 2733 2590 2689 2590 L 2650 2590 L 2650 2535 z M 2721 2570 C 2749 2555 2746 2512 2716 2498 C 2679 2482 2660 2494 2660 2533 C 2660 2581 2678 2592 2721 2570 z" stroke-linecap="round" />
</g>
		<g transform="matrix(0.13 0 0 -0.13 14.23 53.94)"  >
<path style="stroke: none; stroke-width: 1; stroke-dasharray: none; stroke-linecap: butt; stroke-dashoffset: 0; stroke-linejoin: miter; stroke-miterlimit: 4; fill: rgb(255,255,255); fill-rule: nonzero; opacity: 1;" vector-effect="non-scaling-stroke"  transform=" translate(-2822.5, -2535)" d="M 2780 2535 L 2780 2480 L 2828 2482 C 2871 2483 2872 2484 2838 2487 C 2809 2490 2800 2496 2800 2510 C 2800 2524 2809 2530 2833 2533 L 2865 2537 L 2833 2538 C 2808 2540 2800 2545 2800 2559 C 2800 2574 2808 2580 2838 2583 C 2872 2586 2871 2587 2828 2588 L 2780 2590 L 2780 2535 z" stroke-linecap="round" />
</g>
		<g transform="matrix(0.13 0 0 -0.13 29.06 53.61)"  >
<path style="stroke: none; stroke-width: 1; stroke-dasharray: none; stroke-linecap: butt; stroke-dashoffset: 0; stroke-linejoin: miter; stroke-miterlimit: 4; fill: rgb(255,255,255); fill-rule: nonzero; opacity: 1;" vector-effect="non-scaling-stroke"  transform=" translate(-2933.72, -2537.5)" d="M 2894 2575 C 2884 2550 2897 2532 2927 2528 C 2944 2526 2955 2519 2955 2510 C 2955 2488 2918 2485 2902 2506 C 2889 2524 2888 2524 2892 2505 C 2895 2489 2903 2485 2935 2485 C 2971 2485 2975 2488 2975 2509 C 2975 2528 2968 2536 2943 2542 C 2925 2547 2908 2555 2905 2560 C 2895 2576 2931 2584 2951 2572 C 2977 2556 2985 2557 2970 2575 C 2963 2583 2944 2590 2928 2590 C 2912 2590 2897 2584 2894 2575 z" stroke-linecap="round" />
</g>
		<g transform="matrix(0.13 0 0 -0.13 44.23 53.94)"  >
<path style="stroke: none; stroke-width: 1; stroke-dasharray: none; stroke-linecap: butt; stroke-dashoffset: 0; stroke-linejoin: miter; stroke-miterlimit: 4; fill: rgb(255,255,255); fill-rule: nonzero; opacity: 1;" vector-effect="non-scaling-stroke"  transform=" translate(-3047.5, -2535)" d="M 3000 2535 L 3000 2480 L 3048 2482 C 3091 2483 3092 2484 3058 2487 C 3029 2490 3020 2496 3020 2510 C 3020 2524 3029 2530 3058 2533 L 3095 2537 L 3058 2538 C 3028 2540 3020 2544 3020 2559 C 3020 2574 3028 2580 3058 2583 C 3092 2586 3091 2587 3048 2588 L 3000 2590 L 3000 2535 z" stroke-linecap="round" />
</g>
		<g transform="matrix(0.13 0 0 -0.13 59.2 53.94)"  >
<path style="stroke: none; stroke-width: 1; stroke-dasharray: none; stroke-linecap: butt; stroke-dashoffset: 0; stroke-linejoin: miter; stroke-miterlimit: 4; fill: rgb(255,255,255); fill-rule: nonzero; opacity: 1;" vector-effect="non-scaling-stroke"  transform=" translate(-3159.76, -2535)" d="M 3110 2535 C 3110 2505 3115 2480 3120 2480 C 3126 2480 3130 2492 3130 2506 C 3130 2528 3134 2531 3158 2528 C 3177 2526 3186 2519 3188 2503 C 3190 2490 3196 2480 3201 2480 C 3213 2480 3212 2517 3200 2525 C 3192 2530 3193 2536 3201 2546 C 3219 2568 3194 2590 3149 2590 L 3110 2590 L 3110 2535 z M 3185 2560 C 3185 2551 3174 2544 3158 2542 C 3135 2539 3130 2543 3130 2560 C 3130 2577 3135 2581 3158 2578 C 3174 2576 3185 2569 3185 2560 z" stroke-linecap="round" />
</g>
		<g transform="matrix(0.13 0 0 -0.13 74.53 53.88)"  >
<path style="stroke: none; stroke-width: 1; stroke-dasharray: none; stroke-linecap: butt; stroke-dashoffset: 0; stroke-linejoin: miter; stroke-miterlimit: 4; fill: rgb(255,255,255); fill-rule: nonzero; opacity: 1;" vector-effect="non-scaling-stroke"  transform=" translate(-3274.79, -2535.48)" d="M 3230 2565 C 3247 2521 3270 2480 3279 2480 C 3289 2480 3332 2581 3325 2588 C 3322 2591 3310 2571 3298 2544 L 3277 2495 L 3257 2543 C 3237 2591 3212 2611 3230 2565 z" stroke-linecap="round" />
</g>
		<g transform="matrix(0.13 0 0 -0.13 90.23 53.94)"  >
<path style="stroke: none; stroke-width: 1; stroke-dasharray: none; stroke-linecap: butt; stroke-dashoffset: 0; stroke-linejoin: miter; stroke-miterlimit: 4; fill: rgb(255,255,255); fill-rule: nonzero; opacity: 1;" vector-effect="non-scaling-stroke"  transform=" translate(-3392.5, -2535)" d="M 3350 2535 L 3350 2480 L 3393 2482 L 3435 2483 L 3398 2487 C 3369 2490 3360 2496 3360 2510 C 3360 2524 3369 2530 3398 2533 L 3435 2537 L 3398 2538 C 3368 2540 3360 2544 3360 2559 C 3360 2574 3368 2580 3398 2583 L 3435 2587 L 3393 2588 L 3350 2590 L 3350 2535 z" stroke-linecap="round" />
</g>
		<g transform="matrix(0.13 0 0 -0.13 109.92 54.14)"  >
<path style="stroke: none; stroke-width: 1; stroke-dasharray: none; stroke-linecap: butt; stroke-dashoffset: 0; stroke-linejoin: miter; stroke-miterlimit: 4; fill: rgb(255,255,255); fill-rule: nonzero; opacity: 1;" vector-effect="non-scaling-stroke"  transform=" translate(-3540.22, -2533.5)" d="M 3508 2583 C 3527 2579 3530 2572 3530 2529 C 3530 2502 3535 2480 3540 2480 C 3546 2480 3550 2502 3550 2529 C 3550 2572 3553 2579 3573 2583 C 3585 2585 3570 2587 3540 2587 C 3510 2587 3495 2585 3508 2583 z" stroke-linecap="round" />
</g>
		<g transform="matrix(0.13 0 0 -0.13 125.23 53.71)"  >
<path style="stroke: none; stroke-width: 1; stroke-dasharray: none; stroke-linecap: butt; stroke-dashoffset: 0; stroke-linejoin: miter; stroke-miterlimit: 4; fill: rgb(255,255,255); fill-rule: nonzero; opacity: 1;" vector-effect="non-scaling-stroke"  transform=" translate(-3655, -2536.71)" d="M 3613 2535 C 3613 2502 3615 2487 3617 2503 C 3621 2526 3626 2530 3655 2530 C 3684 2530 3689 2526 3693 2503 C 3695 2487 3697 2502 3697 2535 C 3697 2568 3695 2585 3693 2573 C 3689 2554 3682 2550 3655 2550 C 3628 2550 3621 2554 3617 2573 C 3615 2585 3613 2568 3613 2535 z" stroke-linecap="round" />
</g>
		<g transform="matrix(0.13 0 0 -0.13 140.9 53.94)"  >
<path style="stroke: none; stroke-width: 1; stroke-dasharray: none; stroke-linecap: butt; stroke-dashoffset: 0; stroke-linejoin: miter; stroke-miterlimit: 4; fill: rgb(255,255,255); fill-rule: nonzero; opacity: 1;" vector-effect="non-scaling-stroke"  transform=" translate(-3772.5, -2535)" d="M 3730 2535 L 3730 2480 L 3778 2482 C 3821 2483 3822 2484 3788 2487 C 3759 2490 3750 2496 3750 2510 C 3750 2524 3759 2530 3783 2533 L 3815 2537 L 3783 2538 C 3758 2540 3750 2545 3750 2559 C 3750 2574 3758 2580 3788 2583 C 3822 2586 3821 2587 3778 2588 L 3730 2590 L 3730 2535 z" stroke-linecap="round" />
</g>
		<g transform="matrix(0.13 0 0 -0.13 162.9 53.87)"  >
<path style="stroke: none; stroke-width: 1; stroke-dasharray: none; stroke-linecap: butt; stroke-dashoffset: 0; stroke-linejoin: miter; stroke-miterlimit: 4; fill: rgb(255,255,255); fill-rule: nonzero; opacity: 1;" vector-effect="non-scaling-stroke"  transform=" translate(-3937.56, -2535.5)" d="M 3890 2536 L 3890 2480 L 3929 2480 C 3979 2480 3992 2496 3982 2546 C 3975 2583 3972 2585 3932 2588 L 3890 2591 L 3890 2536 z M 3965 2560 C 3965 2551 3954 2544 3938 2542 C 3915 2539 3910 2543 3910 2560 C 3910 2577 3915 2581 3938 2578 C 3954 2576 3965 2569 3965 2560 z M 3970 2516 C 3970 2502 3949 2490 3924 2490 C 3916 2490 3910 2499 3910 2510 C 3910 2526 3917 2530 3940 2530 C 3959 2530 3970 2525 3970 2516 z" stroke-linecap="round" />
</g>
		<g transform="matrix(0.13 0 0 -0.13 178.23 53.94)"  >
<path style="stroke: none; stroke-width: 1; stroke-dasharray: none; stroke-linecap: butt; stroke-dashoffset: 0; stroke-linejoin: miter; stroke-miterlimit: 4; fill: rgb(255,255,255); fill-rule: nonzero; opacity: 1;" vector-effect="non-scaling-stroke"  transform=" translate(-4052.5, -2535)" d="M 4010 2535 L 4010 2480 L 4058 2482 C 4101 2483 4102 2484 4068 2487 C 4039 2490 4030 2496 4030 2510 C 4030 2524 4039 2530 4063 2533 L 4095 2537 L 4063 2538 C 4038 2540 4030 2545 4030 2559 C 4030 2574 4038 2580 4068 2583 C 4102 2586 4101 2587 4058 2588 L 4010 2590 L 4010 2535 z" stroke-linecap="round" />
</g>
		<g transform="matrix(0.13 0 0 -0.13 193 53.62)"  >
<path style="stroke: none; stroke-width: 1; stroke-dasharray: none; stroke-linecap: butt; stroke-dashoffset: 0; stroke-linejoin: miter; stroke-miterlimit: 4; fill: rgb(255,255,255); fill-rule: nonzero; opacity: 1;" vector-effect="non-scaling-stroke"  transform=" translate(-4163.28, -2537.41)" d="M 4127 2583 C 4107 2564 4122 2540 4161 2530 C 4184 2523 4200 2514 4197 2507 C 4191 2487 4160 2487 4138 2507 C 4118 2525 4118 2524 4121 2505 C 4125 2489 4133 2485 4165 2485 C 4201 2485 4205 2488 4205 2509 C 4205 2528 4198 2536 4173 2542 C 4154 2547 4140 2557 4140 2565 C 4140 2583 4171 2585 4188 2568 C 4201 2555 4215 2563 4205 2579 C 4198 2591 4137 2594 4127 2583 z" stroke-linecap="round" />
</g>
		<g transform="matrix(0.13 0 0 -0.13 207.26 54.14)"  >
<path style="stroke: none; stroke-width: 1; stroke-dasharray: none; stroke-linecap: butt; stroke-dashoffset: 0; stroke-linejoin: miter; stroke-miterlimit: 4; fill: rgb(255,255,255); fill-rule: nonzero; opacity: 1;" vector-effect="non-scaling-stroke"  transform=" translate(-4270.22, -2533.5)" d="M 4238 2583 C 4257 2579 4260 2572 4260 2529 C 4260 2502 4265 2480 4270 2480 C 4276 2480 4280 2502 4280 2529 C 4280 2572 4283 2579 4303 2583 C 4315 2585 4300 2587 4270 2587 C 4240 2587 4225 2585 4238 2583 z" stroke-linecap="round" />
</g>
		<g transform="matrix(0.13 0 0 -0.13 -108.45 54.46)"  >
<path style="stroke: none; stroke-width: 1; stroke-dasharray: none; stroke-linecap: butt; stroke-dashoffset: 0; stroke-linejoin: miter; stroke-miterlimit: 4; fill: rgb(255,255,255); fill-rule: nonzero; opacity: 1;" vector-effect="non-scaling-stroke"  transform=" translate(-1902.42, -2531.08)" d="M 1705 2530 C 1634 2526 1689 2524 1863 2524 C 2010 2524 2130 2528 2130 2532 C 2130 2541 1879 2540 1705 2530 z" stroke-linecap="round" />
</g>
		<g transform="matrix(0.13 0 0 -0.13 242 54.46)"  >
<path style="stroke: none; stroke-width: 1; stroke-dasharray: none; stroke-linecap: butt; stroke-dashoffset: 0; stroke-linejoin: miter; stroke-miterlimit: 4; fill: rgb(255,255,255); fill-rule: nonzero; opacity: 1;" vector-effect="non-scaling-stroke"  transform=" translate(-4530.79, -2531.08)" d="M 4300 2532 C 4300 2528 4420 2524 4568 2524 C 4769 2524 4805 2525 4715 2530 C 4544 2540 4300 2541 4300 2532 z" stroke-linecap="round" />
</g>
</g>
</g>
</svg>