<svg width="29" height="28" viewBox="0 0 29 28" fill="none" xmlns="http://www.w3.org/2000/svg">
<path d="M13 25.5C8.65728 24.5694 5.23667 20.9727 3.29781 18.161C2.36076 16.8021 1.99824 15.0785 2.73824 13.603C4.89325 9.30604 11.1417 4.59896 14.5 2.5C13.2775 3.7225 16.0016 5.35472 17.4196 4.36565C18.4046 3.67861 19.3977 2.6883 20 2V7C20 10.5 24 12.5 26.5 16.5C28.1 20.5 24.8333 20.8333 23 20.5L15.5873 17.8837C15.0134 17.6812 14.3934 18.0335 14.2762 18.6307C13.8961 20.5664 13.3262 23.543 13 25.5Z" stroke="#014F20" stroke-width="4" stroke-linecap="round" stroke-linejoin="round"/>
</svg>
