<svg width="60" height="42" viewBox="0 0 60 42" fill="none" xmlns="http://www.w3.org/2000/svg">
<path d="M12.5 34C10.9635 33.5519 8.82205 33.0791 6.74444 32.8935C1.44547 32.4202 0.502347 39.6407 5.82207 39.5805C6.68897 39.5707 7.46821 39.5 8 39.5C9.6 39.5 20 39.5 25 39.5C23.1008 39.2078 19.5367 37.8911 18.3491 33.5293C17.9926 32.2203 18.2504 30.847 18.7436 29.5832C21.1832 23.332 26.1117 10.9708 28.5 5C31.8333 8.83333 40.1 14.2 46.5 5C48.744 10.6099 53.7854 23.3592 56.4749 30.1699C56.8243 31.0549 57.12 31.9761 57.0706 32.9263C56.9172 35.876 54.9102 39.7444 47.8141 39.6541C46.4508 39.6367 45.4123 38.4635 44.5082 37.443C43.8093 36.6542 42.6944 36 41 36C38.5 36 37.5 37.5 37.5 40.5C37.3333 39 36.3 36 33.5 36C30 36 30 39 30 40.5" stroke="#014F20" stroke-width="4"/>
<circle cx="33" cy="20" r="2" fill="#014F20"/>
<circle cx="44" cy="20" r="2" fill="#014F20"/>
</svg>
