<svg width="64" height="64" viewBox="0 0 64 64" fill="none" xmlns="http://www.w3.org/2000/svg">
<path d="M16 56C14.4635 55.5519 12.3221 55.0791 10.2444 54.8935C4.94547 54.4202 4.00235 61.6407 9.32207 61.5805C10.189 61.5707 10.9682 61.5 11.5 61.5C13.1 61.5 23.5 61.5 28.5 61.5C26.6008 61.2078 23.0367 59.8911 21.8491 55.5293C21.4926 54.2203 21.7504 52.847 22.2436 51.5832C24.6832 45.332 29.6117 32.9708 32 27C35.3333 30.8333 43.6 36.2 50 27C52.244 32.6099 57.2854 45.3592 59.9749 52.1699C60.3243 53.0549 60.62 53.9761 60.5706 54.9263C60.4172 57.876 58.4102 61.7444 51.3141 61.6541C49.9508 61.6367 48.9123 60.4635 48.0082 59.443C47.3093 58.6542 46.1944 58 44.5 58C42 58 41 59.5 41 62.5C40.8333 61 39.8 58 37 58C33.5 58 33.5 61 33.5 62.5" stroke="black" stroke-width="2"/>
<circle cx="36" cy="42" r="1" fill="black"/>
<circle cx="46" cy="42" r="1" fill="black"/>
</svg>
