<svg width="45" height="55" viewBox="0 0 45 55" fill="none" xmlns="http://www.w3.org/2000/svg">
<path d="M2 41.0298H7.57568M42.8883 41.0298H19.9661M41.0297 17.1782C41.3395 14.3904 39.7907 8.81472 31.1174 8.81472M31.1174 8.81472V31.1174C30.6012 34.4215 27.6481 41.0298 19.9661 41.0298M31.1174 8.81472C28.3127 8.81472 23.3132 8.34442 19.0368 9.69072M11.2928 21.2051C11.1353 21.2051 13.4726 21.2051 15.9658 21.2051C18.175 21.2051 19.9661 22.996 19.9661 25.2051V35.7638C20.0693 37.5191 19.2846 41.0298 15.3197 41.0298M11.2928 21.2051C8.07129 21.2051 7.47243 24.7157 7.57568 26.471V41.0298M11.2928 21.2051C11.2928 14.1239 14.8119 11.0208 19.0368 9.69072M15.3197 41.0298H19.9661M15.3197 41.0298H11.4477M7.57568 41.0298H11.4477M19.9661 41.0298C19.9661 50.4465 14.1839 52.5941 11.2928 52.4909L11.4477 41.0298M15.0099 2C14.5969 3.10026 14.8241 6.17878 19.0368 9.69072M10.0538 5.00476C9.64074 6.10503 9.8679 9.18354 14.0806 12.6955" stroke="#014F20" stroke-width="4" stroke-linecap="round" stroke-linejoin="round"/>
<circle cx="24.3027" cy="15.0099" r="1.85856" fill="#014F20"/>
<path d="M41.0297 17.1782H31.1174" stroke="#014F20" stroke-width="4" stroke-linecap="round" stroke-linejoin="round"/>
</svg>
