<svg width="39" height="35" viewBox="0 0 39 35" fill="none" xmlns="http://www.w3.org/2000/svg">
<path d="M2.5 32.5001C3.82627 31.1738 6.84116 29.552 10.033 31.3636C11.8397 32.3891 13.9278 33.7415 15.527 32.4155C17.3585 30.8969 17.9343 27.9344 14.5 24.5002C11 21.0002 3 12.5002 8 9.00017C10.8574 7 13.5 8.00001 15 9.50017C17.3715 11.8719 22.5 26.5002 27.5 26.5002C32.5 26.5002 34 22.5002 31.5 19.0002C28 16.0002 26.5 12.0002 29 9.00017" stroke="#014F20" stroke-width="4" stroke-linecap="round" stroke-linejoin="round"/>
<path fill-rule="evenodd" clip-rule="evenodd" d="M37.6657 2.26425C39.4814 4.61934 38.6301 8.31963 35.7642 10.5291C32.8984 12.7385 29.1032 12.6205 27.2876 10.2654C25.4719 7.91031 26.3232 4.21002 29.1891 2.00058C32.0549 -0.208878 35.8501 -0.0908209 37.6657 2.26425ZM34 2.99992C34 3.55221 33.5523 3.99992 33 3.99992C32.4477 3.99992 32 3.55221 32 2.99992C32 2.44763 32.4477 1.99992 33 1.99992C33.5523 1.99992 34 2.44763 34 2.99992ZM36 6.99992C36.5523 6.99992 37 6.55221 37 5.99992C37 5.44763 36.5523 4.99992 36 4.99992C35.4477 4.99992 35 5.44763 35 5.99992C35 6.55221 35.4477 6.99992 36 6.99992Z" fill="#014F20"/>
</svg>
