<svg width="48" height="42" viewBox="0 0 48 42" fill="none" xmlns="http://www.w3.org/2000/svg">
<path d="M7.03424 34C6.88437 33.4734 6.76262 32.9173 6.66752 32.3341C6.52376 31.4525 6.56193 30.5408 6.73109 29.6637C10.1984 11.6858 24.5705 15.5001 27.5 15.5001C29.0161 15.3106 29.742 14.8338 30.0046 14.2602C30.8466 12.4208 27.9258 11.3128 25.9445 10.9042C16.4152 8.93903 13.5134 7.19505 11.7021 4.61748C11.3211 4.0753 11.6399 3.33992 12.2911 3.21695C23.6737 1.06729 32.4819 8.48198 32 8.00006C31.524 7.52406 36.0327 6.5949 41.6434 7.80101C42.2141 7.92368 42.773 8.11966 43.2685 8.42823C47.0926 10.8098 45.4132 14.0869 44 15.5001C42 17.3334 37.7 21.5001 36.5 23.5001C33.5 29.5001 36 32.0001 39 35.0001C42.2 37.0001 41 39.1667 40 40.0001H15C10.5811 40.0001 8.09869 37.7407 7.03424 34ZM7.03424 34C4.20685 34.8 2.16667 35.6667 1.5 36" stroke="#014F20" stroke-width="4"/>
<path d="M14 26.5C17.1667 26.1667 23.5 27.2 23.5 34C25 34 34 34 34 40" stroke="#014F20" stroke-width="4"/>
<circle cx="38" cy="12" r="2" fill="#014F20"/>
</svg>
