<svg width="43" height="32" viewBox="0 0 43 32" fill="none" xmlns="http://www.w3.org/2000/svg">
<path d="M8.96098 25.7895C8.2424 25.5799 7.33925 25.3628 6.38464 25.2003C1.60016 24.3856 0.88168 29.7323 5.73503 29.7323V29.7323C6.88203 29.7323 14.3376 29.7323 17.922 29.7323C16.6449 29.5358 14.3177 28.6932 13.3314 26.0089C12.8635 24.7354 13.1548 23.343 13.6493 22.0797C15.4585 17.4579 18.7856 9.1135 20.431 5C22.8206 7.74803 28.7468 11.5953 33.3348 5C34.9031 8.92055 38.3772 17.7051 40.3371 22.6676C40.6866 23.5526 40.9992 24.4804 40.8758 25.4239C40.6209 27.3739 39.1901 29.6745 34.9313 29.835C33.5689 29.8863 32.5297 28.6144 31.4219 27.8196C30.9334 27.4692 30.2716 27.2232 29.392 27.2232C27.5998 27.2232 26.8829 28.2985 26.8829 30.4492C26.7635 29.3739 26.0227 27.2232 24.0154 27.2232C21.5063 27.2232 21.5063 29.3739 21.5063 30.4492" stroke="#014F20" stroke-width="4"/>
<circle cx="23.657" cy="15.7531" r="1.43376" fill="#014F20"/>
<circle cx="31.5426" cy="15.7531" r="1.43376" fill="#014F20"/>
</svg>
