<svg width="70" height="86" viewBox="0 0 70 86" fill="none" xmlns="http://www.w3.org/2000/svg">
<path d="M2 65H11M68 65H31M65 26.5C65.5 22 63 13 49 13M49 13V49C48.1667 54.3333 43.4 65 31 65M49 13C44.4727 13 36.4028 12.2409 29.5 14.414M17 33C16.694 33 22.2222 33 27.0009 33C29.2101 33 31 34.7909 31 37V56.5C31.1667 59.3333 29.9 65 23.5 65M17 33C11.8 33 10.8333 38.6667 11 41.5V65M17 33C17 21.5698 22.6804 16.5609 29.5 14.414M23.5 65H31M23.5 65H17.25M11 65H17.25M31 65C31 80.2 21.6667 83.6667 17 83.5L17.25 65M23 2C22.3333 3.776 22.7 8.74519 29.5 14.414M15 6.85015C14.3333 8.62615 14.7 13.5953 21.5 19.2641" stroke="#014F20" stroke-width="4" stroke-linecap="round" stroke-linejoin="round"/>
<circle cx="38" cy="23" r="3" fill="#014F20"/>
<path d="M65 26.5H49" stroke="#014F20" stroke-width="4" stroke-linecap="round" stroke-linejoin="round"/>
</svg>
