<svg width="39" height="38" viewBox="0 0 39 38" fill="none" xmlns="http://www.w3.org/2000/svg">
<path d="M17.4042 35.2811C10.8435 33.8752 5.77869 28.1443 3.18459 24.0999C2.29341 22.7105 1.92567 21.0102 2.54267 19.4792C5.0752 13.1951 14.5445 6.02853 19.5146 2.9222C17.7946 4.64215 21.6272 6.93853 23.6222 5.54701C25.0081 4.5804 26.4053 3.18712 27.2526 2.21875V9.25329C27.2526 14.1775 32.8802 16.9913 36.3975 22.6189C38.6485 28.2465 34.0526 28.7155 31.4733 28.2465L20.6019 24.4096C20.028 24.207 19.4082 24.558 19.2905 25.1551C18.7598 27.8461 17.8899 32.367 17.4042 35.2811Z" stroke="#014F20" stroke-width="4" stroke-linecap="round" stroke-linejoin="round"/>
<circle cx="22" cy="16" r="2" fill="#014F20"/>
</svg>
