<svg width="49" height="37" viewBox="0 0 49 37" fill="none" xmlns="http://www.w3.org/2000/svg">
<path d="M33 27C29.1722 19.3444 32.1306 12.6474 34.8302 9.27934C35.4532 8.50216 36.5783 8.46063 37.3353 9.10803C39.826 11.2384 43.5379 14.7327 45.7569 17.8676C46.2546 18.5707 46.3686 19.4784 46.0148 20.2638C42.7197 27.5789 31.9703 32.4414 25.3851 34.4662C24.2022 34.8299 22.9282 34.5552 21.9513 33.7954L11.7068 25.8275C10.6875 25.0347 9.27588 24.9822 8.2064 25.7059C6.42136 26.9137 3.98461 28.5824 2 30C6.8 24 4 12.8333 2 8C3.25156 8.69531 6.03471 10.3885 8.54875 12.3244C9.4868 13.0467 10.6917 13.4263 11.7954 12.9978C16.2084 11.2844 20.1678 6.35356 22.3981 3.73268C23.0856 2.92474 24.1027 2.47008 25.1473 2.65467C27.9102 3.14285 30.7516 4.66775 32 5.5" stroke="#014F20" stroke-width="4" stroke-linecap="round" stroke-linejoin="round"/>
<circle cx="38" cy="18" r="2" fill="#014F20"/>
</svg>
